# 3ds Max Wavefront OBJ Exporter v0.99 - (c)2007 guruware
# File Created: 27.11.2023 09:23:46

mtllib Vertical Dips.mtl

#
# object PuzzleStraightVerticalDips
#

v  295.2754 -29.5275 -295.2756
v  295.2754 23.0315 -295.2756
v  295.2751 23.0315 295.2759
v  295.2751 -29.5275 295.2759
v  -295.2751 -29.5275 295.2761
v  -295.2751 23.0315 295.2761
v  -295.2749 23.0315 -295.2754
v  -295.2749 -29.5275 -295.2754
v  -61.0264 29.5275 -288.7798
v  -288.7788 29.5275 -288.7793
v  -48.9231 29.5275 -280.6870
v  -43.9180 29.5275 -270.6946
v  -46.4993 29.5275 -259.5317
v  -57.9683 29.5275 -241.9548
v  -62.6411 29.5275 -222.6809
v  -62.6411 29.5275 -200.4607
v  61.0273 29.5275 -288.7795
v  48.9241 29.5275 -280.6868
v  288.7798 29.5275 -288.7795
v  43.9189 29.5275 -270.6941
v  46.5000 29.5275 -259.5312
v  57.9690 29.5275 -241.9546
v  62.6421 29.5275 -222.6807
v  62.6421 29.5275 -200.4604
v  -61.0266 29.5275 288.7793
v  -48.9233 29.5275 280.6868
v  -288.7791 29.5275 288.7798
v  -46.4993 29.5275 259.5312
v  -57.9678 29.5275 241.9546
v  -62.6409 29.5275 222.6807
v  -62.6409 29.5275 200.4604
v  -43.9182 29.5275 270.6943
v  61.0271 29.5275 288.7795
v  288.7795 29.5275 288.7795
v  48.9238 29.5275 280.6870
v  43.9187 29.5275 270.6946
v  46.4998 29.5275 259.5315
v  57.9690 29.5275 241.9548
v  62.6421 29.5275 222.6809
v  62.6421 29.5275 200.4607
v  -49.5940 29.5275 175.5869
v  -49.5940 29.5275 -175.5872
v  -23.9104 29.5275 159.2888
v  -23.9104 29.5275 -159.2893
v  23.9114 29.5275 159.2891
v  49.5952 29.5275 175.5872
v  49.5952 29.5275 -175.5869
v  23.9114 29.5275 -159.2891
v  0.0005 29.5275 156.8074
v  0.0005 29.5275 -156.8079
v  293.5623 27.8140 -293.5620
v  293.5059 27.7582 293.5061
v  -293.5615 27.8140 293.5625
v  -293.5056 27.7582 -293.5059
v  59.0554 23.0315 295.2759
v  59.5481 27.9035 293.6516
v  -59.0547 23.0315 295.2756
v  -59.5476 27.9035 293.6514
v  43.8850 23.0315 285.1321
v  45.1448 27.9035 284.0208
v  37.0625 23.0315 271.5110
v  38.7764 27.9035 271.3069
v  -43.8845 23.0315 285.1318
v  -45.1443 27.9035 284.0205
v  -37.0618 23.0315 271.5107
v  -38.7759 27.9035 271.3066
v  -40.4294 23.0315 256.9458
v  -41.9470 27.9035 257.5920
v  -51.9180 23.0315 239.3394
v  -53.4304 27.9035 239.9932
v  -56.1450 23.0315 221.9043
v  -57.7690 27.9035 222.0984
v  -56.1450 23.0315 202.0605
v  -57.3611 28.3116 201.7610
v  -44.6477 23.0315 180.1416
v  -45.8843 27.9035 179.0029
v  -21.7200 23.0315 165.5925
v  -22.2678 27.9035 164.0166
v  0.0005 23.0315 163.3384
v  0.0005 27.9035 161.7056
v  21.7209 23.0315 165.5928
v  22.2686 27.9035 164.0168
v  44.6489 23.0315 180.1418
v  45.8855 27.9035 179.0032
v  56.1460 23.0315 202.0608
v  57.6843 27.9891 201.6819
v  56.1460 23.0315 221.9045
v  57.7698 27.9035 222.0986
v  51.9189 23.0315 239.3396
v  53.4314 27.9035 239.9934
v  40.4302 23.0315 256.9460
v  41.9478 27.9035 257.5923
v  59.0554 23.0315 -295.2756
v  59.5483 27.9035 -293.6516
v  -59.0544 23.0315 -295.2759
v  -59.5474 27.9035 -293.6519
v  -43.8843 23.0315 -285.1321
v  -45.1440 27.9035 -284.0210
v  43.8853 23.0315 -285.1318
v  45.1450 27.9035 -284.0208
v  37.0627 23.0315 -271.5110
v  38.7766 27.9035 -271.3069
v  40.4304 23.0315 -256.9460
v  41.9480 27.9035 -257.5923
v  51.9189 23.0315 -239.3396
v  53.4314 27.9035 -239.9932
v  56.1460 23.0315 -221.9043
v  57.7698 27.9035 -222.0986
v  56.1460 23.0315 -202.0608
v  57.3618 28.3116 -201.7612
v  44.6489 23.0315 -180.1418
v  45.8855 27.9035 -179.0029
v  21.7209 23.0315 -165.5928
v  22.2686 27.9035 -164.0168
v  0.0005 23.0315 -163.3389
v  0.0005 27.9035 -161.7061
v  -21.7200 23.0315 -165.5930
v  -22.2678 27.9035 -164.0171
v  -44.6479 23.0315 -180.1421
v  -45.8845 27.9035 -179.0032
v  -56.1450 23.0315 -202.0610
v  -57.6833 27.9891 -201.6821
v  -56.1450 23.0315 -221.9045
v  -57.7690 27.9035 -222.0989
v  -51.9180 23.0315 -239.3398
v  -53.4304 27.9035 -239.9934
v  -40.4292 23.0315 -256.9463
v  -41.9470 27.9035 -257.5925
v  -37.0620 23.0315 -271.5112
v  -38.7756 27.9035 -271.3071
# 130 vertices

vn 1.0000 0.0000 0.0000
vn 0.8851 0.2711 -0.3783
vn 0.8838 0.2804 0.3745
vn -1.0000 0.0000 -0.0000
vn -0.8851 0.2711 0.3783
vn -0.8838 0.2804 -0.3745
vn 0.0528 0.9834 -0.1738
vn -0.1350 0.9816 -0.1350
vn 0.1350 0.9837 -0.1191
vn 0.1823 0.9830 -0.0217
vn 0.1610 0.9846 0.0686
vn 0.1297 0.9900 0.0560
vn 0.1463 0.9891 0.0175
vn 0.1201 0.9923 -0.0296
vn -0.0528 0.9834 -0.1738
vn -0.1350 0.9837 -0.1191
vn 0.1296 0.9831 -0.1296
vn -0.1823 0.9830 -0.0217
vn -0.1610 0.9846 0.0686
vn -0.1297 0.9900 0.0561
vn -0.1463 0.9891 0.0175
vn -0.0903 0.9957 -0.0223
vn 0.0528 0.9834 0.1738
vn 0.1350 0.9837 0.1191
vn -0.1296 0.9831 0.1296
vn 0.1610 0.9846 -0.0686
vn 0.1297 0.9900 -0.0561
vn 0.1463 0.9891 -0.0175
vn 0.0903 0.9957 0.0223
vn 0.1823 0.9830 0.0217
vn -0.0528 0.9834 0.1738
vn 0.1350 0.9816 0.1350
vn -0.1350 0.9837 0.1191
vn -0.1823 0.9830 0.0217
vn -0.1610 0.9846 -0.0686
vn -0.1297 0.9900 -0.0561
vn -0.1463 0.9891 -0.0175
vn -0.1201 0.9923 0.0296
vn 0.0955 0.9915 0.0879
vn 0.0955 0.9915 -0.0879
vn 0.0439 0.9910 0.1263
vn 0.0439 0.9910 -0.1263
vn -0.0439 0.9910 0.1263
vn -0.0955 0.9915 0.0879
vn -0.0955 0.9915 -0.0879
vn -0.0439 0.9910 -0.1263
vn -0.0000 0.9888 0.1491
vn 0.0000 0.9888 -0.1491
vn 0.5088 0.6948 -0.5083
vn 0.5056 0.6995 0.5051
vn -0.5088 0.6948 0.5083
vn -0.5056 0.6994 -0.5051
vn -0.2743 0.3290 0.9036
vn -0.2133 0.6771 0.7043
vn 0.2743 0.3290 0.9036
vn 0.2135 0.6771 0.7042
vn -0.7089 0.3260 0.6254
vn -0.5502 0.6795 0.4854
vn -0.9360 0.3339 0.1115
vn -0.7332 0.6744 0.0873
vn 0.7089 0.3260 0.6254
vn 0.5502 0.6795 0.4854
vn 0.9360 0.3340 0.1115
vn 0.7332 0.6744 0.0873
vn 0.8714 0.3207 -0.3712
vn 0.6691 0.6863 -0.2850
vn 0.8695 0.3204 -0.3759
vn 0.6223 0.7351 -0.2690
vn 0.9413 0.3183 -0.1125
vn 0.6845 0.7259 -0.0671
vn 0.9448 0.2308 0.2327
vn 0.6372 0.7539 0.1601
vn 0.6954 0.3262 0.6404
vn 0.4920 0.7532 0.4366
vn 0.3105 0.3240 0.8937
vn 0.2182 0.7469 0.6280
vn -0.0000 0.3178 0.9482
vn -0.0000 0.7232 0.6906
vn -0.3105 0.3240 0.8937
vn -0.2182 0.7469 0.6281
vn -0.6954 0.3262 0.6404
vn -0.4856 0.7532 0.4438
vn -0.9249 0.3044 0.2278
vn -0.6419 0.7502 0.1588
vn -0.9413 0.3182 -0.1125
vn -0.6833 0.7259 -0.0786
vn -0.8695 0.3204 -0.3759
vn -0.6223 0.7351 -0.2690
vn -0.8714 0.3207 -0.3712
vn -0.6691 0.6863 -0.2850
vn -0.2743 0.3290 -0.9036
vn -0.2135 0.6771 -0.7042
vn 0.2743 0.3290 -0.9036
vn 0.2133 0.6771 -0.7043
vn 0.7090 0.3259 -0.6254
vn 0.5502 0.6795 -0.4854
vn -0.7090 0.3259 -0.6254
vn -0.5502 0.6795 -0.4854
vn -0.9360 0.3339 -0.1115
vn -0.7332 0.6744 -0.0873
vn -0.8714 0.3207 0.3712
vn -0.6691 0.6863 0.2850
vn -0.8695 0.3204 0.3759
vn -0.6223 0.7351 0.2690
vn -0.9413 0.3182 0.1125
vn -0.6845 0.7259 0.0671
vn -0.9448 0.2308 -0.2327
vn -0.6372 0.7539 -0.1601
vn -0.6954 0.3262 -0.6403
vn -0.4920 0.7532 -0.4366
vn -0.3105 0.3240 -0.8937
vn -0.2182 0.7469 -0.6281
vn 0.0000 0.3178 -0.9482
vn 0.0000 0.7232 -0.6906
vn 0.3105 0.3240 -0.8937
vn 0.2182 0.7469 -0.6280
vn 0.6954 0.3262 -0.6403
vn 0.4856 0.7532 -0.4438
vn 0.9249 0.3044 -0.2278
vn 0.6419 0.7502 -0.1588
vn 0.9413 0.3183 0.1125
vn 0.6833 0.7259 0.0786
vn 0.8695 0.3204 0.3759
vn 0.6223 0.7351 0.2690
vn 0.8714 0.3207 0.3712
vn 0.6691 0.6863 0.2850
vn 0.9360 0.3339 -0.1115
vn 0.7332 0.6744 -0.0873
# 128 vertex normals

vt 0.8484 0.0005 0.0000
vt 0.8484 0.0753 0.0000
vt 0.0069 0.0748 0.0000
vt 0.0070 -0.0000 0.0000
vt 0.0067 0.9995 0.0000
vt 0.0067 0.9247 0.0000
vt 0.8482 0.9252 0.0000
vt 0.8482 1.0000 0.0000
vt 0.8404 0.5881 0.0000
vt 0.8370 0.9116 0.0000
vt 0.8290 0.5709 0.0000
vt 0.8148 0.5636 0.0000
vt 0.7988 0.5671 0.0000
vt 0.7733 0.5830 0.0000
vt 0.7455 0.5894 0.0000
vt 0.7135 0.5891 0.0000
vt 0.8404 0.4119 0.0000
vt 0.8290 0.4291 0.0000
vt 0.8371 0.0890 0.0000
vt 0.8147 0.4363 0.0000
vt 0.7987 0.4328 0.0000
vt 0.7732 0.4169 0.0000
vt 0.7454 0.4104 0.0000
vt 0.7135 0.4107 0.0000
vt 0.0148 0.5881 0.0000
vt 0.0262 0.5709 0.0000
vt 0.0181 0.9110 0.0000
vt 0.0565 0.5672 0.0000
vt 0.0819 0.5831 0.0000
vt 0.1097 0.5896 0.0000
vt 0.1417 0.5893 0.0000
vt 0.0404 0.5637 0.0000
vt 0.0147 0.4119 0.0000
vt 0.0182 0.0884 0.0000
vt 0.0261 0.4291 0.0000
vt 0.0403 0.4364 0.0000
vt 0.0564 0.4329 0.0000
vt 0.0818 0.4170 0.0000
vt 0.1096 0.4106 0.0000
vt 0.1416 0.4109 0.0000
vt 0.1772 0.5708 0.0000
vt 0.6780 0.5705 0.0000
vt 0.2005 0.5342 0.0000
vt 0.6547 0.5340 0.0000
vt 0.2005 0.4660 0.0000
vt 0.1771 0.4295 0.0000
vt 0.6780 0.4292 0.0000
vt 0.6547 0.4658 0.0000
vt 0.2041 0.5001 0.0000
vt 0.6511 0.4999 0.0000
vt 0.8440 0.0818 0.0000
vt 0.0113 0.0813 0.0000
vt 0.0112 0.9182 0.0000
vt 0.8438 0.9187 0.0000
vt 0.0000 0.4148 0.0000
vt 0.0073 0.4140 0.0000
vt 0.0001 0.5852 0.0000
vt 0.0074 0.5861 0.0000
vt 0.0159 0.4400 0.0000
vt 0.0210 0.4347 0.0000
vt 0.0380 0.4510 0.0000
vt 0.0392 0.4438 0.0000
vt 0.0161 0.5600 0.0000
vt 0.0211 0.5653 0.0000
vt 0.0384 0.5491 0.0000
vt 0.0393 0.5563 0.0000
vt 0.0616 0.5536 0.0000
vt 0.0590 0.5603 0.0000
vt 0.0875 0.5694 0.0000
vt 0.0847 0.5761 0.0000
vt 0.1112 0.5751 0.0000
vt 0.1105 0.5823 0.0000
vt 0.1378 0.5742 0.0000
vt 0.1397 0.5817 0.0000
vt 0.1672 0.5597 0.0000
vt 0.1721 0.5652 0.0000
vt 0.1865 0.5291 0.0000
vt 0.1934 0.5317 0.0000
vt 0.1896 0.5001 0.0000
vt 0.1968 0.5001 0.0000
vt 0.1865 0.4710 0.0000
vt 0.1934 0.4685 0.0000
vt 0.1670 0.4404 0.0000
vt 0.1720 0.4350 0.0000
vt 0.1378 0.4254 0.0000
vt 0.1397 0.4183 0.0000
vt 0.1111 0.4251 0.0000
vt 0.1104 0.4179 0.0000
vt 0.0875 0.4309 0.0000
vt 0.0847 0.4240 0.0000
vt 0.0615 0.4467 0.0000
vt 0.0589 0.4398 0.0000
vt 0.8550 0.4148 0.0000
vt 0.8477 0.4139 0.0000
vt 0.8552 0.5852 0.0000
vt 0.8478 0.5860 0.0000
vt 0.8392 0.5600 0.0000
vt 0.8342 0.5653 0.0000
vt 0.8390 0.4400 0.0000
vt 0.8341 0.4347 0.0000
vt 0.8168 0.4509 0.0000
vt 0.8158 0.4437 0.0000
vt 0.7936 0.4464 0.0000
vt 0.7962 0.4397 0.0000
vt 0.7677 0.4306 0.0000
vt 0.7704 0.4239 0.0000
vt 0.7439 0.4249 0.0000
vt 0.7446 0.4177 0.0000
vt 0.7174 0.4258 0.0000
vt 0.7154 0.4183 0.0000
vt 0.6880 0.4403 0.0000
vt 0.6831 0.4348 0.0000
vt 0.6686 0.4709 0.0000
vt 0.6617 0.4683 0.0000
vt 0.6656 0.4999 0.0000
vt 0.6583 0.4999 0.0000
vt 0.6687 0.5290 0.0000
vt 0.6618 0.5315 0.0000
vt 0.6882 0.5596 0.0000
vt 0.6831 0.5650 0.0000
vt 0.7174 0.5746 0.0000
vt 0.7154 0.5817 0.0000
vt 0.7440 0.5749 0.0000
vt 0.7447 0.5821 0.0000
vt 0.7677 0.5691 0.0000
vt 0.7705 0.5760 0.0000
vt 0.7937 0.5533 0.0000
vt 0.7963 0.5602 0.0000
vt 0.8171 0.5490 0.0000
vt 0.8159 0.5562 0.0000
# 130 texture coords

o PuzzleStraightVerticalDips
g PuzzleStraightVerticalDips
usemtl wire_176026026
s 4
f 1/1/1 2/2/2 3/3/3 4/4/1 
f 5/5/4 6/6/5 7/7/6 8/8/4 
s 1
f 9/9/7 10/10/8 11/11/9 
f 11/11/9 10/10/8 12/12/10 
f 12/12/10 10/10/8 13/13/11 
f 13/13/11 10/10/8 14/14/12 
f 14/14/12 10/10/8 15/15/13 
f 15/15/13 10/10/8 16/16/14 
f 17/17/15 18/18/16 19/19/17 
f 18/18/16 20/20/18 19/19/17 
f 20/20/18 21/21/19 19/19/17 
f 21/21/19 22/22/20 19/19/17 
f 22/22/20 23/23/21 19/19/17 
f 23/23/21 24/24/22 19/19/17 
f 25/25/23 26/26/24 27/27/25 
f 28/28/26 29/29/27 27/27/25 
f 29/29/27 30/30/28 27/27/25 
f 30/30/28 31/31/29 27/27/25 
f 32/32/30 28/28/26 27/27/25 
f 26/26/24 32/32/30 27/27/25 
f 33/33/31 34/34/32 35/35/33 
f 35/35/33 34/34/32 36/36/34 
f 36/36/34 34/34/32 37/37/35 
f 37/37/35 34/34/32 38/38/36 
f 38/38/36 34/34/32 39/39/37 
f 39/39/37 34/34/32 40/40/38 
f 31/31/29 41/41/39 42/42/40 16/16/14 
f 41/41/39 43/43/41 44/44/42 42/42/40 
f 45/45/43 46/46/44 47/47/45 48/48/46 
f 46/46/44 40/40/38 24/24/22 47/47/45 
f 49/49/47 45/45/43 48/48/46 50/50/48 
f 43/43/41 49/49/47 50/50/48 44/44/42 
f 31/31/29 16/16/14 10/10/8 27/27/25 
f 24/24/22 40/40/38 34/34/32 19/19/17 
s 2
f 3/3/3 2/2/2 51/51/49 52/52/50 
f 7/7/6 6/6/5 53/53/51 54/54/52 
f 55/55/53 3/3/3 52/52/50 56/56/54 
f 6/6/5 57/57/55 58/58/56 53/53/51 
f 59/59/57 55/55/53 56/56/54 60/60/58 
f 61/61/59 59/59/57 60/60/58 62/62/60 
f 57/57/55 63/63/61 64/64/62 58/58/56 
f 63/63/61 65/65/63 66/66/64 64/64/62 
f 65/65/63 67/67/65 68/68/66 66/66/64 
f 67/67/65 69/69/67 70/70/68 68/68/66 
f 69/69/67 71/71/69 72/72/70 70/70/68 
f 71/71/69 73/73/71 74/74/72 72/72/70 
f 73/73/71 75/75/73 76/76/74 74/74/72 
f 75/75/73 77/77/75 78/78/76 76/76/74 
f 77/77/75 79/79/77 80/80/78 78/78/76 
f 79/79/77 81/81/79 82/82/80 80/80/78 
f 81/81/79 83/83/81 84/84/82 82/82/80 
f 83/83/81 85/85/83 86/86/84 84/84/82 
f 85/85/83 87/87/85 88/88/86 86/86/84 
f 87/87/85 89/89/87 90/90/88 88/88/86 
f 89/89/87 91/91/89 92/92/90 90/90/88 
f 91/91/89 61/61/59 62/62/60 92/92/90 
f 2/2/2 93/93/91 94/94/92 51/51/49 
f 95/95/93 7/7/6 54/54/52 96/96/94 
f 97/97/95 95/95/93 96/96/94 98/98/96 
f 93/93/91 99/99/97 100/100/98 94/94/92 
f 99/99/97 101/101/99 102/102/100 100/100/98 
f 101/101/99 103/103/101 104/104/102 102/102/100 
f 103/103/101 105/105/103 106/106/104 104/104/102 
f 105/105/103 107/107/105 108/108/106 106/106/104 
f 107/107/105 109/109/107 110/110/108 108/108/106 
f 109/109/107 111/111/109 112/112/110 110/110/108 
f 111/111/109 113/113/111 114/114/112 112/112/110 
f 113/113/111 115/115/113 116/116/114 114/114/112 
f 115/115/113 117/117/115 118/118/116 116/116/114 
f 117/117/115 119/119/117 120/120/118 118/118/116 
f 119/119/117 121/121/119 122/122/120 120/120/118 
f 121/121/119 123/123/121 124/124/122 122/122/120 
f 123/123/121 125/125/123 126/126/124 124/124/122 
f 125/125/123 127/127/125 128/128/126 126/126/124 
f 127/127/125 129/129/127 130/130/128 128/128/126 
f 129/129/127 97/97/95 98/98/96 130/130/128 
f 10/10/8 9/9/7 96/96/94 54/54/52 
f 9/9/7 11/11/9 98/98/96 96/96/94 
f 11/11/9 12/12/10 130/130/128 98/98/96 
f 12/12/10 13/13/11 128/128/126 130/130/128 
f 13/13/11 14/14/12 126/126/124 128/128/126 
f 14/14/12 15/15/13 124/124/122 126/126/124 
f 15/15/13 16/16/14 122/122/120 124/124/122 
f 18/18/16 17/17/15 94/94/92 100/100/98 
f 17/17/15 19/19/17 51/51/49 94/94/92 
f 20/20/18 18/18/16 100/100/98 102/102/100 
f 21/21/19 20/20/18 102/102/100 104/104/102 
f 22/22/20 21/21/19 104/104/102 106/106/104 
f 23/23/21 22/22/20 106/106/104 108/108/106 
f 24/24/22 23/23/21 108/108/106 110/110/108 
f 26/26/24 25/25/23 58/58/56 64/64/62 
f 25/25/23 27/27/25 53/53/51 58/58/56 
f 29/29/27 28/28/26 68/68/66 70/70/68 
f 30/30/28 29/29/27 70/70/68 72/72/70 
f 31/31/29 30/30/28 72/72/70 74/74/72 
f 28/28/26 32/32/30 66/66/64 68/68/66 
f 32/32/30 26/26/24 64/64/62 66/66/64 
f 34/34/32 33/33/31 56/56/54 52/52/50 
f 33/33/31 35/35/33 60/60/58 56/56/54 
f 35/35/33 36/36/34 62/62/60 60/60/58 
f 36/36/34 37/37/35 92/92/90 62/62/60 
f 37/37/35 38/38/36 90/90/88 92/92/90 
f 38/38/36 39/39/37 88/88/86 90/90/88 
f 39/39/37 40/40/38 86/86/84 88/88/86 
f 41/41/39 31/31/29 74/74/72 76/76/74 
f 16/16/14 42/42/40 120/120/118 122/122/120 
f 43/43/41 41/41/39 76/76/74 78/78/76 
f 42/42/40 44/44/42 118/118/116 120/120/118 
f 46/46/44 45/45/43 82/82/80 84/84/82 
f 48/48/46 47/47/45 112/112/110 114/114/112 
f 40/40/38 46/46/44 84/84/82 86/86/84 
f 47/47/45 24/24/22 110/110/108 112/112/110 
f 45/45/43 49/49/47 80/80/78 82/82/80 
f 50/50/48 48/48/46 114/114/112 116/116/114 
f 49/49/47 43/43/41 78/78/76 80/80/78 
f 44/44/42 50/50/48 116/116/114 118/118/116 
f 27/27/25 10/10/8 54/54/52 53/53/51 
f 19/19/17 34/34/32 52/52/50 51/51/49 
# 94 polygons - 24 triangles

