# 3ds Max Wavefront OBJ Exporter v0.99 - (c)2007 guruware
# File Created: 27.11.2023 09:24:36

mtllib Vertical Knobs.mtl

#
# object PuzzleStraightVerticalKnobs
#

v  295.2751 -29.5275 295.2761
v  295.2754 -29.5275 -295.2754
v  295.2754 22.6055 -295.2754
v  295.2751 22.6055 295.2761
v  -295.2749 -29.5275 -295.2751
v  -295.2751 -29.5275 295.2764
v  -295.2751 22.6055 295.2764
v  -295.2749 22.6055 -295.2751
v  -56.9536 29.5275 -288.3535
v  0.0005 29.5275 -295.2756
v  -38.5151 29.5275 -300.6824
v  56.9546 29.5275 -288.3533
v  38.5161 29.5275 -300.6821
v  -33.9617 29.5275 -336.3601
v  0.0005 29.5275 -421.1276
v  -45.4707 29.5275 -353.9983
v  33.9626 29.5275 -336.3599
v  45.4717 29.5275 -353.9980
v  -49.2227 29.5275 -369.4736
v  49.2236 29.5275 -369.4734
v  -49.2227 29.5275 -386.7849
v  49.2236 29.5275 -386.7847
v  -40.9419 29.5275 -406.9965
v  40.9429 29.5275 -406.9962
v  -19.9009 29.5275 -419.7225
v  19.9016 29.5275 -419.7225
v  29.7568 29.5275 -318.1694
v  -29.7559 29.5275 -318.1697
v  -56.9539 29.5275 288.3535
v  -38.5154 29.5275 300.6824
v  0.0002 29.5275 295.2759
v  38.5159 29.5275 300.6826
v  56.9700 29.5275 288.3665
v  -33.9619 29.5275 336.3601
v  -45.4707 29.5275 353.9985
v  0.0007 29.5275 421.1279
v  45.4717 29.5275 353.9988
v  33.9624 29.5275 336.3604
v  -49.2227 29.5275 369.4736
v  49.2239 29.5275 369.4739
v  -49.2224 29.5275 386.7852
v  49.2241 29.5275 386.7854
v  -40.9417 29.5275 406.9968
v  40.9431 29.5275 406.9971
v  -19.9006 29.5275 419.7229
v  19.9019 29.5275 419.7229
v  29.7566 29.5275 318.1702
v  -29.7559 29.5275 318.1699
v  288.3533 29.5275 288.3538
v  288.3662 29.5275 -288.3660
v  -288.3657 29.5275 288.3667
v  -288.3530 29.5275 -288.3530
v  293.5632 27.4420 -293.5627
v  293.5447 27.7970 293.5454
v  59.0554 22.6055 -295.2754
v  58.6523 28.1989 -293.9468
v  0.0005 22.6055 -427.2123
v  -21.7200 22.6055 -424.9581
v  -21.2651 27.7970 -423.6493
v  0.0005 28.2770 -426.1129
v  -293.5625 27.0052 293.5637
v  -293.5444 27.7970 -293.5444
v  -59.0544 22.6055 -295.2756
v  -58.5618 27.9038 -293.6519
v  21.7209 22.6055 -424.9579
v  21.2661 27.7970 -423.6490
v  -43.8843 22.6055 -305.4192
v  -42.5422 27.7970 -304.2349
v  42.5430 27.7970 -304.2346
v  43.8853 22.6055 -305.4187
v  -51.9180 22.6055 -351.2117
v  -40.4292 22.6055 -333.6050
v  -38.8125 27.7970 -334.2937
v  -50.3059 27.7970 -351.9082
v  38.8132 27.7970 -334.2935
v  50.3069 27.7970 -351.9080
v  40.4304 22.6055 -333.6047
v  51.9189 22.6055 -351.2114
v  -56.1450 22.6055 -368.6467
v  -54.4146 27.7970 -368.8535
v  54.4155 27.7970 -368.8533
v  56.1460 22.6055 -368.6465
v  -56.1450 22.6055 -388.4900
v  -54.4146 27.7970 -388.0640
v  54.4155 27.7970 -388.0637
v  56.1460 22.6055 -388.4897
v  -44.6479 22.6055 -410.4091
v  -43.7214 27.7970 -409.5560
v  43.7224 27.7970 -409.5558
v  44.6489 22.6055 -410.4088
v  -37.0620 22.6055 -319.0400
v  -35.2629 27.8232 -318.8257
v  37.0627 22.6055 -319.0398
v  35.7095 28.2454 -318.8784
v  59.0554 22.6055 295.2761
v  58.6206 28.0847 292.7166
v  -21.7197 22.6055 424.9585
v  0.0007 22.6055 427.2126
v  0.0007 28.2770 426.1133
v  -21.2649 27.7970 423.6497
v  -59.0547 22.6055 295.2759
v  -58.6516 28.1989 293.9470
v  21.7212 22.6055 424.9587
v  21.2664 27.7970 423.6499
v  -43.8845 22.6055 305.4192
v  -42.5425 27.7970 304.2349
v  42.5427 27.7970 304.2351
v  43.8850 22.6055 305.4194
v  -40.4294 22.6055 333.6052
v  -51.9180 22.6055 351.2119
v  -50.3059 27.7970 351.9084
v  -38.8127 27.7970 334.2939
v  50.3069 27.7970 351.9087
v  38.8130 27.7970 334.2942
v  51.9189 22.6055 351.2122
v  40.4302 22.6055 333.6055
v  -56.1450 22.6055 368.6467
v  -54.4146 27.7970 368.8535
v  54.4155 27.7970 368.8538
v  56.1460 22.6055 368.6470
v  -56.1448 22.6055 388.4902
v  -54.4143 27.7970 388.0642
v  54.4158 27.7970 388.0645
v  56.1462 22.6055 388.4905
v  -44.6475 22.6055 410.4094
v  -43.7212 27.7970 409.5564
v  43.7227 27.7970 409.5566
v  44.6492 22.6055 410.4097
v  -37.0618 22.6055 319.0400
v  -35.7087 28.2454 318.8787
v  37.0625 22.6055 319.0403
v  35.2637 27.8232 318.8262
# 132 vertices

vn 1.0000 0.0000 0.0000
vn 0.8854 0.2686 -0.3793
vn 0.8871 0.2561 0.3841
vn -1.0000 0.0000 -0.0000
vn -0.8825 0.2889 0.3711
vn -0.8871 0.2561 -0.3841
vn -0.0336 0.9933 -0.1109
vn 0.0000 1.0000 -0.0000
vn -0.0976 0.9915 -0.0861
vn 0.0264 0.9959 -0.0869
vn 0.0976 0.9915 -0.0861
vn -0.1294 0.9901 0.0551
vn 0.0000 0.9918 -0.1280
vn -0.1603 0.9846 0.0693
vn 0.1294 0.9901 0.0551
vn 0.1603 0.9846 0.0693
vn -0.1696 0.9853 0.0203
vn 0.1696 0.9853 0.0203
vn -0.1717 0.9846 -0.0326
vn 0.1717 0.9846 -0.0326
vn -0.1943 0.9673 -0.1633
vn 0.1943 0.9673 -0.1633
vn -0.0668 0.9746 -0.2139
vn 0.0668 0.9746 -0.2139
vn 0.0816 0.9966 -0.0097
vn -0.1155 0.9932 -0.0138
vn -0.0264 0.9959 0.0869
vn -0.0976 0.9915 0.0861
vn 0.0975 0.9915 0.0861
vn 0.0366 0.9925 0.1168
vn -0.1294 0.9901 -0.0551
vn -0.1603 0.9846 -0.0693
vn 0.0000 0.9918 0.1280
vn 0.1603 0.9846 -0.0693
vn 0.1294 0.9901 -0.0551
vn -0.1696 0.9853 -0.0203
vn 0.1696 0.9853 -0.0203
vn -0.1717 0.9846 0.0326
vn 0.1717 0.9846 0.0326
vn -0.1943 0.9673 0.1633
vn 0.1943 0.9673 0.1633
vn -0.0668 0.9746 0.2139
vn 0.0668 0.9746 0.2139
vn 0.1155 0.9932 0.0138
vn -0.0816 0.9966 0.0097
vn 0.1212 0.9852 0.1211
vn 0.1439 0.9791 -0.1439
vn -0.1708 0.9704 0.1708
vn -0.1212 0.9852 -0.1212
vn 0.5154 0.6862 -0.5134
vn 0.5129 0.6872 0.5145
vn 0.2819 0.2409 -0.9287
vn 0.1733 0.7657 -0.6195
vn 0.0000 0.1903 -0.9817
vn -0.3171 0.2579 -0.9127
vn -0.2642 0.6271 -0.7327
vn 0.0000 0.6726 -0.7400
vn -0.5135 0.6892 0.5112
vn -0.5139 0.6875 -0.5130
vn -0.2766 0.3050 -0.9113
vn -0.1844 0.7618 -0.6210
vn 0.3171 0.2579 -0.9127
vn 0.2642 0.6271 -0.7327
vn -0.7090 0.3259 -0.6254
vn -0.4918 0.7526 -0.4378
vn 0.4968 0.7531 -0.4314
vn 0.7089 0.3259 -0.6254
vn -0.8695 0.3204 0.3759
vn -0.8714 0.3206 0.3712
vn -0.6232 0.7361 0.2641
vn -0.6672 0.6868 0.2884
vn 0.6306 0.7362 0.2456
vn 0.6672 0.6868 0.2884
vn 0.8714 0.3207 0.3712
vn 0.8695 0.3204 0.3758
vn -0.9413 0.3182 0.1125
vn -0.7167 0.6921 0.0856
vn 0.7167 0.6921 0.0856
vn 0.9413 0.3182 0.1125
vn -0.9184 0.3247 -0.2262
vn -0.7119 0.6821 -0.1672
vn 0.7119 0.6821 -0.1672
vn 0.9184 0.3247 -0.2262
vn -0.7149 0.2357 -0.6583
vn -0.5921 0.6015 -0.5363
vn 0.5921 0.6015 -0.5363
vn 0.7149 0.2357 -0.6583
vn -0.9380 0.3280 -0.1118
vn -0.6311 0.7720 -0.0752
vn 0.9652 0.2349 -0.1150
vn 0.6244 0.7775 -0.0750
vn 0.2727 0.4249 0.8632
vn 0.1721 0.7959 0.5805
vn -0.3171 0.2579 0.9127
vn -0.0000 0.1903 0.9817
vn -0.0000 0.6727 0.7399
vn -0.2642 0.6271 0.7327
vn -0.2819 0.2409 0.9287
vn -0.1740 0.7658 0.6191
vn 0.3171 0.2579 0.9127
vn 0.2642 0.6271 0.7327
vn -0.7089 0.3259 0.6254
vn -0.4968 0.7531 0.4314
vn 0.5008 0.7492 0.4336
vn 0.7089 0.3260 0.6254
vn -0.8714 0.3206 -0.3712
vn -0.8695 0.3204 -0.3759
vn -0.6672 0.6868 -0.2884
vn -0.6307 0.7362 -0.2457
vn 0.6672 0.6868 -0.2884
vn 0.6232 0.7361 -0.2641
vn 0.8695 0.3204 -0.3758
vn 0.8714 0.3207 -0.3712
vn -0.9413 0.3182 -0.1125
vn -0.7167 0.6921 -0.0856
vn 0.7167 0.6921 -0.0857
vn 0.9413 0.3182 -0.1125
vn -0.9184 0.3247 0.2262
vn -0.7119 0.6821 0.1672
vn 0.7119 0.6820 0.1672
vn 0.9184 0.3247 0.2262
vn -0.7149 0.2357 0.6583
vn -0.5921 0.6015 0.5363
vn 0.5921 0.6015 0.5363
vn 0.7149 0.2357 0.6583
vn -0.9652 0.2348 0.1150
vn -0.6244 0.7775 0.0750
vn 0.9381 0.3280 0.1118
vn 0.6312 0.7720 0.0752
# 129 vertex normals

vt 0.1585 0.0000 0.0000
vt 0.8420 0.0010 0.0000
vt 0.8419 0.0611 0.0000
vt 0.1584 0.0602 0.0000
vt 0.8415 0.8110 0.0000
vt 0.1581 0.8099 0.0000
vt 0.1581 0.7497 0.0000
vt 0.8416 0.7508 0.0000
vt 0.8338 0.4714 0.0000
vt 0.8418 0.4055 0.0000
vt 0.8480 0.4499 0.0000
vt 0.8337 0.3397 0.0000
vt 0.8479 0.3612 0.0000
vt 0.8895 0.4447 0.0000
vt 0.9874 0.4054 0.0000
vt 0.9101 0.4578 0.0000
vt 0.8895 0.3663 0.0000
vt 0.9101 0.3532 0.0000
vt 0.9280 0.4621 0.0000
vt 0.9279 0.3489 0.0000
vt 0.9479 0.4620 0.0000
vt 0.9478 0.3489 0.0000
vt 0.9711 0.4524 0.0000
vt 0.9710 0.3585 0.0000
vt 0.9857 0.4283 0.0000
vt 0.9857 0.3826 0.0000
vt 0.8683 0.3712 0.0000
vt 0.8684 0.4398 0.0000
vt 0.1663 0.4714 0.0000
vt 0.1521 0.4499 0.0000
vt 0.1582 0.4055 0.0000
vt 0.1520 0.3612 0.0000
vt 0.1662 0.3396 0.0000
vt 0.1105 0.4447 0.0000
vt 0.0899 0.4578 0.0000
vt 0.0126 0.4056 0.0000
vt 0.0899 0.3533 0.0000
vt 0.1104 0.3664 0.0000
vt 0.0721 0.4622 0.0000
vt 0.0720 0.3490 0.0000
vt 0.0522 0.4621 0.0000
vt 0.0521 0.3491 0.0000
vt 0.0290 0.4526 0.0000
vt 0.0289 0.3586 0.0000
vt 0.0143 0.4285 0.0000
vt 0.0143 0.3828 0.0000
vt 0.1316 0.3712 0.0000
vt 0.1317 0.4399 0.0000
vt 0.1682 0.0721 0.0000
vt 0.8321 0.0728 0.0000
vt 0.1678 0.7383 0.0000
vt 0.8318 0.7389 0.0000
vt 0.8383 0.0665 0.0000
vt 0.1622 0.0659 0.0000
vt 0.8469 0.3368 0.0000
vt 0.8403 0.3376 0.0000
vt 1.0000 0.4054 0.0000
vt 0.9964 0.4323 0.0000
vt 0.9906 0.4300 0.0000
vt 0.9933 0.4054 0.0000
vt 0.1616 0.7448 0.0000
vt 0.8379 0.7452 0.0000
vt 0.8467 0.4742 0.0000
vt 0.8403 0.4733 0.0000
vt 0.9964 0.3787 0.0000
vt 0.9906 0.3809 0.0000
vt 0.8563 0.4593 0.0000
vt 0.8522 0.4547 0.0000
vt 0.8521 0.3564 0.0000
vt 0.8564 0.3518 0.0000
vt 0.9054 0.4693 0.0000
vt 0.8848 0.4564 0.0000
vt 0.8872 0.4506 0.0000
vt 0.9078 0.4636 0.0000
vt 0.8871 0.3604 0.0000
vt 0.9078 0.3474 0.0000
vt 0.8848 0.3544 0.0000
vt 0.9054 0.3416 0.0000
vt 0.9266 0.4747 0.0000
vt 0.9273 0.4684 0.0000
vt 0.9272 0.3425 0.0000
vt 0.9265 0.3362 0.0000
vt 0.9510 0.4744 0.0000
vt 0.9495 0.4683 0.0000
vt 0.9494 0.3427 0.0000
vt 0.9511 0.3365 0.0000
vt 0.9784 0.4605 0.0000
vt 0.9743 0.4559 0.0000
vt 0.9742 0.3550 0.0000
vt 0.9784 0.3505 0.0000
vt 0.8698 0.4528 0.0000
vt 0.8692 0.4465 0.0000
vt 0.8700 0.3575 0.0000
vt 0.8692 0.3642 0.0000
vt 0.1538 0.3368 0.0000
vt 0.1608 0.3376 0.0000
vt 0.0036 0.4324 0.0000
vt 0.0000 0.4056 0.0000
vt 0.0067 0.4056 0.0000
vt 0.0094 0.4302 0.0000
vt 0.1531 0.4742 0.0000
vt 0.1597 0.4734 0.0000
vt 0.0036 0.3788 0.0000
vt 0.0094 0.3810 0.0000
vt 0.1436 0.4593 0.0000
vt 0.1479 0.4547 0.0000
vt 0.1478 0.3564 0.0000
vt 0.1437 0.3518 0.0000
vt 0.1152 0.4567 0.0000
vt 0.0947 0.4695 0.0000
vt 0.0922 0.4636 0.0000
vt 0.1129 0.4507 0.0000
vt 0.0922 0.3475 0.0000
vt 0.1128 0.3604 0.0000
vt 0.0946 0.3417 0.0000
vt 0.1152 0.3546 0.0000
vt 0.0735 0.4748 0.0000
vt 0.0728 0.4685 0.0000
vt 0.0727 0.3426 0.0000
vt 0.0734 0.3364 0.0000
vt 0.0489 0.4745 0.0000
vt 0.0506 0.4684 0.0000
vt 0.0505 0.3428 0.0000
vt 0.0490 0.3367 0.0000
vt 0.0216 0.4606 0.0000
vt 0.0258 0.4561 0.0000
vt 0.0257 0.3551 0.0000
vt 0.0216 0.3506 0.0000
vt 0.1300 0.4535 0.0000
vt 0.1308 0.4469 0.0000
vt 0.1302 0.3583 0.0000
vt 0.1308 0.3646 0.0000
# 132 texture coords

o PuzzleStraightVerticalKnobs
g PuzzleStraightVerticalKnobs
usemtl wire_176026026
s 2
f 1/1/1 2/2/1 3/3/2 4/4/3 
f 5/5/4 6/6/4 7/7/5 8/8/6 
s 1
f 9/9/7 10/10/8 11/11/9 
f 10/10/8 12/12/10 13/13/11 
f 14/14/12 15/15/13 16/16/14 
f 15/15/13 17/17/15 18/18/16 
f 16/16/14 15/15/13 19/19/17 
f 15/15/13 18/18/16 20/20/18 
f 19/19/17 15/15/13 21/21/19 
f 15/15/13 20/20/18 22/22/20 
f 21/21/19 15/15/13 23/23/21 
f 15/15/13 22/22/20 24/24/22 
f 23/23/21 15/15/13 25/25/23 
f 15/15/13 24/24/22 26/26/24 
f 10/10/8 27/27/25 15/15/13 
f 10/10/8 28/28/26 11/11/9 
f 13/13/11 27/27/25 10/10/8 
f 27/27/25 17/17/15 15/15/13 
f 15/15/13 14/14/12 28/28/26 
f 15/15/13 28/28/26 10/10/8 
f 29/29/27 30/30/28 31/31/8 
f 31/31/8 32/32/29 33/33/30 
f 34/34/31 35/35/32 36/36/33 
f 36/36/33 37/37/34 38/38/35 
f 35/35/32 39/39/36 36/36/33 
f 36/36/33 40/40/37 37/37/34 
f 39/39/36 41/41/38 36/36/33 
f 36/36/33 42/42/39 40/40/37 
f 41/41/38 43/43/40 36/36/33 
f 36/36/33 44/44/41 42/42/39 
f 43/43/40 45/45/42 36/36/33 
f 36/36/33 46/46/43 44/44/41 
f 31/31/8 36/36/33 47/47/44 
f 31/31/8 30/30/28 48/48/45 
f 32/32/29 31/31/8 47/47/44 
f 47/47/44 36/36/33 38/38/35 
f 36/36/33 48/48/45 34/34/31 
f 36/36/33 31/31/8 48/48/45 
f 33/33/30 49/49/46 50/50/47 
f 31/31/8 33/33/30 50/50/47 
f 29/29/27 31/31/8 50/50/47 
f 51/51/48 29/29/27 50/50/47 
f 9/9/7 52/52/49 51/51/48 
f 10/10/8 9/9/7 51/51/48 
f 12/12/10 10/10/8 51/51/48 
f 50/50/47 12/12/10 51/51/48 
s 4
f 4/4/3 3/3/2 53/53/50 54/54/51 
f 3/3/2 55/55/52 56/56/53 53/53/50 
f 57/57/54 58/58/55 59/59/56 60/60/57 
f 8/8/6 7/7/5 61/61/58 62/62/59 
f 63/63/60 8/8/6 62/62/59 64/64/61 
f 65/65/62 57/57/54 60/60/57 66/66/63 
f 67/67/64 63/63/60 64/64/61 68/68/65 
f 9/9/7 11/11/9 68/68/65 64/64/61 
f 13/13/11 12/12/10 56/56/53 69/69/66 
f 55/55/52 70/70/67 69/69/66 56/56/53 
f 71/71/68 72/72/69 73/73/70 74/74/71 
f 14/14/12 16/16/14 74/74/71 73/73/70 
f 18/18/16 17/17/15 75/75/72 76/76/73 
f 77/77/74 78/78/75 76/76/73 75/75/72 
f 79/79/76 71/71/68 74/74/71 80/80/77 
f 16/16/14 19/19/17 80/80/77 74/74/71 
f 20/20/18 18/18/16 76/76/73 81/81/78 
f 78/78/75 82/82/79 81/81/78 76/76/73 
f 83/83/80 79/79/76 80/80/77 84/84/81 
f 19/19/17 21/21/19 84/84/81 80/80/77 
f 22/22/20 20/20/18 81/81/78 85/85/82 
f 82/82/79 86/86/83 85/85/82 81/81/78 
f 87/87/84 83/83/80 84/84/81 88/88/85 
f 21/21/19 23/23/21 88/88/85 84/84/81 
f 24/24/22 22/22/20 85/85/82 89/89/86 
f 86/86/83 90/90/87 89/89/86 85/85/82 
f 58/58/55 87/87/84 88/88/85 59/59/56 
f 25/25/23 15/15/13 60/60/57 59/59/56 
f 23/23/21 25/25/23 59/59/56 88/88/85 
f 26/26/24 24/24/22 89/89/86 66/66/63 
f 15/15/13 26/26/24 66/66/63 60/60/57 
f 90/90/87 65/65/62 66/66/63 89/89/86 
f 72/72/69 91/91/88 92/92/89 73/73/70 
f 93/93/90 77/77/74 75/75/72 94/94/91 
f 91/91/88 67/67/64 68/68/65 92/92/89 
f 11/11/9 28/28/26 92/92/89 68/68/65 
f 27/27/25 13/13/11 69/69/66 94/94/91 
f 70/70/67 93/93/90 94/94/91 69/69/66 
f 17/17/15 27/27/25 94/94/91 75/75/72 
f 28/28/26 14/14/12 73/73/70 92/92/89 
f 95/95/92 4/4/3 54/54/51 96/96/93 
f 97/97/94 98/98/95 99/99/96 100/100/97 
f 7/7/5 101/101/98 102/102/99 61/61/58 
f 98/98/95 103/103/100 104/104/101 99/99/96 
f 101/101/98 105/105/102 106/106/103 102/102/99 
f 30/30/28 29/29/27 102/102/99 106/106/103 
f 33/33/30 32/32/29 107/107/104 96/96/93 
f 108/108/105 95/95/92 96/96/93 107/107/104 
f 109/109/106 110/110/107 111/111/108 112/112/109 
f 35/35/32 34/34/31 112/112/109 111/111/108 
f 38/38/35 37/37/34 113/113/110 114/114/111 
f 115/115/112 116/116/113 114/114/111 113/113/110 
f 110/110/107 117/117/114 118/118/115 111/111/108 
f 39/39/36 35/35/32 111/111/108 118/118/115 
f 37/37/34 40/40/37 119/119/116 113/113/110 
f 120/120/117 115/115/112 113/113/110 119/119/116 
f 117/117/114 121/121/118 122/122/119 118/118/115 
f 41/41/38 39/39/36 118/118/115 122/122/119 
f 40/40/37 42/42/39 123/123/120 119/119/116 
f 124/124/121 120/120/117 119/119/116 123/123/120 
f 121/121/118 125/125/122 126/126/123 122/122/119 
f 43/43/40 41/41/38 122/122/119 126/126/123 
f 42/42/39 44/44/41 127/127/124 123/123/120 
f 128/128/125 124/124/121 123/123/120 127/127/124 
f 125/125/122 97/97/94 100/100/97 126/126/123 
f 45/45/42 43/43/40 126/126/123 100/100/97 
f 36/36/33 45/45/42 100/100/97 99/99/96 
f 46/46/43 36/36/33 99/99/96 104/104/101 
f 44/44/41 46/46/43 104/104/101 127/127/124 
f 103/103/100 128/128/125 127/127/124 104/104/101 
f 129/129/126 109/109/106 112/112/109 130/130/127 
f 116/116/113 131/131/128 132/132/129 114/114/111 
f 105/105/102 129/129/126 130/130/127 106/106/103 
f 48/48/45 30/30/28 106/106/103 130/130/127 
f 32/32/29 47/47/44 132/132/129 107/107/104 
f 131/131/128 108/108/105 107/107/104 132/132/129 
f 47/47/44 38/38/35 114/114/111 132/132/129 
f 34/34/31 48/48/45 130/130/127 112/112/109 
f 49/49/46 33/33/30 96/96/93 54/54/51 
f 50/50/47 49/49/46 54/54/51 53/53/50 
f 29/29/27 51/51/48 61/61/58 102/102/99 
f 52/52/49 9/9/7 64/64/61 62/62/59 
f 51/51/48 52/52/49 62/62/59 61/61/58 
f 12/12/10 50/50/47 53/53/50 56/56/53 
# 86 polygons - 44 triangles

