# 3ds Max Wavefront OBJ Exporter v0.99 - (c)2007 guruware
# File Created: 27.11.2023 09:19:48

mtllib Corner Top Right Knobs.mtl

#
# object PuzzleCornerTopRightKnobs
#

v  273.6841 -29.5275 -273.6841
v  273.6841 23.0315 -273.6841
v  362.2734 23.0315 -65.0337
v  362.2734 -29.5275 -65.0337
v  360.2146 23.0315 230.3367
v  360.5334 27.7875 -64.9756
v  358.4841 27.7970 228.6057
v  267.1880 29.5275 -267.1880
v  355.7773 29.5275 -64.7129
v  271.9705 27.8140 -271.9707
v  64.9451 -29.5275 -362.2737
v  64.9451 23.0315 -362.2737
v  64.9619 27.7863 -360.5322
v  64.9038 29.5275 -355.7776
v  -230.3364 -29.5275 -360.2148
v  -230.3364 23.0315 -360.2148
v  -228.5671 27.7582 -358.4453
v  -223.8403 29.5275 -353.7188
v  360.2146 -29.5275 230.3367
v  353.7185 29.5275 223.8403
v  7.9851 29.5275 223.4146
v  26.4238 29.5275 235.7434
v  64.9392 29.5275 223.4272
v  103.4548 29.5275 235.7432
v  121.9089 29.5275 223.4270
v  30.9773 29.5275 271.4211
v  19.4678 29.5275 289.0596
v  64.9387 29.5275 356.1890
v  110.4104 29.5275 289.0593
v  98.9014 29.5275 271.4209
v  15.7158 29.5275 304.5352
v  114.1624 29.5275 304.5344
v  15.7156 29.5275 321.8462
v  114.1621 29.5275 321.8459
v  23.9966 29.5275 342.0579
v  105.8811 29.5275 342.0576
v  45.0378 29.5275 354.7839
v  84.8398 29.5275 354.7839
v  94.6956 29.5275 253.2307
v  35.1831 29.5275 253.2310
v  123.9944 22.6055 230.3367
v  123.5596 28.0847 227.7771
v  43.2183 22.6055 360.0195
v  64.9387 22.6055 362.2737
v  64.9387 28.2770 361.1743
v  43.6731 27.7970 358.7107
v  -230.3362 22.6055 230.3364
v  5.8843 22.6055 230.3369
v  6.2876 28.1989 229.0081
v  -228.6255 27.0052 229.0369
v  86.6594 22.6055 360.0193
v  86.2046 27.7970 358.7104
v  21.0544 22.6055 240.4802
v  22.3967 27.7970 239.2959
v  107.4817 27.7970 239.2957
v  108.8240 22.6055 240.4800
v  24.5095 22.6055 268.6663
v  13.0208 22.6055 286.2729
v  14.6326 27.7970 286.9695
v  26.1262 27.7970 269.3550
v  115.2456 27.7970 286.9692
v  103.7524 27.7970 269.3547
v  116.8574 22.6055 286.2727
v  105.3691 22.6055 268.6660
v  8.7937 22.6055 303.7078
v  10.5242 27.7970 303.9146
v  119.3540 27.7970 303.9143
v  121.0845 22.6055 303.7075
v  8.7935 22.6055 323.5513
v  10.5239 27.7970 323.1252
v  119.3538 27.7970 323.1250
v  121.0842 22.6055 323.5510
v  20.2905 22.6055 345.4705
v  21.2170 27.7970 344.6174
v  108.6606 27.7970 344.6169
v  109.5872 22.6055 345.4702
v  27.8772 22.6055 254.1011
v  29.2305 28.2454 253.9397
v  102.0015 22.6055 254.1008
v  100.2026 27.8232 253.8867
v  -223.4143 29.5275 223.4141
v  -223.4146 29.5275 -121.8933
v  -235.7432 29.5275 -103.4548
v  -223.4270 29.5275 -64.9392
v  -235.7432 29.5275 -26.4238
v  -223.4270 29.5275 -7.9697
v  -271.4211 29.5275 -98.9014
v  -289.0596 29.5275 -110.4106
v  -356.1885 29.5275 -64.9392
v  -289.0591 29.5275 -19.4680
v  -271.4211 29.5275 -30.9771
v  -304.5347 29.5275 -114.1626
v  -304.5347 29.5275 -15.7161
v  -321.8462 29.5275 -114.1626
v  -321.8462 29.5275 -15.7161
v  -342.0576 29.5275 -105.8816
v  -342.0576 29.5275 -23.9971
v  -354.7837 29.5275 -84.8406
v  -354.7837 29.5275 -45.0381
v  -253.2307 29.5275 -35.1829
v  -253.2307 29.5275 -94.6956
v  -230.3364 22.6055 -5.8843
v  -227.7773 28.0847 -6.3191
v  -360.0193 22.6055 -86.6597
v  -362.2737 22.6055 -64.9392
v  -361.1743 28.2770 -64.9392
v  -358.7104 27.7970 -86.2051
v  -230.3364 22.6055 -123.9944
v  -229.0078 28.1989 -123.5911
v  -360.0193 22.6055 -43.2188
v  -358.7104 27.7970 -43.6736
v  -240.4802 22.6055 -108.8240
v  -239.2959 27.7970 -107.4819
v  -239.2959 27.7970 -22.3970
v  -240.4797 22.6055 -21.0544
v  -268.6663 22.6055 -105.3691
v  -286.2725 22.6055 -116.8577
v  -286.9692 27.7970 -115.2458
v  -269.3547 27.7970 -103.7522
v  -286.9692 27.7970 -14.6328
v  -269.3547 27.7970 -26.1265
v  -286.2725 22.6055 -13.0212
v  -268.6663 22.6055 -24.5095
v  -303.7078 22.6055 -121.0847
v  -303.9143 27.7970 -119.3540
v  -303.9143 27.7970 -10.5247
v  -303.7078 22.6055 -8.7942
v  -323.5513 22.6055 -121.0847
v  -323.1248 27.7970 -119.3540
v  -323.1248 27.7970 -10.5247
v  -323.5513 22.6055 -8.7942
v  -345.4702 22.6055 -109.5876
v  -344.6172 27.7970 -108.6611
v  -344.6172 27.7970 -21.2175
v  -345.4700 22.6055 -20.2910
v  -254.1011 22.6055 -102.0015
v  -253.9397 28.2454 -100.6482
v  -254.1011 22.6055 -27.8772
v  -253.8865 27.8232 -29.6760
# 139 vertices

vn 0.7071 0.0000 -0.7072
vn 0.6896 0.2207 -0.6897
vn 0.9671 0.1689 -0.1901
vn 0.9806 0.0000 -0.1960
vn 0.8822 0.2744 0.3828
vn 0.7201 0.6782 -0.1468
vn 0.5045 0.6963 0.5105
vn 0.1078 0.9883 -0.1078
vn 0.1942 0.9800 -0.0445
vn 0.4798 0.7346 -0.4798
vn 0.1959 0.0000 -0.9806
vn 0.1892 0.1679 -0.9675
vn 0.1473 0.6763 -0.7217
vn 0.0463 0.9795 -0.1960
vn -0.0070 0.0000 -1.0000
vn -0.3801 0.2808 -0.8813
vn -0.5065 0.6997 -0.5039
vn -0.1362 0.9816 -0.1335
vn 1.0000 0.0000 0.0070
vn 0.1298 0.9827 0.1324
vn -0.0264 0.9959 0.0869
vn -0.0976 0.9915 0.0861
vn -0.0000 1.0000 0.0000
vn 0.0975 0.9915 0.0861
vn 0.0365 0.9925 0.1167
vn -0.1294 0.9901 -0.0551
vn -0.1603 0.9846 -0.0693
vn -0.0000 0.9918 0.1280
vn 0.1603 0.9846 -0.0693
vn 0.1294 0.9901 -0.0551
vn -0.1696 0.9853 -0.0203
vn 0.1696 0.9853 -0.0203
vn -0.1717 0.9846 0.0326
vn 0.1717 0.9846 0.0326
vn -0.1943 0.9673 0.1633
vn 0.1943 0.9673 0.1633
vn -0.0668 0.9746 0.2139
vn 0.0668 0.9746 0.2139
vn 0.1155 0.9932 0.0138
vn -0.0816 0.9966 0.0097
vn 0.2725 0.4249 0.8633
vn 0.1721 0.7959 0.5805
vn -0.3171 0.2579 0.9127
vn 0.0000 0.1903 0.9817
vn 0.0000 0.6726 0.7400
vn -0.2642 0.6271 0.7327
vn -0.6493 0.4364 0.6228
vn -0.2819 0.2410 0.9287
vn -0.1734 0.7660 0.6190
vn -0.5088 0.6693 0.5414
vn 0.3171 0.2579 0.9126
vn 0.2642 0.6271 0.7327
vn -0.7089 0.3260 0.6254
vn -0.4967 0.7531 0.4314
vn 0.5008 0.7492 0.4336
vn 0.7089 0.3260 0.6254
vn -0.8714 0.3206 -0.3712
vn -0.8695 0.3204 -0.3759
vn -0.6672 0.6868 -0.2884
vn -0.6307 0.7362 -0.2457
vn 0.6672 0.6868 -0.2884
vn 0.6232 0.7361 -0.2641
vn 0.8695 0.3204 -0.3759
vn 0.8714 0.3206 -0.3712
vn -0.9413 0.3182 -0.1125
vn -0.7167 0.6921 -0.0856
vn 0.7167 0.6921 -0.0856
vn 0.9413 0.3182 -0.1125
vn -0.9184 0.3247 0.2262
vn -0.7119 0.6820 0.1672
vn 0.7119 0.6820 0.1672
vn 0.9184 0.3247 0.2262
vn -0.7149 0.2357 0.6583
vn -0.5921 0.6015 0.5363
vn 0.5921 0.6015 0.5363
vn 0.7149 0.2358 0.6583
vn -0.9652 0.2349 0.1150
vn -0.6244 0.7775 0.0750
vn 0.9381 0.3280 0.1118
vn 0.6312 0.7720 0.0752
vn -0.1724 0.9724 0.1573
vn -0.0868 0.9959 -0.0263
vn -0.0861 0.9915 -0.0976
vn -0.0861 0.9915 0.0975
vn -0.1167 0.9925 0.0366
vn 0.0551 0.9901 -0.1294
vn 0.0693 0.9846 -0.1603
vn -0.1280 0.9918 0.0000
vn 0.0693 0.9846 0.1603
vn 0.0551 0.9901 0.1294
vn 0.0203 0.9853 -0.1696
vn 0.0203 0.9853 0.1696
vn -0.0326 0.9846 -0.1717
vn -0.0326 0.9846 0.1717
vn -0.1633 0.9673 -0.1943
vn -0.1633 0.9673 0.1943
vn -0.2139 0.9746 -0.0668
vn -0.2139 0.9746 0.0668
vn -0.0138 0.9932 0.1155
vn -0.0097 0.9966 -0.0816
vn -0.8632 0.4248 0.2727
vn -0.5798 0.7961 0.1735
vn -0.9127 0.2579 -0.3171
vn -0.9817 0.1903 -0.0000
vn -0.7400 0.6726 0.0000
vn -0.7327 0.6271 -0.2642
vn -0.9287 0.2409 -0.2818
vn -0.6198 0.7655 -0.1728
vn -0.9126 0.2579 0.3171
vn -0.7327 0.6271 0.2642
vn -0.6254 0.3259 -0.7090
vn -0.4314 0.7531 -0.4968
vn -0.4336 0.7492 0.5008
vn -0.6254 0.3259 0.7089
vn 0.3712 0.3206 -0.8714
vn 0.3759 0.3204 -0.8695
vn 0.2884 0.6868 -0.6672
vn 0.2457 0.7362 -0.6306
vn 0.2884 0.6868 0.6672
vn 0.2641 0.7361 0.6232
vn 0.3759 0.3204 0.8695
vn 0.3712 0.3206 0.8714
vn 0.1125 0.3183 -0.9413
vn 0.0856 0.6921 -0.7167
vn 0.0856 0.6921 0.7167
vn 0.1125 0.3182 0.9413
vn -0.2262 0.3247 -0.9183
vn -0.1672 0.6821 -0.7119
vn -0.1672 0.6821 0.7119
vn -0.2262 0.3247 0.9184
vn -0.6583 0.2357 -0.7149
vn -0.5363 0.6015 -0.5921
vn -0.5363 0.6015 0.5921
vn -0.6583 0.2357 0.7149
vn -0.1150 0.2349 -0.9652
vn -0.0750 0.7775 -0.6244
vn -0.1117 0.3280 0.9381
vn -0.0752 0.7720 0.6312
# 138 vertex normals

vt 0.1977 0.8541 0.0000
vt 0.2385 0.8067 0.0000
vt 0.4976 0.8965 0.0000
vt 0.4892 0.9611 0.0000
vt 0.8589 0.8705 0.0000
vt 0.4982 0.8903 0.0000
vt 0.8540 0.8657 0.0000
vt 0.2480 0.7953 0.0000
vt 0.4983 0.8841 0.0000
vt 0.2427 0.8017 0.0000
vt 0.0436 0.5867 0.0000
vt 0.1035 0.5675 0.0000
vt 0.1095 0.5660 0.0000
vt 0.1156 0.5650 0.0000
vt 0.0000 0.2151 0.0000
vt 0.0653 0.2073 0.0000
vt 0.0709 0.2113 0.0000
vt 0.0777 0.2165 0.0000
vt 0.8627 0.9351 0.0000
vt 0.8476 0.8599 0.0000
vt 0.8171 0.4301 0.0000
vt 0.8344 0.4516 0.0000
vt 0.8238 0.5001 0.0000
vt 0.8426 0.5463 0.0000
vt 0.8293 0.5707 0.0000
vt 0.8792 0.4535 0.0000
vt 0.8999 0.4378 0.0000
vt 0.9866 0.4864 0.0000
vt 0.9093 0.5489 0.0000
vt 0.8863 0.5368 0.0000
vt 0.9184 0.4316 0.0000
vt 0.9286 0.5518 0.0000
vt 0.9396 0.4299 0.0000
vt 0.9498 0.5500 0.0000
vt 0.9650 0.4380 0.0000
vt 0.9735 0.5377 0.0000
vt 0.9828 0.4622 0.0000
vt 0.9869 0.5108 0.0000
vt 0.8634 0.5336 0.0000
vt 0.8572 0.4605 0.0000
vt 0.8427 0.5728 0.0000
vt 0.8351 0.5725 0.0000
vt 0.9938 0.4572 0.0000
vt 1.0000 0.4852 0.0000
vt 0.9929 0.4858 0.0000
vt 0.9878 0.4600 0.0000
vt 0.8001 0.1343 0.0000
vt 0.8309 0.4258 0.0000
vt 0.8240 0.4272 0.0000
vt 0.7962 0.1391 0.0000
vt 0.9986 0.5140 0.0000
vt 0.9923 0.5122 0.0000
vt 0.8425 0.4409 0.0000
vt 0.8385 0.4462 0.0000
vt 0.8474 0.5510 0.0000
vt 0.8522 0.5556 0.0000
vt 0.8731 0.4412 0.0000
vt 0.8938 0.4258 0.0000
vt 0.8969 0.4318 0.0000
vt 0.8761 0.4473 0.0000
vt 0.9074 0.5553 0.0000
vt 0.8843 0.5434 0.0000
vt 0.9053 0.5616 0.0000
vt 0.8824 0.5497 0.0000
vt 0.9158 0.4183 0.0000
vt 0.9171 0.4249 0.0000
vt 0.9285 0.5586 0.0000
vt 0.9283 0.5654 0.0000
vt 0.9419 0.4164 0.0000
vt 0.9407 0.4231 0.0000
vt 0.9520 0.5565 0.0000
vt 0.9543 0.5628 0.0000
vt 0.9722 0.4288 0.0000
vt 0.9682 0.4339 0.0000
vt 0.9772 0.5411 0.0000
vt 0.9820 0.5456 0.0000
vt 0.8577 0.4459 0.0000
vt 0.8574 0.4530 0.0000
vt 0.8661 0.5473 0.0000
vt 0.8649 0.5406 0.0000
vt 0.7895 0.1466 0.0000
vt 0.3653 0.1832 0.0000
vt 0.3869 0.1658 0.0000
vt 0.4356 0.1761 0.0000
vt 0.4814 0.1570 0.0000
vt 0.5058 0.1701 0.0000
vt 0.3884 0.1211 0.0000
vt 0.3725 0.1005 0.0000
vt 0.4203 0.0134 0.0000
vt 0.4835 0.0901 0.0000
vt 0.4717 0.1132 0.0000
vt 0.3661 0.0820 0.0000
vt 0.4863 0.0708 0.0000
vt 0.3642 0.0609 0.0000
vt 0.4842 0.0496 0.0000
vt 0.3721 0.0354 0.0000
vt 0.4717 0.0260 0.0000
vt 0.3962 0.0174 0.0000
vt 0.4447 0.0129 0.0000
vt 0.4687 0.1361 0.0000
vt 0.3957 0.1430 0.0000
vt 0.5076 0.1567 0.0000
vt 0.5074 0.1642 0.0000
vt 0.3910 0.0065 0.0000
vt 0.4190 0.0000 0.0000
vt 0.4197 0.0071 0.0000
vt 0.3939 0.0124 0.0000
vt 0.3607 0.1695 0.0000
vt 0.3623 0.1764 0.0000
vt 0.4478 0.0011 0.0000
vt 0.4460 0.0075 0.0000
vt 0.3760 0.1577 0.0000
vt 0.3813 0.1618 0.0000
vt 0.4861 0.1521 0.0000
vt 0.4906 0.1473 0.0000
vt 0.3762 0.1272 0.0000
vt 0.3606 0.1067 0.0000
vt 0.3665 0.1036 0.0000
vt 0.3823 0.1242 0.0000
vt 0.4899 0.0920 0.0000
vt 0.4783 0.1152 0.0000
vt 0.4963 0.0940 0.0000
vt 0.4846 0.1171 0.0000
vt 0.3528 0.0848 0.0000
vt 0.3595 0.0834 0.0000
vt 0.4931 0.0708 0.0000
vt 0.4998 0.0709 0.0000
vt 0.3508 0.0587 0.0000
vt 0.3574 0.0598 0.0000
vt 0.4907 0.0473 0.0000
vt 0.4970 0.0450 0.0000
vt 0.3629 0.0283 0.0000
vt 0.3680 0.0323 0.0000
vt 0.4751 0.0222 0.0000
vt 0.4795 0.0174 0.0000
vt 0.3810 0.1426 0.0000
vt 0.3881 0.1428 0.0000
vt 0.4823 0.1334 0.0000
vt 0.4757 0.1347 0.0000
# 139 texture coords

o PuzzleCornerTopRightKnobs
g PuzzleCornerTopRightKnobs
usemtl wire_085028177
s 4
f 1/1/1 2/2/2 3/3/3 4/4/4 
s 2
f 5/5/5 3/3/3 6/6/6 7/7/7 
f 8/8/8 9/9/9 6/6/6 10/10/10 
s off
f 2/2/2 1/1/1 11/11/11 12/12/12 
f 10/10/10 2/2/2 12/12/12 13/13/13 
f 8/8/8 10/10/10 13/13/13 14/14/14 
f 11/11/11 15/15/15 16/16/16 12/12/12 
f 12/12/12 16/16/16 17/17/17 13/13/13 
f 13/13/13 17/17/17 18/18/18 14/14/14 
s 4
f 3/3/3 5/5/5 19/19/19 4/4/4 
s 2
f 3/3/3 2/2/2 10/10/10 6/6/6 
f 9/9/9 20/20/20 7/7/7 6/6/6 
s 1
f 21/21/21 22/22/22 23/23/23 
f 23/23/23 24/24/24 25/25/25 
f 26/26/26 27/27/27 28/28/28 
f 28/28/28 29/29/29 30/30/30 
f 27/27/27 31/31/31 28/28/28 
f 28/28/28 32/32/32 29/29/29 
f 31/31/31 33/33/33 28/28/28 
f 28/28/28 34/34/34 32/32/32 
f 33/33/33 35/35/35 28/28/28 
f 28/28/28 36/36/36 34/34/34 
f 35/35/35 37/37/37 28/28/28 
f 28/28/28 38/38/38 36/36/36 
f 23/23/23 28/28/28 39/39/39 
f 23/23/23 22/22/22 40/40/40 
f 24/24/24 23/23/23 39/39/39 
f 39/39/39 28/28/28 30/30/30 
f 28/28/28 40/40/40 26/26/26 
f 28/28/28 23/23/23 40/40/40 
s 4
f 41/41/41 5/5/5 7/7/7 42/42/42 
f 43/43/43 44/44/44 45/45/45 46/46/46 
f 47/47/47 48/48/48 49/49/49 50/50/50 
f 44/44/44 51/51/51 52/52/52 45/45/45 
f 48/48/48 53/53/53 54/54/54 49/49/49 
f 22/22/22 21/21/21 49/49/49 54/54/54 
f 25/25/25 24/24/24 55/55/55 42/42/42 
f 56/56/56 41/41/41 42/42/42 55/55/55 
f 57/57/57 58/58/58 59/59/59 60/60/60 
f 27/27/27 26/26/26 60/60/60 59/59/59 
f 30/30/30 29/29/29 61/61/61 62/62/62 
f 63/63/63 64/64/64 62/62/62 61/61/61 
f 58/58/58 65/65/65 66/66/66 59/59/59 
f 31/31/31 27/27/27 59/59/59 66/66/66 
f 29/29/29 32/32/32 67/67/67 61/61/61 
f 68/68/68 63/63/63 61/61/61 67/67/67 
f 65/65/65 69/69/69 70/70/70 66/66/66 
f 33/33/33 31/31/31 66/66/66 70/70/70 
f 32/32/32 34/34/34 71/71/71 67/67/67 
f 72/72/72 68/68/68 67/67/67 71/71/71 
f 69/69/69 73/73/73 74/74/74 70/70/70 
f 35/35/35 33/33/33 70/70/70 74/74/74 
f 34/34/34 36/36/36 75/75/75 71/71/71 
f 76/76/76 72/72/72 71/71/71 75/75/75 
f 73/73/73 43/43/43 46/46/46 74/74/74 
f 37/37/37 35/35/35 74/74/74 46/46/46 
f 28/28/28 37/37/37 46/46/46 45/45/45 
f 38/38/38 28/28/28 45/45/45 52/52/52 
f 36/36/36 38/38/38 52/52/52 75/75/75 
f 51/51/51 76/76/76 75/75/75 52/52/52 
f 77/77/77 57/57/57 60/60/60 78/78/78 
f 64/64/64 79/79/79 80/80/80 62/62/62 
f 53/53/53 77/77/77 78/78/78 54/54/54 
f 40/40/40 22/22/22 54/54/54 78/78/78 
f 24/24/24 39/39/39 80/80/80 55/55/55 
f 79/79/79 56/56/56 55/55/55 80/80/80 
f 39/39/39 30/30/30 62/62/62 80/80/80 
f 26/26/26 40/40/40 78/78/78 60/60/60 
f 20/20/20 25/25/25 42/42/42 7/7/7 
f 21/21/21 81/81/81 50/50/50 49/49/49 
s 1
f 82/82/82 83/83/83 84/84/23 
f 84/84/23 85/85/84 86/86/85 
f 87/87/86 88/88/87 89/89/88 
f 89/89/88 90/90/89 91/91/90 
f 88/88/87 92/92/91 89/89/88 
f 89/89/88 93/93/92 90/90/89 
f 92/92/91 94/94/93 89/89/88 
f 89/89/88 95/95/94 93/93/92 
f 94/94/93 96/96/95 89/89/88 
f 89/89/88 97/97/96 95/95/94 
f 96/96/95 98/98/97 89/89/88 
f 89/89/88 99/99/98 97/97/96 
f 84/84/23 89/89/88 100/100/99 
f 84/84/23 83/83/83 101/101/100 
f 85/85/84 84/84/23 100/100/99 
f 100/100/99 89/89/88 91/91/90 
f 89/89/88 101/101/100 87/87/86 
f 89/89/88 84/84/23 101/101/100 
s 4
f 102/102/101 47/47/47 50/50/50 103/103/102 
f 104/104/103 105/105/104 106/106/105 107/107/106 
f 16/16/16 108/108/107 109/109/108 17/17/17 
f 105/105/104 110/110/109 111/111/110 106/106/105 
f 108/108/107 112/112/111 113/113/112 109/109/108 
f 83/83/83 82/82/82 109/109/108 113/113/112 
f 86/86/85 85/85/84 114/114/113 103/103/102 
f 115/115/114 102/102/101 103/103/102 114/114/113 
f 116/116/115 117/117/116 118/118/117 119/119/118 
f 88/88/87 87/87/86 119/119/118 118/118/117 
f 91/91/90 90/90/89 120/120/119 121/121/120 
f 122/122/121 123/123/122 121/121/120 120/120/119 
f 117/117/116 124/124/123 125/125/124 118/118/117 
f 92/92/91 88/88/87 118/118/117 125/125/124 
f 90/90/89 93/93/92 126/126/125 120/120/119 
f 127/127/126 122/122/121 120/120/119 126/126/125 
f 124/124/123 128/128/127 129/129/128 125/125/124 
f 94/94/93 92/92/91 125/125/124 129/129/128 
f 93/93/92 95/95/94 130/130/129 126/126/125 
f 131/131/130 127/127/126 126/126/125 130/130/129 
f 128/128/127 132/132/131 133/133/132 129/129/128 
f 96/96/95 94/94/93 129/129/128 133/133/132 
f 95/95/94 97/97/96 134/134/133 130/130/129 
f 135/135/134 131/131/130 130/130/129 134/134/133 
f 132/132/131 104/104/103 107/107/106 133/133/132 
f 98/98/97 96/96/95 133/133/132 107/107/106 
f 89/89/88 98/98/97 107/107/106 106/106/105 
f 99/99/98 89/89/88 106/106/105 111/111/110 
f 97/97/96 99/99/98 111/111/110 134/134/133 
f 110/110/109 135/135/134 134/134/133 111/111/110 
f 136/136/135 116/116/115 119/119/118 137/137/136 
f 123/123/122 138/138/137 139/139/138 121/121/120 
f 112/112/111 136/136/135 137/137/136 113/113/112 
f 101/101/100 83/83/83 113/113/112 137/137/136 
f 85/85/84 100/100/99 139/139/138 114/114/113 
f 138/138/137 115/115/114 114/114/113 139/139/138 
f 100/100/99 91/91/90 121/121/120 139/139/138 
f 87/87/86 101/101/100 137/137/136 119/119/118 
f 81/81/81 86/86/85 103/103/102 50/50/50 
f 82/82/82 18/18/18 17/17/17 109/109/108 
s off
f 21/21/21 23/23/23 84/84/23 86/86/85 
f 23/23/23 25/25/25 9/9/9 
f 25/25/25 20/20/20 9/9/9 
f 21/21/21 86/86/85 81/81/81 
f 82/82/82 84/84/23 14/14/14 
f 82/82/82 14/14/14 18/18/18 
f 23/23/23 8/8/8 84/84/23 
f 8/8/8 14/14/14 84/84/23 
f 23/23/23 9/9/9 8/8/8 
# 93 polygons - 44 triangles

