# 3ds Max Wavefront OBJ Exporter v0.99 - (c)2007 guruware
# File Created: 09.11.2023 12:05:03

mtllib ISLANDtemp.mtl

#
# object ISLAND
#

v  22.4254 -9.1190 -35.2346
v  28.2751 -9.1190 -26.3118
v  37.2684 -9.1190 -22.0535
v  41.6451 -9.1190 -33.1303
v  49.5206 -9.1190 -22.8589
v  57.2166 -9.1190 -33.3704
v  67.3340 -9.1190 -25.9253
v  72.0173 -9.1190 -34.7273
v  74.9225 -9.1190 -25.9549
v  82.3225 -9.1190 -29.4858
v  21.8616 -9.1190 -46.4147
v  35.5268 -9.1190 -44.5073
v  56.8485 -9.1190 -44.7122
v  75.0914 -9.1190 -42.6924
v  86.6876 -9.1190 -37.4822
v  24.3848 -9.1190 -55.3858
v  39.1804 -9.1190 -56.3707
v  58.0643 -9.1190 -56.9274
v  73.1644 -9.1190 -53.4881
v  88.2636 -9.1190 -48.1852
v  31.1192 -9.1190 -64.1874
v  45.2235 -9.1190 -68.0500
v  59.6393 -9.1190 -67.7228
v  75.0098 -9.1190 -63.4360
v  84.8243 -9.1190 -55.5673
v  23.3426 -0.0632 -35.4647
v  29.0273 -0.0632 -26.7935
v  37.7669 -0.0632 -22.6554
v  49.6736 -0.0632 -23.4381
v  66.9845 -0.0632 -26.4180
v  74.3589 -0.0632 -26.4467
v  81.5502 -0.0632 -29.8780
v  22.7947 -0.0632 -46.3295
v  85.7922 -0.0632 -37.6489
v  25.2468 -1.2073 -55.0475
v  87.3237 -0.0632 -48.0500
v  31.7912 -6.5925 -63.6008
v  43.2100 -11.7067 -65.9258
v  74.4438 -6.5925 -62.8706
v  62.0987 -11.7067 -65.4972
v  83.9815 -1.2073 -55.2238
v  12.0306 -0.0632 -32.6272
v  19.7503 -0.0632 -20.8520
v  31.6184 -0.0632 -15.2325
v  47.7874 -0.0632 -16.2954
v  74.1556 -0.0632 92.3676
v  132.2128 -0.0632 68.8704
v  123.6972 -0.0632 -19.3136
v  11.2865 -0.0632 -47.3813
v  123.3975 -0.0632 -29.9448
v  -4.9593 -1.2073 -77.2069
v  122.8529 -0.0632 -42.6890
v  23.5036 -6.5925 -78.5333
v  38.6513 -11.7067 -77.4919
v  97.3919 -6.5925 -65.1773
v  64.3016 -11.7067 -76.9098
v  118.4741 -1.2073 -54.9874
v  162.9444 -0.0632 34.8006
v  173.7005 -0.0632 -0.2457
v  173.7140 -0.0632 -27.5311
v  168.6737 -0.0632 -56.1980
v  122.3410 -6.5925 -74.6801
v  95.2667 -11.7067 -76.6282
v  145.2991 -1.2073 -69.2045
v  -46.1717 -0.0632 19.9910
v  -35.5728 -0.0632 65.0141
v  1.5332 -0.0632 86.9659
v  -46.7225 -0.0632 -27.0102
v  -33.5384 -1.2073 -63.2512
# 69 vertices

vn 0.7511 0.6134 -0.2440
vn 0.5204 0.6153 -0.5921
vn 0.1509 0.6262 -0.7649
vn 0.0000 1.0000 -0.0000
vn -0.0865 0.6731 -0.7344
vn -0.0604 0.7063 -0.7053
vn -0.1769 0.6359 -0.7512
vn -0.5484 0.6099 -0.5721
vn 0.7686 0.6339 0.0862
vn -0.7350 0.6324 -0.2447
vn 0.6998 0.6234 0.3488
vn -0.7854 0.6083 0.1146
vn 0.4902 0.5141 0.7038
vn -0.0790 0.9542 -0.2885
vn 0.0709 0.9646 -0.2541
vn -0.3890 0.5514 0.7380
vn -0.6207 0.6177 0.4828
vn 0.6417 0.7376 -0.2102
vn 0.4368 0.7433 -0.5067
vn 0.1206 0.7441 -0.6571
vn -0.0850 0.6974 -0.7116
vn -0.0661 0.6678 -0.7414
vn -0.1457 0.7381 -0.6587
vn -0.4474 0.7556 -0.4786
vn 0.6896 0.7237 0.0255
vn -0.6624 0.7153 -0.2228
vn 0.7095 0.6972 0.1023
vn -0.6415 0.7671 0.0082
vn 0.6892 0.5637 0.4552
vn -0.0426 0.8124 -0.5816
vn -0.6778 0.7156 0.1688
vn 0.0336 0.8022 -0.5961
vn -0.6306 0.7747 0.0463
vn -0.0000 1.0000 0.0000
vn 0.0000 1.0000 0.0000
vn -0.0013 0.9998 -0.0211
vn 0.0424 0.9953 -0.0876
vn -0.0039 0.9992 -0.0386
vn 0.2302 0.9647 -0.1278
vn 0.2077 0.9748 -0.0819
vn -0.0635 0.9503 -0.3047
vn -0.0642 0.9962 -0.0592
vn -0.0557 0.9836 -0.1718
vn -0.0060 0.9998 -0.0203
vn -0.1355 0.9247 -0.3557
vn 0.0086 0.3157 -0.9488
vn -0.0577 0.9924 -0.1089
vn -0.0040 0.9999 -0.0115
vn -0.0187 0.9991 -0.0384
# 49 vertex normals

vt 0.0000 0.2500 0.0000
vt 0.0000 0.0000 0.0000
vt 0.2500 0.0000 0.0000
vt 0.2500 0.2500 0.0000
vt 0.5000 0.0000 0.0000
vt 0.5000 0.2500 0.0000
vt 0.7500 0.0000 0.0000
vt 0.7500 0.2500 0.0000
vt 1.0000 0.0000 0.0000
vt 1.0000 0.2500 0.0000
vt 0.0000 0.5000 0.0000
vt 0.2500 0.5000 0.0000
vt 0.5000 0.5000 0.0000
vt 0.7500 0.5000 0.0000
vt 1.0000 0.5000 0.0000
vt 0.0000 0.7500 0.0000
vt 0.2500 0.7500 0.0000
vt 0.5000 0.7500 0.0000
vt 0.7500 0.7500 0.0000
vt 1.0000 0.7500 0.0000
vt 0.0000 1.0000 0.0000
vt 0.2500 1.0000 0.0000
vt 0.5000 1.0000 0.0000
vt 0.7500 1.0000 0.0000
vt 1.0000 1.0000 0.0000
# 25 texture coords

o ISLAND
g ISLAND
usemtl wire_085028177
s 1
f 1/1/1 2/2/2 3/3/3 4/4/4 
f 4/4/4 3/3/3 5/5/5 6/6/4 
f 6/6/4 5/5/5 7/7/6 8/8/4 
f 8/8/4 7/7/6 9/9/7 10/10/8 
f 11/11/9 1/1/1 4/4/4 12/12/4 
f 12/12/4 4/4/4 6/6/4 13/13/4 
f 13/13/4 6/6/4 8/8/4 14/14/4 
f 14/14/4 8/8/4 10/10/8 15/15/10 
f 16/16/11 11/11/9 12/12/4 17/17/4 
f 17/17/4 12/12/4 13/13/4 18/18/4 
f 18/18/4 13/13/4 14/14/4 19/19/4 
f 19/19/4 14/14/4 15/15/10 20/20/12 
f 21/21/13 16/16/11 17/17/4 22/22/14 
f 22/22/14 17/17/4 18/18/4 23/23/15 
f 23/23/15 18/18/4 19/19/4 24/24/16 
f 24/24/16 19/19/4 20/20/12 25/25/17 
s 2
f 2/2/2 1/1/1 26/1/18 27/2/19 
f 3/3/3 2/2/2 27/2/19 28/3/20 
f 5/5/5 3/3/3 28/3/20 29/5/21 
f 7/7/6 5/5/5 29/5/21 30/7/22 
f 10/10/8 9/9/7 31/9/23 32/10/24 
f 9/9/7 7/7/6 30/7/22 31/9/23 
f 1/1/1 11/11/9 33/11/25 26/1/18 
f 15/15/10 10/10/8 32/10/24 34/15/26 
f 11/11/9 16/16/11 35/16/27 33/11/25 
f 20/20/12 15/15/10 34/15/26 36/20/28 
f 16/16/11 21/21/13 37/21/29 35/16/27 
s 4
f 21/21/13 22/22/14 38/22/30 37/21/29 
f 23/23/15 24/24/16 39/24/31 40/23/32 
s 2
f 24/24/16 25/25/17 41/25/33 39/24/31 
f 25/25/17 20/20/12 36/20/28 41/25/33 
s 1
f 27/2/19 26/1/18 42/1/34 43/2/34 
f 28/3/20 27/2/19 43/2/34 44/3/34 
f 29/5/21 28/3/20 44/3/34 45/5/34 
f 30/7/22 29/5/21 45/5/34 46/7/34 
f 32/10/24 31/9/23 47/9/35 48/10/4 
f 31/9/23 30/7/22 46/7/34 47/9/35 
f 26/1/18 33/11/25 49/11/36 42/1/34 
f 34/15/26 32/10/24 48/10/4 50/15/4 
f 33/11/25 35/16/27 51/16/37 49/11/36 
f 36/20/28 34/15/26 50/15/4 52/20/38 
f 35/16/27 37/21/29 53/21/39 51/16/37 
f 37/21/29 38/22/30 54/22/40 53/21/39 
f 40/23/32 39/24/31 55/24/41 56/23/42 
f 39/24/31 41/25/33 57/25/43 55/24/41 
f 41/25/33 36/20/28 52/20/38 57/25/43 
f 54/22/40 38/22/30 40/22/32 56/22/42 
f 48/10/4 47/9/35 58/9/4 59/10/4 
f 50/15/4 48/10/4 59/10/4 60/15/4 
f 52/20/38 50/15/4 60/15/4 61/20/44 
f 56/23/42 55/24/41 62/24/45 63/23/46 
f 55/24/41 57/25/43 64/25/47 62/24/45 
f 57/25/43 52/20/38 61/20/44 64/25/47 
f 43/2/34 42/1/34 65/1/4 66/2/4 
f 44/3/34 43/2/34 66/2/4 67/3/4 
f 45/5/34 44/3/34 67/3/4 46/5/34 
f 42/1/34 49/11/36 68/11/48 65/1/4 
f 49/11/36 51/16/37 69/16/49 68/11/48 
# 58 polygons

