# 3ds Max Wavefront OBJ Exporter v0.99 - (c)2007 guruware
# File Created: 09.11.2023 12:17:25

mtllib MushRedM.mtl

#
# object MushroomRedM
#

v  779.4960 -0.0091 1119.7257
v  769.1694 -0.0091 1104.2710
v  770.7359 5.7757 1101.9266
v  782.2613 5.7757 1119.1757
v  750.9394 -0.0091 1100.6448
v  750.3893 5.7757 1097.8794
v  735.4847 -0.0091 1110.9713
v  733.1404 5.7757 1109.4048
v  731.8585 -0.0091 1129.2013
v  729.0932 5.7757 1129.7513
v  742.1850 -0.0091 1144.6560
v  740.6186 5.7757 1147.0004
v  760.4151 -0.0091 1148.2822
v  760.9651 5.7757 1151.0476
v  775.8698 -0.0091 1137.9557
v  778.2141 5.7757 1139.5221
v  771.7380 15.6150 1100.4268
v  784.0305 15.6150 1118.8237
v  750.0374 15.6150 1096.1102
v  731.6405 15.6150 1108.4027
v  727.3240 15.6150 1130.1033
v  739.6164 15.6150 1148.5002
v  761.3171 15.6150 1152.8168
v  779.7140 15.6150 1140.5243
v  771.8552 25.1133 1100.2513
v  784.2374 25.1133 1118.7826
v  749.9963 25.1133 1095.9034
v  731.4651 25.1133 1108.2855
v  727.1171 25.1133 1130.1444
v  739.4992 25.1133 1148.6755
v  761.3582 25.1133 1153.0236
v  779.8893 25.1133 1140.6415
v  768.6130 281.1363 1105.1036
v  778.5137 281.1363 1119.9210
v  751.1348 281.1363 1101.6271
v  736.3174 281.1363 1111.5277
v  732.8408 281.1363 1129.0060
v  742.7414 281.1363 1143.8234
v  760.2197 281.1363 1147.2999
v  775.0371 281.1363 1137.3993
v  782.7360 359.6744 1124.4635
v  780.6762 359.6744 1114.1086
v  883.3126 270.5411 1071.5952
v  893.8288 270.5411 1124.4635
v  774.8106 359.6744 1105.3301
v  853.3651 270.5411 1026.7756
v  766.0322 359.6744 1099.4645
v  808.5455 270.5411 996.8281
v  755.6772 359.6744 1097.4048
v  755.6772 270.5411 986.3120
v  745.3223 359.6744 1099.4645
v  702.8090 270.5411 996.8281
v  736.5438 359.6744 1105.3301
v  657.9894 270.5411 1026.7756
v  730.6783 359.6744 1114.1086
v  628.0419 270.5411 1071.5952
v  728.6185 359.6744 1124.4635
v  617.5257 270.5411 1124.4635
v  730.6783 359.6744 1134.8184
v  628.0419 270.5411 1177.3318
v  736.5438 359.6744 1143.5969
v  657.9893 270.5411 1222.1514
v  745.3223 359.6744 1149.4625
v  702.8089 270.5411 1252.0989
v  755.6772 359.6744 1151.5222
v  755.6772 270.5411 1262.6150
v  766.0322 359.6744 1149.4625
v  808.5456 270.5411 1252.0989
v  774.8107 359.6744 1143.5969
v  853.3652 270.5411 1222.1514
v  780.6762 359.6744 1134.8184
v  883.3126 270.5411 1177.3318
v  906.1957 279.1113 1062.1167
v  918.5972 279.1113 1124.4635
v  870.8791 279.1113 1009.2617
v  818.0240 279.1113 973.9451
v  755.6772 279.1113 961.5435
v  693.3304 279.1113 973.9451
v  640.4755 279.1113 1009.2617
v  605.1588 279.1113 1062.1167
v  592.7573 279.1113 1124.4635
v  605.1588 279.1113 1186.8102
v  640.4753 279.1113 1239.6653
v  693.3304 279.1113 1274.9819
v  755.6772 279.1113 1287.3835
v  818.0240 279.1113 1274.9819
v  870.8792 279.1113 1239.6653
v  906.1957 279.1113 1186.8102
v  919.0641 288.6356 1124.4635
v  906.6271 288.6356 1061.9380
v  903.5302 307.2731 1063.2208
v  915.7122 307.2731 1124.4635
v  871.2092 288.6356 1008.9315
v  868.8390 307.2731 1011.3018
v  818.2027 288.6356 973.5137
v  816.9200 307.2731 976.6105
v  755.6772 288.6356 961.0766
v  755.6772 307.2731 964.4286
v  693.1518 288.6356 973.5137
v  694.4346 307.2731 976.6105
v  640.1453 288.6356 1008.9315
v  642.5155 307.2731 1011.3018
v  604.7274 288.6356 1061.9380
v  607.8242 307.2731 1063.2208
v  592.2903 288.6356 1124.4635
v  595.6423 307.2731 1124.4635
v  604.7274 288.6356 1186.9889
v  607.8242 307.2731 1185.7062
v  640.1452 288.6356 1239.9955
v  642.5154 307.2731 1237.6252
v  693.1517 288.6356 1275.4133
v  694.4345 307.2731 1272.3165
v  755.6772 288.6356 1287.8503
v  755.6772 307.2731 1284.4984
v  818.2027 288.6356 1275.4133
v  816.9200 307.2731 1272.3164
v  871.2092 288.6356 1239.9955
v  868.8391 307.2731 1237.6252
v  906.6271 288.6356 1186.9889
v  903.5303 307.2731 1185.7062
v  893.0616 342.9023 1067.5570
v  904.3810 342.9023 1124.4635
v  860.8267 342.9023 1019.3141
v  812.5837 342.9023 987.0792
v  755.6772 342.9023 975.7598
v  698.7708 342.9023 987.0792
v  650.5278 342.9023 1019.3141
v  618.2929 342.9023 1067.5570
v  606.9735 342.9023 1124.4635
v  618.2929 342.9023 1181.3699
v  650.5278 342.9023 1229.6129
v  698.7708 342.9023 1261.8479
v  755.6772 342.9023 1273.1672
v  812.5837 342.9023 1261.8478
v  860.8267 342.9023 1229.6129
v  893.0616 342.9023 1181.3699
v  840.9726 378.4775 1089.1329
v  848.0003 378.4775 1124.4635
v  820.9595 378.4775 1059.1813
v  791.0078 378.4775 1039.1681
v  755.6772 378.4775 1032.1404
v  720.3467 378.4775 1039.1681
v  690.3950 378.4775 1059.1813
v  670.3818 378.4775 1089.1329
v  663.3542 378.4775 1124.4635
v  670.3818 378.4775 1159.7939
v  690.3950 378.4775 1189.7457
v  720.3467 378.4775 1209.7589
v  755.6772 378.4775 1216.7866
v  791.0078 378.4775 1209.7589
v  820.9595 378.4775 1189.7457
v  840.9727 378.4775 1159.7939
v  755.6772 394.6904 1124.4635
v  789.7053 234.5967 1110.3687
v  792.5090 245.2194 1124.4635
v  781.7212 230.3749 1098.4196
v  769.7722 238.5736 1090.4354
v  755.6772 244.1832 1087.6318
v  741.5823 232.6306 1090.4354
v  729.6333 240.4942 1098.4196
v  721.6492 234.3520 1110.3687
v  718.8455 232.8742 1124.4635
v  721.6492 247.4097 1138.5583
v  729.6333 236.0636 1150.5074
v  741.5823 234.1707 1158.4916
v  755.6772 249.8097 1161.2952
v  769.7722 235.2554 1158.4916
v  781.7212 232.1160 1150.5074
v  789.7053 238.7649 1138.5583
# 169 vertices

vn 0.8816 -0.4381 -0.1754
vn 0.4994 -0.4381 -0.7474
vn 0.5295 -0.3027 -0.7925
vn 0.9348 -0.3027 -0.1859
vn -0.1754 -0.4381 -0.8816
vn -0.1859 -0.3027 -0.9348
vn -0.7474 -0.4381 -0.4994
vn -0.7925 -0.3027 -0.5295
vn -0.8816 -0.4381 0.1754
vn -0.9348 -0.3027 0.1859
vn -0.4994 -0.4381 0.7474
vn -0.5295 -0.3027 0.7925
vn 0.1754 -0.4381 0.8816
vn 0.1859 -0.3027 0.9348
vn 0.7474 -0.4381 0.4994
vn 0.7925 -0.3027 0.5295
vn 0.5528 -0.0997 -0.8273
vn 0.9759 -0.0997 -0.1941
vn -0.1941 -0.0997 -0.9759
vn -0.8273 -0.0997 -0.5528
vn -0.9759 -0.0997 0.1941
vn -0.5528 -0.0997 0.8273
vn 0.1941 -0.0997 0.9759
vn 0.8273 -0.0997 0.5528
vn 0.5556 0.0003 -0.8315
vn 0.9808 0.0003 -0.1951
vn -0.1951 0.0003 -0.9808
vn -0.8315 0.0003 -0.5556
vn -0.9808 0.0003 0.1951
vn -0.5556 0.0003 0.8315
vn 0.1951 0.0003 0.9808
vn 0.8315 0.0003 0.5556
vn -0.0925 -0.9952 0.0314
vn -0.0385 -0.9946 0.0959
vn 0.1013 -0.9939 0.0428
vn 0.0833 -0.9965 -0.0014
vn 0.0740 -0.9915 0.1066
vn 0.0313 -0.9969 -0.0719
vn -0.1316 -0.9912 -0.0153
vn -0.0350 -0.9960 -0.0826
vn 0.3717 -0.9283 -0.0000
vn 0.3404 -0.9297 -0.1410
vn -0.1025 -0.9938 0.0425
vn -0.1110 -0.9938 -0.0000
vn 0.2597 -0.9301 -0.2597
vn -0.0785 -0.9938 0.0785
vn 0.1414 -0.9292 -0.3414
vn -0.0425 -0.9938 0.1025
vn 0.0000 -0.9285 -0.3714
vn -0.0000 -0.9938 0.1110
vn -0.1408 -0.9299 -0.3398
vn 0.0425 -0.9938 0.1025
vn -0.2618 -0.9290 -0.2618
vn 0.0785 -0.9938 0.0785
vn -0.3403 -0.9297 -0.1410
vn 0.1025 -0.9938 0.0425
vn -0.3679 -0.9299 -0.0000
vn 0.1110 -0.9938 -0.0000
vn -0.3441 -0.9280 0.1425
vn 0.1025 -0.9938 -0.0425
vn -0.2608 -0.9295 0.2608
vn 0.0785 -0.9938 -0.0785
vn -0.1409 -0.9297 0.3402
vn 0.0425 -0.9938 -0.1025
vn 0.0000 -0.9277 0.3733
vn -0.0000 -0.9938 -0.1110
vn 0.1411 -0.9296 0.3405
vn -0.0425 -0.9938 -0.1025
vn 0.2600 -0.9299 0.2600
vn -0.0785 -0.9938 -0.0785
vn 0.3415 -0.9292 0.1415
vn -0.1025 -0.9938 -0.0425
vn 0.7600 -0.5685 -0.3148
vn 0.8227 -0.5685 0.0000
vn 0.5817 -0.5685 -0.5817
vn 0.3148 -0.5685 -0.7600
vn -0.0000 -0.5685 -0.8227
vn -0.3148 -0.5685 -0.7600
vn -0.5817 -0.5685 -0.5817
vn -0.7600 -0.5685 -0.3148
vn -0.8227 -0.5685 0.0000
vn -0.7600 -0.5685 0.3148
vn -0.5817 -0.5685 0.5817
vn -0.3148 -0.5685 0.7600
vn 0.0000 -0.5685 0.8227
vn 0.3148 -0.5685 0.7600
vn 0.5817 -0.5685 0.5817
vn 0.7600 -0.5685 0.3148
vn 0.9980 0.0636 -0.0000
vn 0.9220 0.0636 -0.3819
vn 0.8972 0.2387 -0.3716
vn 0.9711 0.2387 -0.0000
vn 0.7057 0.0636 -0.7057
vn 0.6867 0.2387 -0.6867
vn 0.3819 0.0636 -0.9220
vn 0.3716 0.2387 -0.8972
vn 0.0000 0.0636 -0.9980
vn -0.0000 0.2387 -0.9711
vn -0.3819 0.0636 -0.9220
vn -0.3716 0.2387 -0.8972
vn -0.7057 0.0636 -0.7057
vn -0.6867 0.2387 -0.6867
vn -0.9220 0.0636 -0.3819
vn -0.8972 0.2387 -0.3716
vn -0.9980 0.0636 -0.0000
vn -0.9711 0.2387 -0.0000
vn -0.9220 0.0636 0.3819
vn -0.8972 0.2387 0.3716
vn -0.7057 0.0636 0.7057
vn -0.6867 0.2387 0.6867
vn -0.3819 0.0636 0.9220
vn -0.3716 0.2387 0.8972
vn 0.0000 0.0636 0.9980
vn 0.0000 0.2387 0.9711
vn 0.3819 0.0636 0.9220
vn 0.3716 0.2387 0.8972
vn 0.7057 0.0636 0.7057
vn 0.6867 0.2387 0.6867
vn 0.9220 0.0636 0.3819
vn 0.8972 0.2387 0.3716
vn 0.7449 0.5916 -0.3085
vn 0.8062 0.5916 0.0000
vn 0.5701 0.5916 -0.5701
vn 0.3085 0.5916 -0.7449
vn -0.0000 0.5916 -0.8062
vn -0.3085 0.5916 -0.7449
vn -0.5701 0.5916 -0.5701
vn -0.7449 0.5916 -0.3085
vn -0.8062 0.5916 -0.0000
vn -0.7449 0.5916 0.3085
vn -0.5701 0.5916 0.5701
vn -0.3085 0.5916 0.7449
vn 0.0000 0.5916 0.8062
vn 0.3085 0.5916 0.7449
vn 0.5701 0.5916 0.5701
vn 0.7449 0.5916 0.3085
vn 0.3518 0.9247 -0.1457
vn 0.3807 0.9247 -0.0000
vn 0.2692 0.9247 -0.2692
vn 0.1457 0.9247 -0.3518
vn -0.0000 0.9247 -0.3807
vn -0.1457 0.9247 -0.3518
vn -0.2692 0.9247 -0.2692
vn -0.3518 0.9247 -0.1457
vn -0.3807 0.9247 -0.0000
vn -0.3518 0.9247 0.1457
vn -0.2692 0.9247 0.2692
vn -0.1457 0.9247 0.3518
vn 0.0000 0.9247 0.3807
vn 0.1457 0.9247 0.3518
vn 0.2692 0.9247 0.2692
vn 0.3518 0.9247 0.1457
vn -0.0000 1.0000 -0.0000
vn 0.4259 -0.8714 0.2433
vn 0.4989 -0.8666 -0.0094
vn 0.0864 -0.9692 -0.2305
vn -0.1917 -0.8722 -0.4501
vn 0.0443 -0.8694 -0.4922
vn -0.0194 -0.9767 -0.2136
vn -0.4359 -0.8778 -0.1988
vn -0.1696 -0.9296 -0.3271
vn -0.2386 -0.9356 0.2601
vn -0.6050 -0.7843 0.1374
vn -0.3968 -0.9176 -0.0230
vn 0.1482 -0.9400 0.3073
vn 0.2131 -0.7038 0.6777
vn -0.2541 -0.8731 0.4160
vn 0.2419 -0.9656 0.0957
vn 0.4272 -0.8860 -0.1803
# 169 vertex normals

vt 0.7812 0.0000 1.0000
vt 0.9062 0.0000 1.0000
vt 0.9062 0.2500 1.0000
vt 0.7812 0.2500 1.0000
vt -0.0625 0.0000 1.0000
vt 0.0313 0.0000 1.0000
vt 0.0313 0.2500 1.0000
vt -0.0625 0.2500 1.0000
vt 0.1563 0.0000 1.0000
vt 0.1563 0.2500 1.0000
vt 0.2812 0.0000 1.0000
vt 0.2812 0.2500 1.0000
vt 0.4062 0.0000 1.0000
vt 0.4062 0.2500 1.0000
vt 0.5312 0.0000 1.0000
vt 0.5312 0.2500 1.0000
vt 0.6563 0.0000 1.0000
vt 0.6563 0.2500 1.0000
vt 0.9062 0.5000 1.0000
vt 0.7812 0.5000 1.0000
vt 0.0313 0.5000 1.0000
vt -0.0625 0.5000 1.0000
vt 0.1563 0.5000 1.0000
vt 0.2812 0.5000 1.0000
vt 0.4062 0.5000 1.0000
vt 0.5312 0.5000 1.0000
vt 0.6563 0.5000 1.0000
vt 0.9062 0.7500 1.0000
vt 0.7812 0.7500 1.0000
vt 0.0313 0.7500 1.0000
vt -0.0625 0.7500 1.0000
vt 0.1563 0.7500 1.0000
vt 0.2812 0.7500 1.0000
vt 0.4062 0.7500 1.0000
vt 0.5312 0.7500 1.0000
vt 0.6563 0.7500 1.0000
vt 0.9062 0.9527 1.0000
vt 0.7812 0.9527 1.0000
vt 0.0313 0.9527 1.0000
vt -0.0625 0.9527 1.0000
vt 0.1563 0.9527 1.0000
vt 0.2812 0.9527 1.0000
vt 0.4062 0.9527 1.0000
vt 0.5312 0.9527 1.0000
vt 0.6563 0.9527 1.0000
vt 0.7500 1.0000 1.0000
vt 0.8125 0.9804 1.0000
vt 0.8125 1.0000 1.0000
vt 0.8750 0.9804 1.0000
vt 0.8750 1.0000 1.0000
vt 0.9375 0.9804 1.0000
vt 0.9375 1.0000 1.0000
vt -0.0625 0.9804 1.0000
vt 0.0000 0.9804 1.0000
vt 0.0000 1.0000 1.0000
vt -0.0625 1.0000 1.0000
vt 0.0625 0.9804 1.0000
vt 0.0625 1.0000 1.0000
vt 0.1250 0.9804 1.0000
vt 0.1250 1.0000 1.0000
vt 0.1875 0.9804 1.0000
vt 0.1875 1.0000 1.0000
vt 0.2500 0.9804 1.0000
vt 0.2500 1.0000 1.0000
vt 0.3125 0.9804 1.0000
vt 0.3125 1.0000 1.0000
vt 0.3750 0.9804 1.0000
vt 0.3750 1.0000 1.0000
vt 0.4375 0.9804 1.0000
vt 0.4375 1.0000 1.0000
vt 0.5000 0.9804 1.0000
vt 0.5000 1.0000 1.0000
vt 0.5625 0.9804 1.0000
vt 0.5625 1.0000 1.0000
vt 0.6250 0.9804 1.0000
vt 0.6250 1.0000 1.0000
vt 0.6875 0.9804 1.0000
vt 0.6875 1.0000 1.0000
vt -0.0312 1.0000 1.0000
vt 0.0938 1.0000 1.0000
vt 0.2188 1.0000 1.0000
vt 0.8125 0.9527 1.0000
vt 0.7500 0.9527 1.0000
vt 0.8750 0.9527 1.0000
vt 0.9375 0.9527 1.0000
vt 0.0000 0.9527 1.0000
vt 0.0625 0.9527 1.0000
vt 0.1250 0.9527 1.0000
vt 0.1875 0.9527 1.0000
vt 0.2500 0.9527 1.0000
vt 0.3125 0.9527 1.0000
vt 0.3750 0.9527 1.0000
vt 0.4375 0.9527 1.0000
vt 0.5000 0.9527 1.0000
vt 0.5625 0.9527 1.0000
vt 0.6250 0.9527 1.0000
vt 0.6875 0.9527 1.0000
# 97 texture coords

o MushroomRedM
g MushroomRedM
usemtl wire_006135058
s 1
f 1/1/1 2/2/2 3/3/3 4/4/4 
f 2/5/2 5/6/5 6/7/6 3/8/3 
f 5/6/5 7/9/7 8/10/8 6/7/6 
f 7/9/7 9/11/9 10/12/10 8/10/8 
f 9/11/9 11/13/11 12/14/12 10/12/10 
f 11/13/11 13/15/13 14/16/14 12/14/12 
f 13/15/13 15/17/15 16/18/16 14/16/14 
f 15/17/15 1/1/1 4/4/4 16/18/16 
f 4/4/4 3/3/3 17/19/17 18/20/18 
f 3/8/3 6/7/6 19/21/19 17/22/17 
f 6/7/6 8/10/8 20/23/20 19/21/19 
f 8/10/8 10/12/10 21/24/21 20/23/20 
f 10/12/10 12/14/12 22/25/22 21/24/21 
f 12/14/12 14/16/14 23/26/23 22/25/22 
f 14/16/14 16/18/16 24/27/24 23/26/23 
f 16/18/16 4/4/4 18/20/18 24/27/24 
f 18/20/18 17/19/17 25/28/25 26/29/26 
f 17/22/17 19/21/19 27/30/27 25/31/25 
f 19/21/19 20/23/20 28/32/28 27/30/27 
f 20/23/20 21/24/21 29/33/29 28/32/28 
f 21/24/21 22/25/22 30/34/30 29/33/29 
f 22/25/22 23/26/23 31/35/31 30/34/30 
f 23/26/23 24/27/24 32/36/32 31/35/31 
f 24/27/24 18/20/18 26/29/26 32/36/32 
f 26/29/26 25/28/25 33/37/33 34/38/34 
f 25/31/25 27/30/27 35/39/35 33/40/33 
f 27/30/27 28/32/28 36/41/36 35/39/35 
f 28/32/28 29/33/29 37/42/37 36/41/36 
f 29/33/29 30/34/30 38/43/38 37/42/37 
f 30/34/30 31/35/31 39/44/39 38/43/38 
f 31/35/31 32/36/32 40/45/40 39/44/39 
f 32/36/32 26/29/26 34/38/34 40/45/40 
s 256
f 41/46/41 42/47/42 43/48/43 44/46/44 
f 42/47/42 45/49/45 46/50/46 43/48/43 
f 45/49/45 47/51/47 48/52/48 46/50/46 
f 47/53/47 49/54/49 50/55/50 48/56/48 
f 49/54/49 51/57/51 52/58/52 50/55/50 
f 51/57/51 53/59/53 54/60/54 52/58/52 
f 53/59/53 55/61/55 56/62/56 54/60/54 
f 55/61/55 57/63/57 58/64/58 56/62/56 
f 57/63/57 59/65/59 60/66/60 58/64/58 
f 59/65/59 61/67/61 62/68/62 60/66/60 
f 61/67/61 63/69/63 64/70/64 62/68/62 
f 63/69/63 65/71/65 66/72/66 64/70/64 
f 65/71/65 67/73/67 68/74/68 66/72/66 
f 67/73/67 69/75/69 70/76/70 68/74/68 
f 69/75/69 71/77/71 72/78/72 70/76/70 
f 71/77/71 41/46/41 44/46/44 72/78/72 
s 2
f 44/46/44 43/48/43 73/48/73 74/46/74 
f 43/48/43 46/50/46 75/50/75 73/48/73 
f 46/50/46 48/52/48 76/52/76 75/50/75 
f 48/56/48 50/55/50 77/55/77 76/56/76 
f 50/55/50 52/58/52 78/58/78 77/55/77 
f 52/58/52 54/60/54 79/60/79 78/58/78 
f 54/60/54 56/62/56 80/62/80 79/60/79 
f 56/62/56 58/64/58 81/64/81 80/62/80 
f 58/64/58 60/66/60 82/66/82 81/64/81 
f 60/66/60 62/68/62 83/68/83 82/66/82 
f 62/68/62 64/70/64 84/70/84 83/68/83 
f 64/70/64 66/72/66 85/72/85 84/70/84 
f 66/72/66 68/74/68 86/74/86 85/72/85 
f 68/74/68 70/76/70 87/76/87 86/74/86 
f 70/76/70 72/78/72 88/78/88 87/76/87 
f 72/78/72 44/46/44 74/46/74 88/78/88 
s 1
f 89/46/89 90/48/90 91/48/91 92/46/92 
f 90/48/90 93/50/93 94/50/94 91/48/91 
f 93/50/93 95/52/95 96/52/96 94/50/94 
f 95/56/95 97/55/97 98/55/98 96/56/96 
f 97/55/97 99/58/99 100/58/100 98/55/98 
f 99/58/99 101/60/101 102/60/102 100/58/100 
f 101/60/101 103/62/103 104/62/104 102/60/102 
f 103/62/103 105/64/105 106/64/106 104/62/104 
f 105/64/105 107/66/107 108/66/108 106/64/106 
f 107/66/107 109/68/109 110/68/110 108/66/108 
f 109/68/109 111/70/111 112/70/112 110/68/110 
f 111/70/111 113/72/113 114/72/114 112/70/112 
f 113/72/113 115/74/115 116/74/116 114/72/114 
f 115/74/115 117/76/117 118/76/118 116/74/116 
f 117/76/117 119/78/119 120/78/120 118/76/118 
f 119/78/119 89/46/89 92/46/92 120/78/120 
f 92/46/92 91/48/91 121/48/121 122/46/122 
f 91/48/91 94/50/94 123/50/123 121/48/121 
f 94/50/94 96/52/96 124/52/124 123/50/123 
f 96/56/96 98/55/98 125/55/125 124/56/124 
f 98/55/98 100/58/100 126/58/126 125/55/125 
f 100/58/100 102/60/102 127/60/127 126/58/126 
f 102/60/102 104/62/104 128/62/128 127/60/127 
f 104/62/104 106/64/106 129/64/129 128/62/128 
f 106/64/106 108/66/108 130/66/130 129/64/129 
f 108/66/108 110/68/110 131/68/131 130/66/130 
f 110/68/110 112/70/112 132/70/132 131/68/131 
f 112/70/112 114/72/114 133/72/133 132/70/132 
f 114/72/114 116/74/116 134/74/134 133/72/133 
f 116/74/116 118/76/118 135/76/135 134/74/134 
f 118/76/118 120/78/120 136/78/136 135/76/135 
f 120/78/120 92/46/92 122/46/122 136/78/136 
f 122/46/122 121/48/121 137/48/137 138/46/138 
f 121/48/121 123/50/123 139/50/139 137/48/137 
f 123/50/123 124/52/124 140/52/140 139/50/139 
f 124/56/124 125/55/125 141/55/141 140/56/140 
f 125/55/125 126/58/126 142/58/142 141/55/141 
f 126/58/126 127/60/127 143/60/143 142/58/142 
f 127/60/127 128/62/128 144/62/144 143/60/143 
f 128/62/128 129/64/129 145/64/145 144/62/144 
f 129/64/129 130/66/130 146/66/146 145/64/145 
f 130/66/130 131/68/131 147/68/147 146/66/146 
f 131/68/131 132/70/132 148/70/148 147/68/147 
f 132/70/132 133/72/133 149/72/149 148/70/148 
f 133/72/133 134/74/134 150/74/150 149/72/149 
f 134/74/134 135/76/135 151/76/151 150/74/150 
f 135/76/135 136/78/136 152/78/152 151/76/151 
f 136/78/136 122/46/122 138/46/138 152/78/152 
f 138/46/138 137/48/137 153/76/153 
f 137/48/137 139/50/139 153/76/153 
f 139/50/139 140/52/140 153/76/153 
f 140/56/140 141/55/141 153/79/153 
f 141/55/141 142/58/142 153/79/153 
f 142/58/142 143/60/143 153/80/153 
f 143/60/143 144/62/144 153/80/153 
f 144/62/144 145/64/145 153/81/153 
f 145/64/145 146/66/146 153/81/153 
f 146/66/146 147/68/147 153/76/153 
f 147/68/147 148/70/148 153/76/153 
f 148/70/148 149/72/149 153/76/153 
f 149/72/149 150/74/150 153/76/153 
f 150/74/150 151/76/151 153/76/153 
f 151/76/151 152/78/152 153/76/153 
f 152/78/152 138/46/138 153/76/153 
f 73/48/73 90/48/90 89/46/89 74/46/74 
f 75/50/75 93/50/93 90/48/90 73/48/73 
f 76/52/76 95/52/95 93/50/93 75/50/75 
f 77/55/77 97/55/97 95/56/95 76/56/76 
f 78/58/78 99/58/99 97/55/97 77/55/77 
f 79/60/79 101/60/101 99/58/99 78/58/78 
f 80/62/80 103/62/103 101/60/101 79/60/79 
f 81/64/81 105/64/105 103/62/103 80/62/80 
f 82/66/82 107/66/107 105/64/105 81/64/81 
f 83/68/83 109/68/109 107/66/107 82/66/82 
f 84/70/84 111/70/111 109/68/109 83/68/83 
f 85/72/85 113/72/113 111/70/111 84/70/84 
f 86/74/86 115/74/115 113/72/113 85/72/85 
f 87/76/87 117/76/117 115/74/115 86/74/86 
f 88/78/88 119/78/119 117/76/117 87/76/87 
f 74/46/74 89/46/89 119/78/119 88/78/88 
s 2
f 154/82/154 42/47/42 41/46/41 155/83/155 
f 156/84/156 45/49/45 42/47/42 154/82/154 
f 157/85/157 47/51/47 45/49/45 156/84/156 
f 158/86/158 49/54/49 47/53/47 157/40/157 
f 159/87/159 51/57/51 49/54/49 158/86/158 
f 160/88/160 53/59/53 51/57/51 159/87/159 
f 161/89/161 55/61/55 53/59/53 160/88/160 
f 162/90/162 57/63/57 55/61/55 161/89/161 
f 163/91/163 59/65/59 57/63/57 162/90/162 
f 164/92/164 61/67/61 59/65/59 163/91/163 
f 165/93/165 63/69/63 61/67/61 164/92/164 
f 166/94/166 65/71/65 63/69/63 165/93/165 
f 167/95/167 67/73/67 65/71/65 166/94/166 
f 168/96/168 69/75/69 67/73/67 167/95/167 
f 169/97/169 71/77/71 69/75/69 168/96/168 
f 155/83/155 41/46/41 71/77/71 169/97/169 
s 4
f 34/38/34 154/82/154 155/83/155 
f 34/38/34 33/37/33 156/84/156 154/82/154 
f 33/37/33 157/85/157 156/84/156 
f 33/40/33 35/39/35 158/86/158 157/40/157 
f 35/39/35 159/87/159 158/86/158 
f 35/39/35 36/41/36 160/88/160 159/87/159 
f 36/41/36 161/89/161 160/88/160 
f 36/41/36 37/42/37 162/90/162 161/89/161 
f 37/42/37 163/91/163 162/90/162 
s 8
f 37/42/37 38/43/38 164/92/164 163/91/163 
f 38/43/38 165/93/165 164/92/164 
f 38/43/38 39/44/39 166/94/166 165/93/165 
s 4
f 39/44/39 167/95/167 166/94/166 
f 39/44/39 40/45/40 168/96/168 167/95/167 
f 40/45/40 169/97/169 168/96/168 
f 40/45/40 34/38/34 155/83/155 169/97/169 
# 152 polygons - 24 triangles

