# 3ds Max Wavefront OBJ Exporter v0.99 - (c)2007 guruware
# File Created: 09.11.2023 12:17:14

mtllib MushRedL.mtl

#
# object MushroomRedL
#

v  256.0268 -0.1779 1118.2618
v  242.5097 -0.1779 1098.0321
v  244.5601 7.3942 1094.9634
v  259.6465 7.3942 1117.5417
v  218.6471 -0.1779 1093.2855
v  217.9270 7.3942 1089.6658
v  198.4173 -0.1779 1106.8026
v  195.3486 7.3942 1104.7522
v  193.6707 -0.1779 1130.6652
v  190.0510 7.3942 1131.3853
v  207.1878 -0.1779 1150.8949
v  205.1374 7.3942 1153.9636
v  231.0504 -0.1779 1155.6415
v  231.7705 7.3942 1159.2612
v  251.2802 -0.1779 1142.1244
v  254.3489 7.3942 1144.1748
v  245.8719 20.2736 1093.0001
v  261.9623 20.2736 1117.0812
v  217.4664 20.2736 1087.3499
v  193.3854 20.2736 1103.4403
v  187.7352 20.2736 1131.8458
v  203.8256 20.2736 1155.9269
v  232.2311 20.2736 1161.5771
v  256.3121 20.2736 1145.4867
v  246.0253 32.7066 1092.7705
v  262.2331 32.7066 1117.0273
v  217.4125 32.7066 1087.0791
v  193.1558 32.7066 1103.2870
v  187.4644 32.7066 1131.8997
v  203.6722 32.7066 1156.1565
v  232.2850 32.7066 1161.8479
v  256.5417 32.7066 1145.6400
v  241.7814 352.0475 1099.1221
v  254.7411 352.0475 1118.5176
v  218.9028 352.0475 1094.5712
v  199.5073 352.0475 1107.5309
v  194.9565 352.0475 1130.4094
v  207.9161 352.0475 1149.8049
v  230.7947 352.0475 1154.3558
v  250.1902 352.0475 1141.3961
v  254.5254 394.4746 1124.4635
v  252.2664 394.4746 1113.1067
v  477.6562 384.7270 1019.7472
v  498.4856 384.7270 1124.4635
v  245.8333 394.4746 1103.4790
v  418.3392 384.7270 930.9730
v  236.2055 394.4746 1097.0459
v  329.5651 384.7270 871.6560
v  224.8488 394.4746 1094.7869
v  224.8487 384.7270 850.8267
v  213.4920 394.4746 1097.0459
v  120.1324 384.7270 871.6560
v  203.8642 394.4746 1103.4790
v  31.3583 384.7270 930.9730
v  197.4311 394.4746 1113.1067
v  -27.9588 384.7270 1019.7472
v  195.1721 394.4746 1124.4635
v  -48.7881 384.7270 1124.4635
v  197.4311 394.4746 1135.8202
v  -27.9588 384.7270 1229.1797
v  203.8642 394.4746 1145.4480
v  31.3582 384.7270 1317.9539
v  213.4920 394.4746 1151.8811
v  120.1324 384.7270 1377.2710
v  224.8488 394.4746 1154.1401
v  224.8488 384.7270 1398.1003
v  236.2055 394.4746 1151.8811
v  329.5651 384.7270 1377.2710
v  245.8333 394.4746 1145.4480
v  418.3393 384.7270 1317.9539
v  252.2664 394.4746 1135.8202
v  477.6563 384.7270 1229.1797
v  491.5674 393.9020 1013.9850
v  513.5429 393.9020 1124.4635
v  428.9863 393.9020 920.3259
v  335.3272 393.9020 857.7449
v  224.8487 393.9020 835.7693
v  114.3703 393.9020 857.7449
v  20.7112 393.9020 920.3259
v  -41.8699 393.9020 1013.9850
v  -63.8454 393.9020 1124.4635
v  -41.8699 393.9020 1234.9419
v  20.7111 393.9020 1328.6011
v  114.3702 393.9020 1391.1821
v  224.8488 393.9020 1413.1577
v  335.3273 393.9020 1391.1821
v  428.9864 393.9020 1328.6011
v  491.5674 393.9020 1234.9419
v  514.3702 410.7792 1124.4635
v  492.3318 410.7792 1013.6684
v  484.7870 421.9275 1016.7935
v  506.2039 421.9275 1124.4635
v  429.5714 410.7792 919.7409
v  423.7969 421.9275 925.5154
v  335.6438 410.7792 856.9805
v  332.5187 421.9275 864.5252
v  224.8487 410.7792 834.9420
v  224.8487 421.9275 843.1083
v  114.0537 410.7792 856.9805
v  117.1788 421.9275 864.5252
v  20.1261 410.7792 919.7409
v  25.9006 421.9275 925.5154
v  -42.6342 410.7792 1013.6684
v  -35.0895 421.9275 1016.7935
v  -64.6728 410.7792 1124.4635
v  -56.5064 421.9275 1124.4635
v  -42.6342 410.7792 1235.2585
v  -35.0895 421.9275 1232.1334
v  20.1261 410.7792 1329.1860
v  25.9005 421.9275 1323.4116
v  114.0536 410.7792 1391.9465
v  117.1787 421.9275 1384.4019
v  224.8488 410.7792 1413.9850
v  224.8488 421.9275 1405.8187
v  335.6439 410.7792 1391.9464
v  332.5188 421.9275 1384.4017
v  429.5714 410.7792 1329.1860
v  423.7970 421.9275 1323.4116
v  492.3318 410.7792 1235.2584
v  484.7871 421.9275 1232.1333
v  453.7785 432.8002 1029.6377
v  472.6406 432.8002 1124.4635
v  400.0640 432.8002 949.2483
v  319.6746 432.8002 895.5338
v  224.8487 432.8002 876.6717
v  130.0229 432.8002 895.5338
v  49.6335 432.8002 949.2483
v  -4.0810 432.8002 1029.6377
v  -22.9430 432.8002 1124.4635
v  -4.0810 432.8002 1219.2893
v  49.6334 432.8002 1299.6787
v  130.0229 432.8002 1353.3933
v  224.8488 432.8002 1372.2552
v  319.6746 432.8002 1353.3932
v  400.0641 432.8002 1299.6787
v  453.7786 432.8002 1219.2892
v  380.1528 444.3174 1060.1345
v  392.9486 444.3174 1124.4635
v  343.7133 444.3174 1005.5989
v  289.1778 444.3174 969.1595
v  224.8488 444.3174 956.3636
v  160.5197 444.3174 969.1595
v  105.9842 444.3174 1005.5989
v  69.5447 444.3174 1060.1345
v  56.7489 444.3174 1124.4635
v  69.5447 444.3174 1188.7925
v  105.9842 444.3174 1243.3280
v  160.5197 444.3174 1279.7676
v  224.8488 444.3174 1292.5634
v  289.1778 444.3174 1279.7675
v  343.7133 444.3174 1243.3280
v  380.1528 444.3174 1188.7925
v  224.8488 448.1574 1124.4635
v  262.1690 324.9366 1109.0049
v  265.2440 302.0908 1124.4635
v  253.4125 310.2835 1095.8998
v  240.3073 303.1027 1087.1432
v  224.8488 298.3343 1084.0684
v  209.3902 306.7221 1087.1432
v  196.2850 312.0557 1095.8998
v  187.5285 321.4559 1109.0049
v  184.4536 309.3793 1124.4635
v  187.5285 297.7396 1139.9221
v  196.2850 304.7800 1153.0272
v  209.3902 318.5060 1161.7838
v  224.8488 310.7090 1164.8586
v  240.3073 296.0573 1161.7838
v  253.4125 293.3279 1153.0272
v  262.1691 302.7460 1139.9220
# 169 vertices

vn 0.8816 -0.4381 -0.1754
vn 0.4994 -0.4381 -0.7474
vn 0.5295 -0.3027 -0.7925
vn 0.9348 -0.3027 -0.1859
vn -0.1754 -0.4381 -0.8816
vn -0.1859 -0.3027 -0.9348
vn -0.7474 -0.4381 -0.4994
vn -0.7925 -0.3027 -0.5295
vn -0.8816 -0.4381 0.1754
vn -0.9348 -0.3027 0.1859
vn -0.4994 -0.4381 0.7474
vn -0.5295 -0.3027 0.7925
vn 0.1754 -0.4381 0.8816
vn 0.1859 -0.3027 0.9348
vn 0.7474 -0.4381 0.4994
vn 0.7925 -0.3027 0.5295
vn 0.5528 -0.0997 -0.8273
vn 0.9759 -0.0997 -0.1941
vn -0.1941 -0.0997 -0.9759
vn -0.8273 -0.0997 -0.5528
vn -0.9759 -0.0997 0.1941
vn -0.5528 -0.0997 0.8273
vn 0.1941 -0.0997 0.9759
vn 0.8273 -0.0997 0.5528
vn 0.5556 0.0009 -0.8315
vn 0.9808 0.0009 -0.1951
vn -0.1951 0.0009 -0.9808
vn -0.8315 0.0009 -0.5556
vn -0.9808 0.0009 0.1951
vn -0.5556 0.0009 0.8315
vn 0.1951 0.0009 0.9808
vn 0.8315 0.0009 0.5556
vn -0.0158 -0.9924 0.1221
vn -0.1111 -0.9766 -0.1840
vn -0.0343 -0.9911 0.1289
vn 0.0127 -0.9930 0.1177
vn 0.0977 -0.9897 -0.1043
vn 0.1479 -0.9889 -0.0117
vn -0.1247 -0.9879 -0.0924
vn -0.0729 -0.9899 -0.1219
vn 0.6829 -0.7305 -0.0000
vn 0.6435 -0.7175 -0.2665
vn 0.2626 -0.9588 -0.1088
vn 0.2842 -0.9588 -0.0000
vn 0.4858 -0.7267 -0.4858
vn 0.2010 -0.9588 -0.2010
vn 0.2615 -0.7301 -0.6314
vn 0.1088 -0.9588 -0.2626
vn 0.0000 -0.7320 -0.6813
vn -0.0000 -0.9588 -0.2842
vn -0.2622 -0.7284 -0.6330
vn -0.1088 -0.9588 -0.2626
vn -0.4865 -0.7258 -0.4865
vn -0.2010 -0.9588 -0.2010
vn -0.6411 -0.7200 -0.2656
vn -0.2626 -0.9588 -0.1088
vn -0.6865 -0.7271 -0.0000
vn -0.2842 -0.9588 -0.0000
vn -0.6292 -0.7323 0.2606
vn -0.2626 -0.9588 0.1088
vn -0.4838 -0.7293 0.4838
vn -0.2010 -0.9588 0.2010
vn -0.2648 -0.7220 0.6392
vn -0.1088 -0.9588 0.2626
vn 0.0000 -0.7265 0.6872
vn 0.0000 -0.9588 0.2842
vn 0.2604 -0.7329 0.6286
vn 0.1088 -0.9588 0.2626
vn 0.4803 -0.7339 0.4803
vn 0.2010 -0.9588 0.2010
vn 0.6312 -0.7302 0.2615
vn 0.2626 -0.9588 0.1088
vn 0.8070 -0.4869 -0.3343
vn 0.8735 -0.4869 -0.0000
vn 0.6176 -0.4869 -0.6176
vn 0.3343 -0.4869 -0.8070
vn 0.0000 -0.4869 -0.8735
vn -0.3343 -0.4869 -0.8070
vn -0.6176 -0.4869 -0.6176
vn -0.8070 -0.4869 -0.3343
vn -0.8735 -0.4869 -0.0000
vn -0.8070 -0.4869 0.3343
vn -0.6176 -0.4869 0.6176
vn -0.3343 -0.4869 0.8070
vn 0.0000 -0.4869 0.8735
vn 0.3343 -0.4869 0.8070
vn 0.6176 -0.4869 0.6176
vn 0.8070 -0.4869 0.3343
vn 0.9610 0.2767 -0.0000
vn 0.8878 0.2767 -0.3677
vn 0.5635 0.7924 -0.2334
vn 0.6100 0.7924 -0.0000
vn 0.6795 0.2767 -0.6795
vn 0.4313 0.7924 -0.4313
vn 0.3677 0.2767 -0.8878
vn 0.2334 0.7924 -0.5635
vn 0.0000 0.2767 -0.9610
vn -0.0000 0.7924 -0.6100
vn -0.3677 0.2767 -0.8878
vn -0.2334 0.7924 -0.5635
vn -0.6795 0.2767 -0.6795
vn -0.4313 0.7924 -0.4313
vn -0.8878 0.2767 -0.3677
vn -0.5635 0.7924 -0.2334
vn -0.9610 0.2767 -0.0000
vn -0.6100 0.7924 -0.0000
vn -0.8878 0.2767 0.3677
vn -0.5635 0.7924 0.2334
vn -0.6795 0.2767 0.6795
vn -0.4313 0.7924 0.4313
vn -0.3677 0.2767 0.8878
vn -0.2334 0.7924 0.5635
vn 0.0000 0.2767 0.9610
vn 0.0000 0.7924 0.6100
vn 0.3677 0.2767 0.8878
vn 0.2334 0.7924 0.5635
vn 0.6795 0.2767 0.6795
vn 0.4313 0.7924 0.4313
vn 0.8878 0.2767 0.3677
vn 0.5635 0.7924 0.2334
vn 0.2184 0.9717 -0.0905
vn 0.2364 0.9717 -0.0000
vn 0.1672 0.9717 -0.1672
vn 0.0905 0.9717 -0.2184
vn -0.0000 0.9717 -0.2364
vn -0.0905 0.9717 -0.2184
vn -0.1672 0.9717 -0.1672
vn -0.2184 0.9717 -0.0905
vn -0.2364 0.9717 -0.0000
vn -0.2184 0.9717 0.0905
vn -0.1672 0.9717 0.1672
vn -0.0905 0.9717 0.2184
vn 0.0000 0.9717 0.2364
vn 0.0905 0.9717 0.2184
vn 0.1672 0.9717 0.1672
vn 0.2184 0.9717 0.0905
vn 0.0837 0.9959 -0.0347
vn 0.0906 0.9959 -0.0000
vn 0.0640 0.9959 -0.0640
vn 0.0347 0.9959 -0.0837
vn -0.0000 0.9959 -0.0906
vn -0.0347 0.9959 -0.0837
vn -0.0640 0.9959 -0.0640
vn -0.0837 0.9959 -0.0347
vn -0.0906 0.9959 -0.0000
vn -0.0837 0.9959 0.0347
vn -0.0640 0.9959 0.0640
vn -0.0347 0.9959 0.0837
vn 0.0000 0.9959 0.0906
vn 0.0347 0.9959 0.0837
vn 0.0640 0.9959 0.0640
vn 0.0837 0.9959 0.0347
vn -0.0000 1.0000 0.0000
vn 0.7487 -0.6596 0.0663
vn 0.2304 -0.9107 -0.3429
vn 0.4861 -0.8707 0.0744
vn 0.4747 -0.8718 -0.1207
vn -0.1328 -0.9687 -0.2096
vn -0.3097 -0.9279 -0.2078
vn -0.5210 -0.8513 0.0621
vn -0.3595 -0.7607 -0.5404
vn -0.3261 -0.8416 -0.4306
vn -0.2214 -0.9746 -0.0326
vn 0.1315 -0.8094 0.5723
vn -0.3772 -0.8420 0.3856
vn -0.3800 -0.8508 0.3629
vn -0.2769 -0.8808 0.3840
vn 0.2956 -0.9553 0.0015
vn 0.3148 -0.9407 0.1262
# 169 vertex normals

vt 0.7812 0.0000 1.0000
vt 0.9062 0.0000 1.0000
vt 0.9062 0.2500 1.0000
vt 0.7812 0.2500 1.0000
vt -0.0625 0.0000 1.0000
vt 0.0313 0.0000 1.0000
vt 0.0313 0.2500 1.0000
vt -0.0625 0.2500 1.0000
vt 0.1563 0.0000 1.0000
vt 0.1563 0.2500 1.0000
vt 0.2812 0.0000 1.0000
vt 0.2812 0.2500 1.0000
vt 0.4062 0.0000 1.0000
vt 0.4062 0.2500 1.0000
vt 0.5312 0.0000 1.0000
vt 0.5312 0.2500 1.0000
vt 0.6563 0.0000 1.0000
vt 0.6563 0.2500 1.0000
vt 0.9062 0.5000 1.0000
vt 0.7812 0.5000 1.0000
vt 0.0313 0.5000 1.0000
vt -0.0625 0.5000 1.0000
vt 0.1563 0.5000 1.0000
vt 0.2812 0.5000 1.0000
vt 0.4062 0.5000 1.0000
vt 0.5312 0.5000 1.0000
vt 0.6563 0.5000 1.0000
vt 0.9062 0.7500 1.0000
vt 0.7812 0.7500 1.0000
vt 0.0313 0.7500 1.0000
vt -0.0625 0.7500 1.0000
vt 0.1563 0.7500 1.0000
vt 0.2812 0.7500 1.0000
vt 0.4062 0.7500 1.0000
vt 0.5312 0.7500 1.0000
vt 0.6563 0.7500 1.0000
vt 0.9062 0.9527 1.0000
vt 0.7812 0.9527 1.0000
vt 0.0313 0.9527 1.0000
vt -0.0625 0.9527 1.0000
vt 0.1563 0.9527 1.0000
vt 0.2812 0.9527 1.0000
vt 0.4062 0.9527 1.0000
vt 0.5312 0.9527 1.0000
vt 0.6563 0.9527 1.0000
vt 0.7500 1.0000 1.0000
vt 0.8125 0.9804 1.0000
vt 0.8125 1.0000 1.0000
vt 0.8750 0.9804 1.0000
vt 0.8750 1.0000 1.0000
vt 0.9375 0.9804 1.0000
vt 0.9375 1.0000 1.0000
vt -0.0625 0.9804 1.0000
vt 0.0000 0.9804 1.0000
vt 0.0000 1.0000 1.0000
vt -0.0625 1.0000 1.0000
vt 0.0625 0.9804 1.0000
vt 0.0625 1.0000 1.0000
vt 0.1250 0.9804 1.0000
vt 0.1250 1.0000 1.0000
vt 0.1875 0.9804 1.0000
vt 0.1875 1.0000 1.0000
vt 0.2500 0.9804 1.0000
vt 0.2500 1.0000 1.0000
vt 0.3125 0.9804 1.0000
vt 0.3125 1.0000 1.0000
vt 0.3750 0.9804 1.0000
vt 0.3750 1.0000 1.0000
vt 0.4375 0.9804 1.0000
vt 0.4375 1.0000 1.0000
vt 0.5000 0.9804 1.0000
vt 0.5000 1.0000 1.0000
vt 0.5625 0.9804 1.0000
vt 0.5625 1.0000 1.0000
vt 0.6250 0.9804 1.0000
vt 0.6250 1.0000 1.0000
vt 0.6875 0.9804 1.0000
vt 0.6875 1.0000 1.0000
vt -0.0312 1.0000 1.0000
vt 0.0938 1.0000 1.0000
vt 0.2188 1.0000 1.0000
vt 0.8125 0.9527 1.0000
vt 0.7500 0.9527 1.0000
vt 0.8750 0.9527 1.0000
vt 0.9375 0.9527 1.0000
vt 0.0000 0.9527 1.0000
vt 0.0625 0.9527 1.0000
vt 0.1250 0.9527 1.0000
vt 0.1875 0.9527 1.0000
vt 0.2500 0.9527 1.0000
vt 0.3125 0.9527 1.0000
vt 0.3750 0.9527 1.0000
vt 0.4375 0.9527 1.0000
vt 0.5000 0.9527 1.0000
vt 0.5625 0.9527 1.0000
vt 0.6250 0.9527 1.0000
vt 0.6875 0.9527 1.0000
# 97 texture coords

o MushroomRedL
g MushroomRedL
usemtl wire_006135058
s 1
f 1/1/1 2/2/2 3/3/3 4/4/4 
f 2/5/2 5/6/5 6/7/6 3/8/3 
f 5/6/5 7/9/7 8/10/8 6/7/6 
f 7/9/7 9/11/9 10/12/10 8/10/8 
f 9/11/9 11/13/11 12/14/12 10/12/10 
f 11/13/11 13/15/13 14/16/14 12/14/12 
f 13/15/13 15/17/15 16/18/16 14/16/14 
f 15/17/15 1/1/1 4/4/4 16/18/16 
f 4/4/4 3/3/3 17/19/17 18/20/18 
f 3/8/3 6/7/6 19/21/19 17/22/17 
f 6/7/6 8/10/8 20/23/20 19/21/19 
f 8/10/8 10/12/10 21/24/21 20/23/20 
f 10/12/10 12/14/12 22/25/22 21/24/21 
f 12/14/12 14/16/14 23/26/23 22/25/22 
f 14/16/14 16/18/16 24/27/24 23/26/23 
f 16/18/16 4/4/4 18/20/18 24/27/24 
f 18/20/18 17/19/17 25/28/25 26/29/26 
f 17/22/17 19/21/19 27/30/27 25/31/25 
f 19/21/19 20/23/20 28/32/28 27/30/27 
f 20/23/20 21/24/21 29/33/29 28/32/28 
f 21/24/21 22/25/22 30/34/30 29/33/29 
f 22/25/22 23/26/23 31/35/31 30/34/30 
f 23/26/23 24/27/24 32/36/32 31/35/31 
f 24/27/24 18/20/18 26/29/26 32/36/32 
f 26/29/26 25/28/25 33/37/33 34/38/34 
f 25/31/25 27/30/27 35/39/35 33/40/33 
f 27/30/27 28/32/28 36/41/36 35/39/35 
f 28/32/28 29/33/29 37/42/37 36/41/36 
f 29/33/29 30/34/30 38/43/38 37/42/37 
f 30/34/30 31/35/31 39/44/39 38/43/38 
f 31/35/31 32/36/32 40/45/40 39/44/39 
f 32/36/32 26/29/26 34/38/34 40/45/40 
f 41/46/41 42/47/42 43/48/43 44/46/44 
f 42/47/42 45/49/45 46/50/46 43/48/43 
f 45/49/45 47/51/47 48/52/48 46/50/46 
f 47/53/47 49/54/49 50/55/50 48/56/48 
f 49/54/49 51/57/51 52/58/52 50/55/50 
f 51/57/51 53/59/53 54/60/54 52/58/52 
f 53/59/53 55/61/55 56/62/56 54/60/54 
f 55/61/55 57/63/57 58/64/58 56/62/56 
f 57/63/57 59/65/59 60/66/60 58/64/58 
f 59/65/59 61/67/61 62/68/62 60/66/60 
f 61/67/61 63/69/63 64/70/64 62/68/62 
f 63/69/63 65/71/65 66/72/66 64/70/64 
f 65/71/65 67/73/67 68/74/68 66/72/66 
f 67/73/67 69/75/69 70/76/70 68/74/68 
f 69/75/69 71/77/71 72/78/72 70/76/70 
f 71/77/71 41/46/41 44/46/44 72/78/72 
f 44/46/44 43/48/43 73/48/73 74/46/74 
f 43/48/43 46/50/46 75/50/75 73/48/73 
f 46/50/46 48/52/48 76/52/76 75/50/75 
f 48/56/48 50/55/50 77/55/77 76/56/76 
f 50/55/50 52/58/52 78/58/78 77/55/77 
f 52/58/52 54/60/54 79/60/79 78/58/78 
f 54/60/54 56/62/56 80/62/80 79/60/79 
f 56/62/56 58/64/58 81/64/81 80/62/80 
f 58/64/58 60/66/60 82/66/82 81/64/81 
f 60/66/60 62/68/62 83/68/83 82/66/82 
f 62/68/62 64/70/64 84/70/84 83/68/83 
f 64/70/64 66/72/66 85/72/85 84/70/84 
f 66/72/66 68/74/68 86/74/86 85/72/85 
f 68/74/68 70/76/70 87/76/87 86/74/86 
f 70/76/70 72/78/72 88/78/88 87/76/87 
f 72/78/72 44/46/44 74/46/74 88/78/88 
s 2
f 89/46/89 90/48/90 91/48/91 92/46/92 
f 90/48/90 93/50/93 94/50/94 91/48/91 
f 93/50/93 95/52/95 96/52/96 94/50/94 
f 95/56/95 97/55/97 98/55/98 96/56/96 
f 97/55/97 99/58/99 100/58/100 98/55/98 
f 99/58/99 101/60/101 102/60/102 100/58/100 
f 101/60/101 103/62/103 104/62/104 102/60/102 
f 103/62/103 105/64/105 106/64/106 104/62/104 
f 105/64/105 107/66/107 108/66/108 106/64/106 
f 107/66/107 109/68/109 110/68/110 108/66/108 
f 109/68/109 111/70/111 112/70/112 110/68/110 
f 111/70/111 113/72/113 114/72/114 112/70/112 
f 113/72/113 115/74/115 116/74/116 114/72/114 
f 115/74/115 117/76/117 118/76/118 116/74/116 
f 117/76/117 119/78/119 120/78/120 118/76/118 
f 119/78/119 89/46/89 92/46/92 120/78/120 
f 92/46/92 91/48/91 121/48/121 122/46/122 
f 91/48/91 94/50/94 123/50/123 121/48/121 
f 94/50/94 96/52/96 124/52/124 123/50/123 
f 96/56/96 98/55/98 125/55/125 124/56/124 
f 98/55/98 100/58/100 126/58/126 125/55/125 
f 100/58/100 102/60/102 127/60/127 126/58/126 
f 102/60/102 104/62/104 128/62/128 127/60/127 
f 104/62/104 106/64/106 129/64/129 128/62/128 
f 106/64/106 108/66/108 130/66/130 129/64/129 
f 108/66/108 110/68/110 131/68/131 130/66/130 
f 110/68/110 112/70/112 132/70/132 131/68/131 
f 112/70/112 114/72/114 133/72/133 132/70/132 
f 114/72/114 116/74/116 134/74/134 133/72/133 
f 116/74/116 118/76/118 135/76/135 134/74/134 
f 118/76/118 120/78/120 136/78/136 135/76/135 
f 120/78/120 92/46/92 122/46/122 136/78/136 
f 122/46/122 121/48/121 137/48/137 138/46/138 
f 121/48/121 123/50/123 139/50/139 137/48/137 
f 123/50/123 124/52/124 140/52/140 139/50/139 
f 124/56/124 125/55/125 141/55/141 140/56/140 
f 125/55/125 126/58/126 142/58/142 141/55/141 
f 126/58/126 127/60/127 143/60/143 142/58/142 
f 127/60/127 128/62/128 144/62/144 143/60/143 
f 128/62/128 129/64/129 145/64/145 144/62/144 
f 129/64/129 130/66/130 146/66/146 145/64/145 
f 130/66/130 131/68/131 147/68/147 146/66/146 
f 131/68/131 132/70/132 148/70/148 147/68/147 
f 132/70/132 133/72/133 149/72/149 148/70/148 
f 133/72/133 134/74/134 150/74/150 149/72/149 
f 134/74/134 135/76/135 151/76/151 150/74/150 
f 135/76/135 136/78/136 152/78/152 151/76/151 
f 136/78/136 122/46/122 138/46/138 152/78/152 
f 138/46/138 137/48/137 153/76/153 
f 137/48/137 139/50/139 153/76/153 
f 139/50/139 140/52/140 153/76/153 
f 140/56/140 141/55/141 153/79/153 
f 141/55/141 142/58/142 153/79/153 
f 142/58/142 143/60/143 153/80/153 
f 143/60/143 144/62/144 153/80/153 
f 144/62/144 145/64/145 153/81/153 
f 145/64/145 146/66/146 153/81/153 
f 146/66/146 147/68/147 153/76/153 
f 147/68/147 148/70/148 153/76/153 
f 148/70/148 149/72/149 153/76/153 
f 149/72/149 150/74/150 153/76/153 
f 150/74/150 151/76/151 153/76/153 
f 151/76/151 152/78/152 153/76/153 
f 152/78/152 138/46/138 153/76/153 
f 73/48/73 90/48/90 89/46/89 74/46/74 
f 75/50/75 93/50/93 90/48/90 73/48/73 
f 76/52/76 95/52/95 93/50/93 75/50/75 
f 77/55/77 97/55/97 95/56/95 76/56/76 
f 78/58/78 99/58/99 97/55/97 77/55/77 
f 79/60/79 101/60/101 99/58/99 78/58/78 
f 80/62/80 103/62/103 101/60/101 79/60/79 
f 81/64/81 105/64/105 103/62/103 80/62/80 
f 82/66/82 107/66/107 105/64/105 81/64/81 
f 83/68/83 109/68/109 107/66/107 82/66/82 
f 84/70/84 111/70/111 109/68/109 83/68/83 
f 85/72/85 113/72/113 111/70/111 84/70/84 
f 86/74/86 115/74/115 113/72/113 85/72/85 
f 87/76/87 117/76/117 115/74/115 86/74/86 
f 88/78/88 119/78/119 117/76/117 87/76/87 
f 74/46/74 89/46/89 119/78/119 88/78/88 
f 154/82/154 42/47/42 41/46/41 155/83/155 
f 156/84/156 45/49/45 42/47/42 154/82/154 
f 157/85/157 47/51/47 45/49/45 156/84/156 
f 158/86/158 49/54/49 47/53/47 157/40/157 
f 159/87/159 51/57/51 49/54/49 158/86/158 
f 160/88/160 53/59/53 51/57/51 159/87/159 
f 161/89/161 55/61/55 53/59/53 160/88/160 
f 162/90/162 57/63/57 55/61/55 161/89/161 
f 163/91/163 59/65/59 57/63/57 162/90/162 
f 164/92/164 61/67/61 59/65/59 163/91/163 
f 165/93/165 63/69/63 61/67/61 164/92/164 
f 166/94/166 65/71/65 63/69/63 165/93/165 
f 167/95/167 67/73/67 65/71/65 166/94/166 
f 168/96/168 69/75/69 67/73/67 167/95/167 
f 169/97/169 71/77/71 69/75/69 168/96/168 
f 155/83/155 41/46/41 71/77/71 169/97/169 
s 4
f 34/38/34 154/82/154 155/83/155 
f 34/38/34 33/37/33 156/84/156 154/82/154 
f 33/37/33 157/85/157 156/84/156 
f 33/40/33 35/39/35 158/86/158 157/40/157 
f 35/39/35 159/87/159 158/86/158 
f 35/39/35 36/41/36 160/88/160 159/87/159 
f 36/41/36 161/89/161 160/88/160 
f 36/41/36 37/42/37 162/90/162 161/89/161 
f 37/42/37 163/91/163 162/90/162 
f 37/42/37 38/43/38 164/92/164 163/91/163 
f 38/43/38 165/93/165 164/92/164 
f 38/43/38 39/44/39 166/94/166 165/93/165 
f 39/44/39 167/95/167 166/94/166 
f 39/44/39 40/45/40 168/96/168 167/95/167 
f 40/45/40 169/97/169 168/96/168 
f 40/45/40 34/38/34 155/83/155 169/97/169 
# 152 polygons - 24 triangles

