# 3ds Max Wavefront OBJ Exporter v0.99 - (c)2007 guruware
# File Created: 09.11.2023 12:18:10

mtllib MushTall1.mtl

#
# object MushroomTall
#

v  909.2458 0.8110 474.0982
v  900.3588 0.8110 477.7794
v  891.4719 0.8110 474.0982
v  887.7908 0.8110 465.2113
v  891.4719 0.8110 456.3243
v  900.3588 0.8110 452.6432
v  909.2458 0.8110 456.3243
v  912.9269 0.8110 465.2113
v  913.1759 9.1937 452.3942
v  918.4849 9.1937 465.2113
v  900.3588 9.1937 447.0851
v  887.5417 9.1937 452.3942
v  882.2327 9.1937 465.2113
v  887.5417 9.1937 478.0284
v  900.3588 9.1937 483.3374
v  913.1759 9.1937 478.0284
v  906.7391 700.0000 458.8310
v  909.3819 700.0000 465.2113
v  900.3588 700.0000 456.1882
v  893.9786 700.0000 458.8310
v  891.3358 700.0000 465.2113
v  893.9786 700.0000 471.5916
v  900.3588 700.0000 474.2343
v  906.7391 700.0000 471.5916
v  956.4603 715.4866 409.1099
v  979.6982 715.4866 465.2113
v  900.3588 715.4866 385.8719
v  844.2574 715.4866 409.1099
v  821.0194 715.4866 465.2113
v  844.2574 715.4866 521.3127
v  900.3588 715.4866 544.5507
v  956.4603 715.4866 521.3127
v  953.3186 736.5309 412.2515
v  975.2552 736.5309 465.2113
v  900.3588 736.5309 390.3148
v  847.3990 736.5309 412.2515
v  825.4624 736.5309 465.2113
v  847.3990 736.5309 518.1711
v  900.3588 736.5309 540.1077
v  953.3186 736.5309 518.1711
v  965.2934 756.9954 465.2113
v  946.2745 756.9954 419.2956
v  933.5169 772.2293 432.0532
v  947.2514 772.2293 465.2113
v  900.3588 756.9954 400.2767
v  900.3588 772.2293 418.3187
v  854.4432 756.9954 419.2956
v  867.2007 772.2293 432.0532
v  835.4243 756.9954 465.2113
v  853.4662 772.2293 465.2113
v  854.4432 756.9954 511.1270
v  867.2008 772.2293 498.3693
v  900.3588 756.9954 530.1459
v  900.3588 772.2293 512.1038
v  946.2745 756.9954 511.1270
v  933.5169 772.2293 498.3693
v  927.1342 780.7027 465.2113
v  919.2918 780.7027 446.2783
v  900.3588 784.8730 465.2113
v  900.3588 780.7027 438.4359
v  881.4258 780.7027 446.2783
v  873.5835 780.7027 465.2113
v  881.4258 780.7027 484.1443
v  900.3588 780.7027 491.9866
v  919.2918 780.7027 484.1443
# 65 vertices

vn 0.3920 -0.8323 0.3920
vn -0.0000 -0.8323 0.5544
vn -0.3920 -0.8323 0.3920
vn -0.5544 -0.8323 0.0000
vn -0.3920 -0.8323 -0.3920
vn -0.0000 -0.8323 -0.5544
vn 0.3920 -0.8323 -0.3920
vn 0.5544 -0.8323 -0.0000
vn 0.6819 -0.2645 -0.6819
vn 0.9644 -0.2645 -0.0000
vn -0.0000 -0.2645 -0.9644
vn -0.6819 -0.2645 -0.6819
vn -0.9644 -0.2645 0.0000
vn -0.6819 -0.2645 0.6819
vn -0.0000 -0.2645 0.9644
vn 0.6819 -0.2645 0.6819
vn 0.4991 -0.7084 -0.4991
vn 0.7058 -0.7084 0.0000
vn -0.0000 -0.7084 -0.7058
vn -0.4991 -0.7084 -0.4991
vn -0.7058 -0.7084 0.0000
vn -0.4991 -0.7084 0.4991
vn -0.0000 -0.7084 0.7058
vn 0.4991 -0.7084 0.4991
vn 0.6219 -0.4760 -0.6219
vn 0.8794 -0.4760 -0.0000
vn -0.0000 -0.4760 -0.8794
vn -0.6219 -0.4760 -0.6219
vn -0.8794 -0.4760 0.0000
vn -0.6219 -0.4760 0.6219
vn -0.0000 -0.4760 0.8794
vn 0.6219 -0.4760 0.6219
vn 0.6709 0.3157 -0.6709
vn 0.9488 0.3157 -0.0000
vn -0.0000 0.3157 -0.9488
vn -0.6709 0.3157 -0.6709
vn -0.9488 0.3157 0.0000
vn -0.6709 0.3157 0.6709
vn -0.0000 0.3157 0.9488
vn 0.6709 0.3157 0.6709
vn 0.8069 0.5906 -0.0000
vn 0.5706 0.5906 -0.5706
vn 0.3880 0.8360 -0.3880
vn 0.5488 0.8360 -0.0000
vn -0.0000 0.5906 -0.8069
vn -0.0000 0.8360 -0.5488
vn -0.5706 0.5906 -0.5706
vn -0.3880 0.8360 -0.3880
vn -0.8069 0.5906 0.0000
vn -0.5488 0.8360 0.0000
vn -0.5706 0.5906 0.5706
vn -0.3880 0.8360 0.3880
vn 0.0000 0.5906 0.8069
vn -0.0000 0.8360 0.5488
vn 0.5706 0.5906 0.5706
vn 0.3880 0.8360 0.3880
vn 0.3007 0.9537 -0.0000
vn 0.2126 0.9537 -0.2126
vn -0.0000 1.0000 -0.0000
vn -0.0000 0.9537 -0.3007
vn -0.2126 0.9537 -0.2126
vn -0.3007 0.9537 0.0000
vn -0.2126 0.9537 0.2126
vn -0.0000 0.9537 0.3007
vn 0.2126 0.9537 0.2126
# 65 vertex normals

vt 0.4786 0.0000 0.4142
vt 0.2197 0.0000 -0.4142
vt 0.1250 0.0000 -1.0000
vt 0.2500 0.0000 -1.0000
vt 0.5214 0.0000 -0.4142
vt 0.7803 0.0000 0.4142
vt 0.8750 0.0000 1.0000
vt 0.7500 0.0000 1.0000
vt 0.8750 0.5000 1.0000
vt 0.7500 0.5000 1.0000
vt -0.1250 0.0000 1.0000
vt 0.0000 0.0000 1.0000
vt 0.0000 0.5000 1.0000
vt -0.1250 0.5000 1.0000
vt 0.1250 0.0000 1.0000
vt 0.1250 0.5000 1.0000
vt 0.2500 0.0000 1.0000
vt 0.2500 0.5000 1.0000
vt 0.3750 0.0000 1.0000
vt 0.3750 0.5000 1.0000
vt 0.5000 0.0000 1.0000
vt 0.5000 0.5000 1.0000
vt 0.6250 0.0000 1.0000
vt 0.6250 0.5000 1.0000
vt 0.8750 1.0000 1.0000
vt 0.7500 1.0000 1.0000
vt 0.0000 1.0000 1.0000
vt -0.1250 1.0000 1.0000
vt 0.1250 1.0000 1.0000
vt 0.2500 1.0000 1.0000
vt 0.3750 1.0000 1.0000
vt 0.5000 1.0000 1.0000
vt 0.6250 1.0000 1.0000
vt 0.7803 1.0000 0.4142
vt 0.5214 1.0000 -0.4142
vt 0.2500 1.0000 -1.0000
vt 0.1250 1.0000 -1.0000
vt 0.2197 1.0000 -0.4142
vt 0.5183 1.0000 0.0732
# 39 texture coords

o MushroomTall
g MushroomTall
usemtl wire_088199225
s 1
f 1/1/1 2/2/2 3/3/3 4/4/4 5/5/5 6/6/6 7/7/7 8/8/8 
s 2
f 8/8/8 7/7/7 9/9/9 10/10/10 
f 7/11/7 6/12/6 11/13/11 9/14/9 
f 6/12/6 5/15/5 12/16/12 11/13/11 
f 5/15/5 4/17/4 13/18/13 12/16/12 
f 4/17/4 3/19/3 14/20/14 13/18/13 
f 3/19/3 2/21/2 15/22/15 14/20/14 
f 2/21/2 1/23/1 16/24/16 15/22/15 
f 1/23/1 8/8/8 10/10/10 16/24/16 
f 10/10/10 9/9/9 17/25/17 18/26/18 
f 9/14/9 11/13/11 19/27/19 17/28/17 
f 11/13/11 12/16/12 20/29/20 19/27/19 
f 12/16/12 13/18/13 21/30/21 20/29/20 
f 13/18/13 14/20/14 22/31/22 21/30/21 
f 14/20/14 15/22/15 23/32/23 22/31/22 
f 15/22/15 16/24/16 24/33/24 23/32/23 
f 16/24/16 10/10/10 18/26/18 24/33/24 
s 1
f 18/26/18 17/25/17 25/25/25 26/26/26 
f 17/25/17 19/34/19 27/34/27 25/25/25 
f 19/34/19 20/35/20 28/35/28 27/34/27 
f 20/35/20 21/36/21 29/36/29 28/35/28 
f 21/36/21 22/37/22 30/37/30 29/36/29 
f 22/37/22 23/38/23 31/38/31 30/37/30 
f 23/38/23 24/33/24 32/33/32 31/38/31 
f 24/33/24 18/26/18 26/26/26 32/33/32 
s 2
f 26/26/26 25/25/25 33/25/33 34/26/34 
f 25/25/25 27/34/27 35/34/35 33/25/33 
f 27/34/27 28/35/28 36/35/36 35/34/35 
f 28/35/28 29/36/29 37/36/37 36/35/36 
f 29/36/29 30/37/30 38/37/38 37/36/37 
f 30/37/30 31/38/31 39/38/39 38/37/38 
f 31/38/31 32/33/32 40/33/40 39/38/39 
f 32/33/32 26/26/26 34/26/34 40/33/40 
f 41/26/41 42/25/42 43/25/43 44/26/44 
f 42/25/42 45/34/45 46/34/46 43/25/43 
f 45/34/45 47/35/47 48/35/48 46/34/46 
f 47/35/47 49/36/49 50/36/50 48/35/48 
f 49/36/49 51/37/51 52/37/52 50/36/50 
f 51/37/51 53/38/53 54/38/54 52/37/52 
f 53/38/53 55/33/55 56/33/56 54/38/54 
f 55/33/55 41/26/41 44/26/44 56/33/56 
f 57/26/57 58/25/58 59/39/59 
f 58/25/58 60/34/60 59/39/59 
f 60/34/60 61/35/61 59/39/59 
f 61/35/61 62/36/62 59/39/59 
f 62/36/62 63/37/63 59/39/59 
f 63/37/63 64/38/64 59/39/59 
f 64/38/64 65/33/65 59/39/59 
f 65/33/65 57/26/57 59/39/59 
f 43/25/43 58/25/58 57/26/57 44/26/44 
f 46/34/46 60/34/60 58/25/58 43/25/43 
f 48/35/48 61/35/61 60/34/60 46/34/46 
f 50/36/50 62/36/62 61/35/61 48/35/48 
f 52/37/52 63/37/63 62/36/62 50/36/50 
f 54/38/54 64/38/64 63/37/63 52/37/52 
f 56/33/56 65/33/65 64/38/64 54/38/54 
f 44/26/44 57/26/57 65/33/65 56/33/56 
f 33/25/33 42/25/42 41/26/41 34/26/34 
f 35/34/35 45/34/45 42/25/42 33/25/33 
f 36/35/36 47/35/47 45/34/45 35/34/35 
f 37/36/37 49/36/49 47/35/47 36/35/36 
f 38/37/38 51/37/51 49/36/49 37/36/37 
f 39/38/39 53/38/53 51/37/51 38/37/38 
f 40/33/40 55/33/55 53/38/53 39/38/39 
f 34/26/34 41/26/41 55/33/55 40/33/40 
# 57 polygons - 8 triangles

