# 3ds Max Wavefront OBJ Exporter v0.99 - (c)2007 guruware
# File Created: 09.11.2023 12:08:07

mtllib MushFatTS.mtl

#
# object MushroomWide003
#

v  2834.1091 -0.0989 808.7604
v  2822.4182 -0.0989 772.7798
v  2827.2095 10.5852 769.2987
v  2840.0315 10.5852 808.7604
v  2791.8113 -0.0989 750.5427
v  2793.6416 10.5852 744.9100
v  2753.9792 -0.0989 750.5427
v  2752.1489 10.5852 744.9101
v  2723.3723 -0.0989 772.7798
v  2718.5811 10.5852 769.2987
v  2711.6814 -0.0989 808.7604
v  2705.7590 10.5852 808.7604
v  2723.3723 -0.0989 844.7409
v  2718.5811 10.5852 848.2220
v  2753.9792 -0.0989 866.9781
v  2752.1489 10.5852 872.6107
v  2791.8113 -0.0989 866.9781
v  2793.6416 10.5852 872.6107
v  2822.4182 -0.0989 844.7409
v  2827.2097 10.5852 848.2220
v  2832.4800 40.6156 765.4695
v  2846.5461 40.6156 808.7604
v  2795.6545 40.6156 738.7142
v  2750.1360 40.6156 738.7142
v  2713.3105 40.6156 765.4695
v  2699.2444 40.6156 808.7604
v  2713.3105 40.6156 852.0513
v  2750.1360 40.6156 878.8065
v  2795.6545 40.6156 878.8065
v  2832.4800 40.6156 852.0513
v  2831.5493 74.5599 766.1458
v  2845.3955 74.5599 808.7604
v  2795.2991 74.5599 739.8085
v  2750.4915 74.5599 739.8085
v  2714.2412 74.5599 766.1458
v  2700.3950 74.5599 808.7604
v  2714.2412 74.5599 851.3749
v  2750.4915 74.5599 877.7122
v  2795.2991 74.5599 877.7122
v  2831.5493 74.5599 851.3749
v  2820.0664 206.7227 774.4886
v  2831.2019 206.7227 808.7604
v  2790.9131 206.7227 753.3074
v  2754.8774 206.7227 753.3074
v  2725.7241 206.7227 774.4886
v  2714.5886 206.7227 808.7604
v  2725.7241 206.7227 843.0322
v  2754.8774 206.7227 864.2133
v  2790.9131 206.7227 864.2133
v  2820.0664 206.7227 843.0322
v  2856.8562 220.5588 747.7592
v  2876.6768 220.5588 808.7604
v  2804.9656 220.5588 710.0583
v  2740.8250 220.5588 710.0583
v  2688.9343 220.5588 747.7592
v  2669.1138 220.5588 808.7604
v  2688.9343 220.5588 869.7616
v  2740.8250 220.5588 907.4624
v  2804.9656 220.5588 907.4624
v  2856.8562 220.5588 869.7615
v  2865.5952 233.3732 741.4100
v  2887.4785 233.3732 808.7604
v  2808.3035 233.3732 699.7852
v  2737.4871 233.3732 699.7852
v  2680.1953 233.3732 741.4100
v  2658.3120 233.3732 808.7604
v  2680.1953 233.3732 876.1108
v  2737.4871 233.3732 917.7356
v  2808.3035 233.3732 917.7356
v  2865.5952 233.3732 876.1107
v  2876.8120 274.6479 808.7604
v  2856.9656 274.6479 747.6797
v  2842.7854 309.8528 757.9823
v  2859.2842 309.8528 808.7604
v  2805.0073 274.6479 709.9297
v  2799.5908 309.8528 726.5997
v  2740.7832 274.6479 709.9297
v  2746.1997 309.8528 726.5997
v  2688.8250 274.6479 747.6797
v  2703.0051 309.8528 757.9823
v  2668.9785 274.6479 808.7604
v  2686.5063 309.8528 808.7604
v  2688.8250 274.6479 869.8411
v  2703.0051 309.8528 859.5385
v  2740.7832 274.6479 907.5911
v  2746.1997 309.8528 890.9211
v  2805.0073 274.6479 907.5911
v  2799.5908 309.8528 890.9211
v  2856.9656 274.6479 869.8411
v  2842.7854 309.8528 859.5385
v  2826.8210 325.2046 769.5810
v  2839.5513 325.2046 808.7604
v  2793.4932 325.2046 745.3668
v  2752.2974 325.2046 745.3668
v  2718.9695 325.2046 769.5810
v  2706.2393 325.2046 808.7604
v  2718.9695 325.2046 847.9398
v  2752.2974 325.2046 872.1539
v  2793.4932 325.2046 872.1539
v  2826.8210 325.2046 847.9397
v  2815.0776 334.3181 808.7604
v  2807.0215 334.3181 783.9662
v  2772.8953 339.3250 808.7604
v  2785.9304 334.3181 768.6426
v  2759.8601 334.3181 768.6426
v  2738.7690 334.3181 783.9662
v  2730.7129 334.3181 808.7604
v  2738.7690 334.3181 833.5546
v  2759.8601 334.3181 848.8782
v  2785.9304 334.3181 848.8782
v  2807.0215 334.3181 833.5545
# 111 vertices

vn 0.8746 -0.4848 -0.0000
vn 0.7076 -0.4848 -0.5141
vn 0.7599 -0.3430 -0.5521
vn 0.9393 -0.3430 -0.0000
vn 0.2703 -0.4848 -0.8318
vn 0.2903 -0.3430 -0.8933
vn -0.2703 -0.4848 -0.8318
vn -0.2903 -0.3430 -0.8933
vn -0.7076 -0.4848 -0.5141
vn -0.7599 -0.3430 -0.5521
vn -0.8746 -0.4848 0.0000
vn -0.9393 -0.3430 0.0000
vn -0.7076 -0.4848 0.5141
vn -0.7599 -0.3430 0.5521
vn -0.2703 -0.4848 0.8318
vn -0.2903 -0.3430 0.8933
vn 0.2703 -0.4848 0.8318
vn 0.2903 -0.3430 0.8933
vn 0.7076 -0.4848 0.5141
vn 0.7599 -0.3430 0.5521
vn 0.8059 -0.0877 -0.5855
vn 0.9962 -0.0877 -0.0000
vn 0.3078 -0.0877 -0.9474
vn -0.3078 -0.0877 -0.9474
vn -0.8059 -0.0877 -0.5855
vn -0.9962 -0.0877 0.0000
vn -0.8059 -0.0877 0.5855
vn -0.3078 -0.0877 0.9474
vn 0.3078 -0.0877 0.9474
vn 0.8059 -0.0877 0.5855
vn 0.8070 0.0699 -0.5863
vn 0.9976 0.0699 -0.0000
vn 0.3083 0.0699 -0.9487
vn -0.3083 0.0699 -0.9487
vn -0.8070 0.0699 -0.5863
vn -0.9976 0.0699 0.0000
vn -0.8070 0.0699 0.5863
vn -0.3083 0.0699 0.9487
vn 0.3083 0.0699 0.9487
vn 0.8070 0.0699 0.5863
vn 0.6360 -0.6180 -0.4621
vn 0.7862 -0.6180 -0.0000
vn 0.2429 -0.6180 -0.7477
vn -0.2429 -0.6180 -0.7477
vn -0.6360 -0.6180 -0.4621
vn -0.7862 -0.6180 0.0000
vn -0.6360 -0.6180 0.4621
vn -0.2429 -0.6180 0.7477
vn 0.2429 -0.6180 0.7477
vn 0.6360 -0.6180 0.4621
vn 0.4752 -0.8093 -0.3453
vn 0.5874 -0.8093 -0.0000
vn 0.1815 -0.8093 -0.5587
vn -0.1815 -0.8093 -0.5587
vn -0.4752 -0.8093 -0.3453
vn -0.5874 -0.8093 0.0000
vn -0.4752 -0.8093 0.3453
vn -0.1815 -0.8093 0.5587
vn 0.1815 -0.8093 0.5587
vn 0.4752 -0.8093 0.3453
vn 0.7919 -0.2045 -0.5754
vn 0.9789 -0.2045 -0.0000
vn 0.3025 -0.2045 -0.9309
vn -0.3025 -0.2045 -0.9309
vn -0.7919 -0.2045 -0.5754
vn -0.9789 -0.2045 0.0000
vn -0.7919 -0.2045 0.5754
vn -0.3025 -0.2045 0.9309
vn 0.3025 -0.2045 0.9309
vn 0.7919 -0.2045 0.5754
vn 0.9392 0.3433 -0.0000
vn 0.7599 0.3433 -0.5521
vn 0.6395 0.6126 -0.4646
vn 0.7904 0.6126 -0.0000
vn 0.2902 0.3433 -0.8933
vn 0.2443 0.6126 -0.7517
vn -0.2902 0.3433 -0.8933
vn -0.2443 0.6126 -0.7517
vn -0.7599 0.3433 -0.5521
vn -0.6395 0.6126 -0.4646
vn -0.9392 0.3433 0.0000
vn -0.7904 0.6126 0.0000
vn -0.7599 0.3433 0.5521
vn -0.6395 0.6126 0.4646
vn -0.2902 0.3433 0.8933
vn -0.2443 0.6126 0.7517
vn 0.2902 0.3433 0.8933
vn 0.2443 0.6126 0.7517
vn 0.7599 0.3433 0.5521
vn 0.6395 0.6126 0.4646
vn 0.4122 0.8605 -0.2995
vn 0.5095 0.8605 -0.0000
vn 0.1575 0.8605 -0.4846
vn -0.1575 0.8605 -0.4846
vn -0.4122 0.8605 -0.2995
vn -0.5095 0.8605 0.0000
vn -0.4122 0.8605 0.2995
vn -0.1575 0.8605 0.4846
vn 0.1575 0.8605 0.4846
vn 0.4122 0.8605 0.2995
vn 0.2573 0.9663 -0.0000
vn 0.2081 0.9663 -0.1512
vn 0.0000 1.0000 -0.0000
vn 0.0795 0.9663 -0.2447
vn -0.0795 0.9663 -0.2447
vn -0.2081 0.9663 -0.1512
vn -0.2573 0.9663 0.0000
vn -0.2081 0.9663 0.1512
vn -0.0795 0.9663 0.2447
vn 0.0795 0.9663 0.2447
vn 0.2081 0.9663 0.1512
# 111 vertex normals

vt 0.7500 0.0000 1.0000
vt 0.8500 0.0000 1.0000
vt 0.8500 0.3333 1.0000
vt 0.7500 0.3333 1.0000
vt 0.9500 0.0000 1.0000
vt 0.9500 0.3333 1.0000
vt -0.0500 0.0000 1.0000
vt 0.0500 0.0000 1.0000
vt 0.0500 0.3333 1.0000
vt -0.0500 0.3333 1.0000
vt 0.1500 0.0000 1.0000
vt 0.1500 0.3333 1.0000
vt 0.2500 0.0000 1.0000
vt 0.2500 0.3333 1.0000
vt 0.3500 0.0000 1.0000
vt 0.3500 0.3333 1.0000
vt 0.4500 0.0000 1.0000
vt 0.4500 0.3333 1.0000
vt 0.5500 0.0000 1.0000
vt 0.5500 0.3333 1.0000
vt 0.6500 0.0000 1.0000
vt 0.6500 0.3333 1.0000
vt 0.8500 0.6667 1.0000
vt 0.7500 0.6667 1.0000
vt 0.9500 0.6667 1.0000
vt 0.0500 0.6667 1.0000
vt -0.0500 0.6667 1.0000
vt 0.1500 0.6667 1.0000
vt 0.2500 0.6667 1.0000
vt 0.3500 0.6667 1.0000
vt 0.4500 0.6667 1.0000
vt 0.5500 0.6667 1.0000
vt 0.6500 0.6667 1.0000
vt 0.8500 0.8482 1.0000
vt 0.7500 0.8482 1.0000
vt 0.9500 0.8482 1.0000
vt 0.0500 0.8482 1.0000
vt -0.0500 0.8482 1.0000
vt 0.1500 0.8482 1.0000
vt 0.2500 0.8482 1.0000
vt 0.3500 0.8482 1.0000
vt 0.4500 0.8482 1.0000
vt 0.5500 0.8482 1.0000
vt 0.6500 0.8482 1.0000
vt 0.8500 1.0000 1.0000
vt 0.7500 1.0000 1.0000
vt 0.9500 1.0000 1.0000
vt 0.0500 1.0000 1.0000
vt -0.0500 1.0000 1.0000
vt 0.1500 1.0000 1.0000
vt 0.2500 1.0000 1.0000
vt 0.3500 1.0000 1.0000
vt 0.4500 1.0000 1.0000
vt 0.5500 1.0000 1.0000
vt 0.6500 1.0000 1.0000
vt 0.8781 1.0000 0.6180
vt 0.6618 1.0000 -0.0000
vt 0.3837 1.0000 -0.6180
vt 0.1500 1.0000 -1.0000
vt 0.0500 1.0000 -1.0000
vt 0.1219 1.0000 -0.6180
vt 0.4882 1.0000 0.0955
vt 0.7700 1.0000 0.3090
# 63 texture coords

o MushroomWide003
g MushroomWide003
usemtl wire_087225087
s 8
f 1/1/1 2/2/2 3/3/3 4/4/4 
f 2/2/2 5/5/5 6/6/6 3/3/3 
f 5/7/5 7/8/7 8/9/8 6/10/6 
f 7/8/7 9/11/9 10/12/10 8/9/8 
f 9/11/9 11/13/11 12/14/12 10/12/10 
f 11/13/11 13/15/13 14/16/14 12/14/12 
f 13/15/13 15/17/15 16/18/16 14/16/14 
f 15/17/15 17/19/17 18/20/18 16/18/16 
f 17/19/17 19/21/19 20/22/20 18/20/18 
f 19/21/19 1/1/1 4/4/4 20/22/20 
f 4/4/4 3/3/3 21/23/21 22/24/22 
f 3/3/3 6/6/6 23/25/23 21/23/21 
f 6/10/6 8/9/8 24/26/24 23/27/23 
f 8/9/8 10/12/10 25/28/25 24/26/24 
f 10/12/10 12/14/12 26/29/26 25/28/25 
f 12/14/12 14/16/14 27/30/27 26/29/26 
f 14/16/14 16/18/16 28/31/28 27/30/27 
f 16/18/16 18/20/18 29/32/29 28/31/28 
f 18/20/18 20/22/20 30/33/30 29/32/29 
f 20/22/20 4/4/4 22/24/22 30/33/30 
f 22/24/22 21/23/21 31/34/31 32/35/32 
f 21/23/21 23/25/23 33/36/33 31/34/31 
f 23/27/23 24/26/24 34/37/34 33/38/33 
f 24/26/24 25/28/25 35/39/35 34/37/34 
f 25/28/25 26/29/26 36/40/36 35/39/35 
f 26/29/26 27/30/27 37/41/37 36/40/36 
f 27/30/27 28/31/28 38/42/38 37/41/37 
f 28/31/28 29/32/29 39/43/39 38/42/38 
f 29/32/29 30/33/30 40/44/40 39/43/39 
f 30/33/30 22/24/22 32/35/32 40/44/40 
f 31/34/31 41/45/41 42/46/42 32/35/32 
f 33/36/33 43/47/43 41/45/41 31/34/31 
f 34/37/34 44/48/44 43/49/43 33/38/33 
f 35/39/35 45/50/45 44/48/44 34/37/34 
f 36/40/36 46/51/46 45/50/45 35/39/35 
f 37/41/37 47/52/47 46/51/46 36/40/36 
f 38/42/38 48/53/48 47/52/47 37/41/37 
f 39/43/39 49/54/49 48/53/48 38/42/38 
f 40/44/40 50/55/50 49/54/49 39/43/39 
f 32/35/32 42/46/42 50/55/50 40/44/40 
s 1
f 42/46/42 41/45/41 51/45/51 52/46/52 
f 41/45/41 43/47/43 53/47/53 51/45/51 
f 43/47/43 44/56/44 54/56/54 53/47/53 
f 44/56/44 45/57/45 55/57/55 54/56/54 
f 45/57/45 46/58/46 56/58/56 55/57/55 
f 46/58/46 47/59/47 57/59/57 56/58/56 
f 47/59/47 48/60/48 58/60/58 57/59/57 
f 48/60/48 49/61/49 59/61/59 58/60/58 
f 49/61/49 50/55/50 60/55/60 59/61/59 
f 50/55/50 42/46/42 52/46/52 60/55/60 
s 2
f 52/46/52 51/45/51 61/45/61 62/46/62 
f 51/45/51 53/47/53 63/47/63 61/45/61 
f 53/47/53 54/56/54 64/56/64 63/47/63 
f 54/56/54 55/57/55 65/57/65 64/56/64 
f 55/57/55 56/58/56 66/58/66 65/57/65 
f 56/58/56 57/59/57 67/59/67 66/58/66 
f 57/59/57 58/60/58 68/60/68 67/59/67 
f 58/60/58 59/61/59 69/61/69 68/60/68 
f 59/61/59 60/55/60 70/55/70 69/61/69 
f 60/55/60 52/46/52 62/46/62 70/55/70 
f 71/46/71 72/45/72 73/45/73 74/46/74 
f 72/45/72 75/47/75 76/47/76 73/45/73 
f 75/47/75 77/56/77 78/56/78 76/47/76 
f 77/56/77 79/57/79 80/57/80 78/56/78 
f 79/57/79 81/58/81 82/58/82 80/57/80 
f 81/58/81 83/59/83 84/59/84 82/58/82 
f 83/59/83 85/60/85 86/60/86 84/59/84 
f 85/60/85 87/61/87 88/61/88 86/60/86 
f 87/61/87 89/55/89 90/55/90 88/61/88 
f 89/55/89 71/46/71 74/46/74 90/55/90 
f 74/46/74 73/45/73 91/45/91 92/46/92 
f 73/45/73 76/47/76 93/47/93 91/45/91 
f 76/47/76 78/56/78 94/56/94 93/47/93 
f 78/56/78 80/57/80 95/57/95 94/56/94 
f 80/57/80 82/58/82 96/58/96 95/57/95 
f 82/58/82 84/59/84 97/59/97 96/58/96 
f 84/59/84 86/60/86 98/60/98 97/59/97 
f 86/60/86 88/61/88 99/61/99 98/60/98 
f 88/61/88 90/55/90 100/55/100 99/61/99 
f 90/55/90 74/46/74 92/46/92 100/55/100 
f 101/46/101 102/45/102 103/62/103 
f 102/45/102 104/47/104 103/62/103 
f 104/47/104 105/56/105 103/62/103 
f 105/56/105 106/57/106 103/63/103 
f 106/57/106 107/58/107 103/63/103 
f 107/58/107 108/59/108 103/62/103 
f 108/59/108 109/60/109 103/62/103 
f 109/60/109 110/61/110 103/62/103 
f 110/61/110 111/55/111 103/62/103 
f 111/55/111 101/46/101 103/62/103 
f 91/45/91 102/45/102 101/46/101 92/46/92 
f 93/47/93 104/47/104 102/45/102 91/45/91 
f 94/56/94 105/56/105 104/47/104 93/47/93 
f 95/57/95 106/57/106 105/56/105 94/56/94 
f 96/58/96 107/58/107 106/57/106 95/57/95 
f 97/59/97 108/59/108 107/58/107 96/58/96 
f 98/60/98 109/60/109 108/59/108 97/59/97 
f 99/61/99 110/61/110 109/60/109 98/60/98 
f 100/55/100 111/55/111 110/61/110 99/61/99 
f 92/46/92 101/46/101 111/55/111 100/55/100 
f 61/45/61 72/45/72 71/46/71 62/46/62 
f 63/47/63 75/47/75 72/45/72 61/45/61 
f 64/56/64 77/56/77 75/47/75 63/47/63 
f 65/57/65 79/57/79 77/56/77 64/56/64 
f 66/58/66 81/58/81 79/57/79 65/57/65 
f 67/59/67 83/59/83 81/58/81 66/58/66 
f 68/60/68 85/60/85 83/59/83 67/59/67 
f 69/61/69 87/61/87 85/60/85 68/60/68 
f 70/55/70 89/55/89 87/61/87 69/61/69 
f 62/46/62 71/46/71 89/55/89 70/55/70 
# 100 polygons - 10 triangles

