# 3ds Max Wavefront OBJ Exporter v0.99 - (c)2007 guruware
# File Created: 09.11.2023 12:06:46

mtllib MushFatL.mtl

#
# object MushroomWide
#

v  2234.5103 0.0000 808.7604
v  2217.8586 0.0000 757.5115
v  2224.6831 15.2179 752.5532
v  2242.9458 15.2179 808.7604
v  2174.2637 0.0000 725.8380
v  2176.8704 15.2179 717.8152
v  2120.3774 0.0000 725.8380
v  2117.7708 15.2179 717.8153
v  2076.7825 0.0000 757.5115
v  2069.9580 15.2179 752.5532
v  2060.1309 0.0000 808.7604
v  2051.6953 15.2179 808.7604
v  2076.7827 0.0000 860.0092
v  2069.9580 15.2179 864.9675
v  2120.3774 0.0000 891.6827
v  2117.7708 15.2179 899.7054
v  2174.2637 0.0000 891.6827
v  2176.8704 15.2179 899.7054
v  2217.8586 0.0000 860.0092
v  2224.6831 15.2179 864.9675
v  2232.1902 57.9918 747.0991
v  2252.2251 57.9918 808.7604
v  2179.7378 57.9918 708.9902
v  2114.9033 57.9918 708.9903
v  2062.4509 57.9918 747.0991
v  2042.4160 57.9918 808.7604
v  2062.4509 57.9918 870.4217
v  2114.9033 57.9918 908.5305
v  2179.7378 57.9918 908.5305
v  2232.1902 57.9918 870.4216
v  2230.8643 106.3402 748.0624
v  2250.5862 106.3402 808.7604
v  2179.2314 106.3402 710.5489
v  2115.4097 106.3402 710.5489
v  2063.7769 106.3402 748.0624
v  2044.0549 106.3402 808.7604
v  2063.7769 106.3402 869.4584
v  2115.4097 106.3402 906.9719
v  2179.2314 106.3402 906.9719
v  2230.8643 106.3402 869.4584
v  2211.0737 222.7718 762.4410
v  2226.1238 222.7718 808.7604
v  2171.6721 222.7718 733.8141
v  2122.9690 222.7718 733.8141
v  2083.5674 222.7718 762.4411
v  2068.5173 222.7718 808.7604
v  2083.5676 222.7718 855.0797
v  2122.9690 222.7718 883.7066
v  2171.6721 222.7718 883.7066
v  2211.0737 222.7718 855.0797
v  2256.3010 235.5173 729.5814
v  2282.0278 235.5173 808.7604
v  2188.9475 235.5173 680.6461
v  2105.6936 235.5173 680.6461
v  2038.3401 235.5173 729.5814
v  2012.6133 235.5173 808.7604
v  2038.3401 235.5173 887.9393
v  2105.6936 235.5173 936.8746
v  2188.9475 235.5173 936.8746
v  2256.3010 235.5173 887.9393
v  2267.4812 249.0784 721.4586
v  2295.8472 249.0784 808.7604
v  2193.2178 249.0784 667.5031
v  2101.4233 249.0784 667.5031
v  2027.1599 249.0784 721.4586
v  1998.7939 249.0784 808.7604
v  2027.1599 249.0784 896.0622
v  2101.4233 249.0784 950.0176
v  2193.2178 249.0784 950.0176
v  2267.4812 249.0784 896.0621
v  2282.0278 305.6328 808.7604
v  2256.3010 305.6328 729.5814
v  2237.9192 351.2689 742.9367
v  2259.3064 351.2689 808.7604
v  2188.9475 305.6328 680.6461
v  2181.9260 351.2689 702.2554
v  2105.6936 305.6328 680.6461
v  2112.7151 351.2689 702.2554
v  2038.3401 305.6328 729.5814
v  2056.7219 351.2689 742.9367
v  2012.6133 305.6328 808.7604
v  2035.3346 351.2689 808.7604
v  2038.3401 305.6328 887.9393
v  2056.7219 351.2689 874.5840
v  2105.6936 305.6328 936.8746
v  2112.7151 351.2689 915.2653
v  2188.9475 305.6328 936.8746
v  2181.9260 351.2689 915.2653
v  2256.3010 305.6328 887.9393
v  2237.9192 351.2689 874.5840
v  2217.2246 371.1694 757.9722
v  2233.7266 371.1694 808.7604
v  2174.0215 371.1694 726.5833
v  2120.6196 371.1694 726.5833
v  2077.4165 371.1694 757.9722
v  2060.9146 371.1694 808.7604
v  2077.4165 371.1694 859.5486
v  2120.6196 371.1694 890.9374
v  2174.0215 371.1694 890.9374
v  2217.2246 371.1694 859.5486
v  2202.0015 382.9832 808.7604
v  2191.5583 382.9832 776.6197
v  2147.3206 390.1936 808.7604
v  2164.2180 382.9832 756.7557
v  2130.4231 382.9832 756.7557
v  2103.0828 382.9832 776.6197
v  2092.6396 382.9832 808.7604
v  2103.0828 382.9832 840.9011
v  2130.4231 382.9832 860.7651
v  2164.2180 382.9832 860.7651
v  2191.5583 382.9832 840.9011
# 111 vertices

vn 0.8746 -0.4848 -0.0000
vn 0.7076 -0.4848 -0.5141
vn 0.7599 -0.3430 -0.5521
vn 0.9393 -0.3430 -0.0000
vn 0.2703 -0.4848 -0.8318
vn 0.2903 -0.3430 -0.8933
vn -0.2703 -0.4848 -0.8318
vn -0.2903 -0.3430 -0.8933
vn -0.7076 -0.4848 -0.5141
vn -0.7599 -0.3430 -0.5521
vn -0.8746 -0.4848 0.0000
vn -0.9393 -0.3430 0.0000
vn -0.7076 -0.4848 0.5141
vn -0.7599 -0.3430 0.5521
vn -0.2703 -0.4848 0.8318
vn -0.2903 -0.3430 0.8933
vn 0.2703 -0.4848 0.8318
vn 0.2903 -0.3430 0.8933
vn 0.7076 -0.4848 0.5141
vn 0.7599 -0.3430 0.5521
vn 0.8059 -0.0877 -0.5855
vn 0.9962 -0.0877 0.0000
vn 0.3078 -0.0877 -0.9474
vn -0.3078 -0.0877 -0.9474
vn -0.8059 -0.0877 -0.5855
vn -0.9962 -0.0877 0.0000
vn -0.8059 -0.0877 0.5855
vn -0.3078 -0.0877 0.9474
vn 0.3078 -0.0877 0.9474
vn 0.8059 -0.0877 0.5855
vn 0.8033 0.1182 -0.5837
vn 0.9930 0.1182 -0.0000
vn 0.3069 0.1182 -0.9444
vn -0.3069 0.1182 -0.9444
vn -0.8033 0.1182 -0.5837
vn -0.9930 0.1182 0.0000
vn -0.8033 0.1182 0.5837
vn -0.3069 0.1182 0.9444
vn 0.3069 0.1182 0.9444
vn 0.8033 0.1182 0.5837
vn 0.6393 -0.6129 -0.4645
vn 0.7902 -0.6129 -0.0000
vn 0.2442 -0.6129 -0.7515
vn -0.2442 -0.6129 -0.7515
vn -0.6393 -0.6129 -0.4645
vn -0.7902 -0.6129 0.0000
vn -0.6393 -0.6129 0.4645
vn -0.2442 -0.6129 0.7515
vn 0.2442 -0.6129 0.7515
vn 0.6393 -0.6129 0.4645
vn 0.4200 -0.8547 -0.3051
vn 0.5191 -0.8547 -0.0000
vn 0.1604 -0.8547 -0.4937
vn -0.1604 -0.8547 -0.4937
vn -0.4200 -0.8547 -0.3051
vn -0.5191 -0.8547 0.0000
vn -0.4200 -0.8547 0.3051
vn -0.1604 -0.8547 0.4937
vn 0.1604 -0.8547 0.4937
vn 0.4200 -0.8547 0.3051
vn 0.7830 -0.2514 -0.5689
vn 0.9679 -0.2514 -0.0000
vn 0.2991 -0.2514 -0.9205
vn -0.2991 -0.2514 -0.9205
vn -0.7830 -0.2514 -0.5689
vn -0.9679 -0.2514 0.0000
vn -0.7830 -0.2514 0.5689
vn -0.2991 -0.2514 0.9205
vn 0.2991 -0.2514 0.9205
vn 0.7830 -0.2514 0.5689
vn 0.9416 0.3368 -0.0000
vn 0.7618 0.3368 -0.5534
vn 0.6395 0.6126 -0.4646
vn 0.7904 0.6126 -0.0000
vn 0.2910 0.3368 -0.8955
vn 0.2443 0.6126 -0.7517
vn -0.2910 0.3368 -0.8955
vn -0.2443 0.6126 -0.7517
vn -0.7618 0.3368 -0.5534
vn -0.6395 0.6126 -0.4646
vn -0.9416 0.3368 0.0000
vn -0.7904 0.6126 0.0000
vn -0.7618 0.3368 0.5534
vn -0.6395 0.6126 0.4646
vn -0.2910 0.3368 0.8955
vn -0.2443 0.6126 0.7517
vn 0.2910 0.3368 0.8955
vn 0.2443 0.6126 0.7517
vn 0.7618 0.3368 0.5534
vn 0.6395 0.6126 0.4646
vn 0.4122 0.8605 -0.2995
vn 0.5095 0.8605 -0.0000
vn 0.1575 0.8605 -0.4846
vn -0.1575 0.8605 -0.4846
vn -0.4122 0.8605 -0.2995
vn -0.5095 0.8605 0.0000
vn -0.4122 0.8605 0.2995
vn -0.1575 0.8605 0.4846
vn 0.1575 0.8605 0.4846
vn 0.4122 0.8605 0.2995
vn 0.2623 0.9650 -0.0000
vn 0.2122 0.9650 -0.1542
vn -0.0000 1.0000 -0.0000
vn 0.0811 0.9650 -0.2495
vn -0.0811 0.9650 -0.2495
vn -0.2122 0.9650 -0.1542
vn -0.2623 0.9650 0.0000
vn -0.2122 0.9650 0.1542
vn -0.0811 0.9650 0.2495
vn 0.0811 0.9650 0.2495
vn 0.2122 0.9650 0.1542
# 111 vertex normals

vt 0.7500 0.0000 1.0000
vt 0.8500 0.0000 1.0000
vt 0.8500 0.3333 1.0000
vt 0.7500 0.3333 1.0000
vt 0.9500 0.0000 1.0000
vt 0.9500 0.3333 1.0000
vt -0.0500 0.0000 1.0000
vt 0.0500 0.0000 1.0000
vt 0.0500 0.3333 1.0000
vt -0.0500 0.3333 1.0000
vt 0.1500 0.0000 1.0000
vt 0.1500 0.3333 1.0000
vt 0.2500 0.0000 1.0000
vt 0.2500 0.3333 1.0000
vt 0.3500 0.0000 1.0000
vt 0.3500 0.3333 1.0000
vt 0.4500 0.0000 1.0000
vt 0.4500 0.3333 1.0000
vt 0.5500 0.0000 1.0000
vt 0.5500 0.3333 1.0000
vt 0.6500 0.0000 1.0000
vt 0.6500 0.3333 1.0000
vt 0.8500 0.6667 1.0000
vt 0.7500 0.6667 1.0000
vt 0.9500 0.6667 1.0000
vt 0.0500 0.6667 1.0000
vt -0.0500 0.6667 1.0000
vt 0.1500 0.6667 1.0000
vt 0.2500 0.6667 1.0000
vt 0.3500 0.6667 1.0000
vt 0.4500 0.6667 1.0000
vt 0.5500 0.6667 1.0000
vt 0.6500 0.6667 1.0000
vt 0.8500 0.8482 1.0000
vt 0.7500 0.8482 1.0000
vt 0.9500 0.8482 1.0000
vt 0.0500 0.8482 1.0000
vt -0.0500 0.8482 1.0000
vt 0.1500 0.8482 1.0000
vt 0.2500 0.8482 1.0000
vt 0.3500 0.8482 1.0000
vt 0.4500 0.8482 1.0000
vt 0.5500 0.8482 1.0000
vt 0.6500 0.8482 1.0000
vt 0.8500 1.0000 1.0000
vt 0.7500 1.0000 1.0000
vt 0.9500 1.0000 1.0000
vt 0.0500 1.0000 1.0000
vt -0.0500 1.0000 1.0000
vt 0.1500 1.0000 1.0000
vt 0.2500 1.0000 1.0000
vt 0.3500 1.0000 1.0000
vt 0.4500 1.0000 1.0000
vt 0.5500 1.0000 1.0000
vt 0.6500 1.0000 1.0000
vt 0.8781 1.0000 0.6180
vt 0.6618 1.0000 -0.0000
vt 0.3837 1.0000 -0.6180
vt 0.1500 1.0000 -1.0000
vt 0.0500 1.0000 -1.0000
vt 0.1219 1.0000 -0.6180
vt 0.4882 1.0000 0.0955
vt 0.7700 1.0000 0.3090
# 63 texture coords

o MushroomWide
g MushroomWide
usemtl wire_087225087
s 1
f 1/1/1 2/2/2 3/3/3 4/4/4 
f 2/2/2 5/5/5 6/6/6 3/3/3 
f 5/7/5 7/8/7 8/9/8 6/10/6 
f 7/8/7 9/11/9 10/12/10 8/9/8 
f 9/11/9 11/13/11 12/14/12 10/12/10 
f 11/13/11 13/15/13 14/16/14 12/14/12 
f 13/15/13 15/17/15 16/18/16 14/16/14 
f 15/17/15 17/19/17 18/20/18 16/18/16 
f 17/19/17 19/21/19 20/22/20 18/20/18 
f 19/21/19 1/1/1 4/4/4 20/22/20 
f 4/4/4 3/3/3 21/23/21 22/24/22 
f 3/3/3 6/6/6 23/25/23 21/23/21 
f 6/10/6 8/9/8 24/26/24 23/27/23 
f 8/9/8 10/12/10 25/28/25 24/26/24 
f 10/12/10 12/14/12 26/29/26 25/28/25 
f 12/14/12 14/16/14 27/30/27 26/29/26 
f 14/16/14 16/18/16 28/31/28 27/30/27 
f 16/18/16 18/20/18 29/32/29 28/31/28 
f 18/20/18 20/22/20 30/33/30 29/32/29 
f 20/22/20 4/4/4 22/24/22 30/33/30 
f 22/24/22 21/23/21 31/34/31 32/35/32 
f 21/23/21 23/25/23 33/36/33 31/34/31 
f 23/27/23 24/26/24 34/37/34 33/38/33 
f 24/26/24 25/28/25 35/39/35 34/37/34 
f 25/28/25 26/29/26 36/40/36 35/39/35 
f 26/29/26 27/30/27 37/41/37 36/40/36 
f 27/30/27 28/31/28 38/42/38 37/41/37 
f 28/31/28 29/32/29 39/43/39 38/42/38 
f 29/32/29 30/33/30 40/44/40 39/43/39 
f 30/33/30 22/24/22 32/35/32 40/44/40 
f 31/34/31 41/45/41 42/46/42 32/35/32 
f 33/36/33 43/47/43 41/45/41 31/34/31 
f 34/37/34 44/48/44 43/49/43 33/38/33 
f 35/39/35 45/50/45 44/48/44 34/37/34 
f 36/40/36 46/51/46 45/50/45 35/39/35 
f 37/41/37 47/52/47 46/51/46 36/40/36 
f 38/42/38 48/53/48 47/52/47 37/41/37 
f 39/43/39 49/54/49 48/53/48 38/42/38 
f 40/44/40 50/55/50 49/54/49 39/43/39 
f 32/35/32 42/46/42 50/55/50 40/44/40 
s 2
f 42/46/42 41/45/41 51/45/51 52/46/52 
f 41/45/41 43/47/43 53/47/53 51/45/51 
f 43/47/43 44/56/44 54/56/54 53/47/53 
f 44/56/44 45/57/45 55/57/55 54/56/54 
f 45/57/45 46/58/46 56/58/56 55/57/55 
f 46/58/46 47/59/47 57/59/57 56/58/56 
f 47/59/47 48/60/48 58/60/58 57/59/57 
f 48/60/48 49/61/49 59/61/59 58/60/58 
f 49/61/49 50/55/50 60/55/60 59/61/59 
f 50/55/50 42/46/42 52/46/52 60/55/60 
s 1
f 52/46/52 51/45/51 61/45/61 62/46/62 
f 51/45/51 53/47/53 63/47/63 61/45/61 
f 53/47/53 54/56/54 64/56/64 63/47/63 
f 54/56/54 55/57/55 65/57/65 64/56/64 
f 55/57/55 56/58/56 66/58/66 65/57/65 
f 56/58/56 57/59/57 67/59/67 66/58/66 
f 57/59/57 58/60/58 68/60/68 67/59/67 
f 58/60/58 59/61/59 69/61/69 68/60/68 
f 59/61/59 60/55/60 70/55/70 69/61/69 
f 60/55/60 52/46/52 62/46/62 70/55/70 
f 71/46/71 72/45/72 73/45/73 74/46/74 
f 72/45/72 75/47/75 76/47/76 73/45/73 
f 75/47/75 77/56/77 78/56/78 76/47/76 
f 77/56/77 79/57/79 80/57/80 78/56/78 
f 79/57/79 81/58/81 82/58/82 80/57/80 
f 81/58/81 83/59/83 84/59/84 82/58/82 
f 83/59/83 85/60/85 86/60/86 84/59/84 
f 85/60/85 87/61/87 88/61/88 86/60/86 
f 87/61/87 89/55/89 90/55/90 88/61/88 
f 89/55/89 71/46/71 74/46/74 90/55/90 
f 74/46/74 73/45/73 91/45/91 92/46/92 
f 73/45/73 76/47/76 93/47/93 91/45/91 
f 76/47/76 78/56/78 94/56/94 93/47/93 
f 78/56/78 80/57/80 95/57/95 94/56/94 
f 80/57/80 82/58/82 96/58/96 95/57/95 
f 82/58/82 84/59/84 97/59/97 96/58/96 
f 84/59/84 86/60/86 98/60/98 97/59/97 
f 86/60/86 88/61/88 99/61/99 98/60/98 
f 88/61/88 90/55/90 100/55/100 99/61/99 
f 90/55/90 74/46/74 92/46/92 100/55/100 
f 101/46/101 102/45/102 103/62/103 
f 102/45/102 104/47/104 103/62/103 
f 104/47/104 105/56/105 103/62/103 
f 105/56/105 106/57/106 103/63/103 
f 106/57/106 107/58/107 103/63/103 
f 107/58/107 108/59/108 103/62/103 
f 108/59/108 109/60/109 103/62/103 
f 109/60/109 110/61/110 103/62/103 
f 110/61/110 111/55/111 103/62/103 
f 111/55/111 101/46/101 103/62/103 
f 91/45/91 102/45/102 101/46/101 92/46/92 
f 93/47/93 104/47/104 102/45/102 91/45/91 
f 94/56/94 105/56/105 104/47/104 93/47/93 
f 95/57/95 106/57/106 105/56/105 94/56/94 
f 96/58/96 107/58/107 106/57/106 95/57/95 
f 97/59/97 108/59/108 107/58/107 96/58/96 
f 98/60/98 109/60/109 108/59/108 97/59/97 
f 99/61/99 110/61/110 109/60/109 98/60/98 
f 100/55/100 111/55/111 110/61/110 99/61/99 
f 92/46/92 101/46/101 111/55/111 100/55/100 
f 61/45/61 72/45/72 71/46/71 62/46/62 
f 63/47/63 75/47/75 72/45/72 61/45/61 
f 64/56/64 77/56/77 75/47/75 63/47/63 
f 65/57/65 79/57/79 77/56/77 64/56/64 
f 66/58/66 81/58/81 79/57/79 65/57/65 
f 67/59/67 83/59/83 81/58/81 66/58/66 
f 68/60/68 85/60/85 83/59/83 67/59/67 
f 69/61/69 87/61/87 85/60/85 68/60/68 
f 70/55/70 89/55/89 87/61/87 69/61/69 
f 62/46/62 71/46/71 89/55/89 70/55/70 
# 100 polygons - 10 triangles

