# 3ds Max Wavefront OBJ Exporter v0.99 - (c)2007 guruware
# File Created: 09.11.2023 12:18:27

mtllib MushTall2.mtl

#
# object MushroomTall001
#

v  1278.0930 0.8110 465.2113
v  1274.4119 0.8110 456.3243
v  1278.3420 9.1937 452.3942
v  1283.6510 9.1937 465.2113
v  1265.5249 0.8110 452.6432
v  1265.5249 9.1937 447.0851
v  1256.6379 0.8110 456.3243
v  1252.7078 9.1937 452.3942
v  1252.9568 0.8110 465.2113
v  1247.3988 9.1937 465.2113
v  1256.6379 0.8110 474.0982
v  1252.7078 9.1937 478.0284
v  1265.5249 0.8110 477.7794
v  1265.5249 9.1937 483.3374
v  1274.4119 0.8110 474.0982
v  1278.3420 9.1937 478.0284
v  1266.9420 174.8788 454.1250
v  1271.5341 174.8788 465.2113
v  1255.8557 174.8788 449.5329
v  1244.7694 174.8788 454.1250
v  1240.1774 174.8788 465.2113
v  1244.7694 174.8788 476.2976
v  1255.8557 174.8788 480.8897
v  1266.9420 174.8788 476.2976
v  1296.3729 698.2814 465.2113
v  1293.7797 698.7908 458.8310
v  1345.5535 704.4033 409.1099
v  1368.3557 699.9243 465.2113
v  1287.5190 700.0206 456.1882
v  1290.5040 715.2167 385.8719
v  1281.2584 701.2504 458.8310
v  1235.4546 726.0302 409.1099
v  1278.6652 701.7598 465.2113
v  1212.6523 730.5093 465.2113
v  1281.2584 701.2504 471.5916
v  1235.4546 726.0302 521.3127
v  1287.5190 700.0206 474.2343
v  1290.5040 715.2167 544.5507
v  1293.7797 698.7908 471.5916
v  1345.5535 704.4033 521.3127
v  1346.5270 725.6586 412.2515
v  1368.0522 721.4303 465.2113
v  1294.5603 735.8664 390.3148
v  1242.5935 746.0743 412.2515
v  1221.0682 750.3026 465.2113
v  1242.5935 746.0743 518.1711
v  1294.5603 735.8664 540.1077
v  1346.5270 725.6586 518.1711
v  1362.2217 743.4313 465.2113
v  1343.5594 747.0971 419.2956
v  1333.9773 764.5044 432.0532
v  1347.4543 761.8571 465.2113
v  1298.5048 755.9473 400.2767
v  1301.4410 770.8955 418.3187
v  1253.4501 764.7974 419.2956
v  1268.9048 777.2866 432.0532
v  1234.7878 768.4632 465.2113
v  1255.4277 779.9339 465.2113
v  1253.4501 764.7974 511.1270
v  1268.9048 777.2866 498.3693
v  1298.5048 755.9473 530.1459
v  1301.4410 770.8955 512.1038
v  1343.5594 747.0971 511.1270
v  1333.9773 764.5044 498.3693
v  1329.3475 774.0491 465.2113
v  1321.6522 775.5606 446.2783
v  1303.8781 783.3020 465.2113
v  1303.0742 779.2100 438.4359
v  1284.4962 782.8593 446.2783
v  1276.8010 784.3708 465.2113
v  1284.4962 782.8593 484.1443
v  1303.0742 779.2100 491.9866
v  1321.6522 775.5606 484.1443
v  1279.9628 615.0679 457.7942
v  1282.9972 614.5875 465.2113
v  1272.6370 616.2277 454.7220
v  1265.3112 617.3875 457.7942
v  1262.2767 617.8679 465.2113
v  1265.3112 617.3875 472.6283
v  1272.6370 616.2277 475.7006
v  1279.9628 615.0679 472.6283
v  1262.1459 422.4747 456.3265
v  1268.1801 520.5784 456.8973
v  1271.5995 520.1704 465.2113
v  1265.8260 422.4747 465.2113
v  1253.2611 422.4747 452.6463
v  1259.9246 521.5634 453.4535
v  1244.3763 422.4747 456.3265
v  1251.6691 522.5483 456.8973
v  1240.6962 422.4747 465.2113
v  1248.2496 522.9563 465.2113
v  1244.3763 422.4747 474.0960
v  1251.6691 522.5483 473.5253
v  1253.2611 422.4747 477.7762
v  1259.9246 521.5634 476.9691
v  1262.1459 422.4747 474.0960
v  1268.1801 520.5784 473.5253
v  1262.0288 313.6899 455.7422
v  1265.9454 313.8986 465.2113
v  1252.5731 313.1862 451.8200
v  1243.1174 312.6824 455.7422
v  1239.2008 312.4738 465.2113
v  1243.1174 312.6824 474.6803
v  1252.5731 313.1862 478.6025
v  1262.0288 313.6899 474.6803
# 105 vertices

vn 0.8334 -0.5526 -0.0000
vn 0.5893 -0.5526 -0.5893
vn 0.6896 -0.2439 -0.6819
vn 0.9718 -0.2360 -0.0000
vn -0.0000 -0.5526 -0.8334
vn 0.0078 -0.2634 -0.9647
vn -0.5893 -0.5526 -0.5893
vn -0.6742 -0.2833 -0.6821
vn -0.8334 -0.5526 0.0000
vn -0.9565 -0.2917 0.0000
vn -0.5893 -0.5526 0.5893
vn -0.6742 -0.2833 0.6821
vn -0.0000 -0.5526 0.8334
vn 0.0078 -0.2634 0.9647
vn 0.5893 -0.5526 0.5893
vn 0.6896 -0.2439 0.6819
vn 0.7042 0.0445 -0.7086
vn 0.9984 0.0568 -0.0000
vn -0.0043 0.0153 -0.9999
vn -0.7091 -0.0135 -0.7050
vn -0.9997 -0.0252 -0.0000
vn -0.7091 -0.0135 0.7050
vn -0.0043 0.0153 0.9999
vn 0.7042 0.0445 0.7086
vn 0.5649 -0.8252 -0.0000
vn 0.3571 -0.7862 -0.5044
vn 0.5185 -0.5869 -0.6219
vn 0.7712 -0.6366 0.0000
vn -0.1387 -0.6934 -0.7071
vn -0.0917 -0.4671 -0.8794
vn -0.6259 -0.6021 -0.4957
vn -0.7019 -0.3472 -0.6219
vn -0.8253 -0.5647 0.0000
vn -0.9547 -0.2976 -0.0000
vn -0.6259 -0.6021 0.4957
vn -0.7019 -0.3472 0.6219
vn -0.1387 -0.6934 0.7071
vn -0.0917 -0.4671 0.8794
vn 0.3570 -0.7862 0.5044
vn 0.5185 -0.5869 0.6219
vn 0.7192 0.1805 -0.6709
vn 0.9919 0.1269 -0.0000
vn 0.0609 0.3098 -0.9488
vn -0.5975 0.4391 -0.6709
vn -0.8702 0.4927 -0.0000
vn -0.5975 0.4391 0.6709
vn 0.0609 0.3098 0.9488
vn 0.7192 0.1805 0.6709
vn 0.9057 0.4240 -0.0000
vn 0.6737 0.4696 -0.5706
vn 0.5419 0.7455 -0.3880
vn 0.6996 0.7145 -0.0000
vn 0.1138 0.5796 -0.8069
vn 0.1611 0.8203 -0.5488
vn -0.4461 0.6895 -0.5706
vn -0.2196 0.8951 -0.3880
vn -0.6780 0.7351 0.0000
vn -0.3773 0.9261 0.0000
vn -0.4460 0.6895 0.5706
vn -0.2196 0.8951 0.3880
vn 0.1138 0.5796 0.8069
vn 0.1611 0.8203 0.5488
vn 0.6737 0.4696 0.5706
vn 0.5419 0.7455 0.3880
vn 0.4789 0.8779 -0.0000
vn 0.3925 0.8949 -0.2126
vn 0.1927 0.9812 -0.0000
vn 0.1838 0.9358 -0.3007
vn -0.0248 0.9768 -0.2126
vn -0.1112 0.9938 -0.0000
vn -0.0248 0.9768 0.2126
vn 0.1838 0.9358 0.3007
vn 0.3925 0.8949 0.2126
vn 0.6984 -0.0933 -0.7096
vn 0.9903 -0.1388 -0.0000
vn -0.0027 0.0158 -0.9999
vn -0.6988 0.1243 -0.7045
vn -0.9856 0.1689 0.0000
vn -0.6988 0.1243 0.7045
vn -0.0027 0.0158 0.9999
vn 0.6984 -0.0933 0.7096
vn 0.7032 -0.0180 -0.7108
vn 0.7007 -0.0597 -0.7110
vn 0.9960 -0.0892 0.0000
vn 0.9996 -0.0292 -0.0000
vn -0.0074 0.0084 -0.9999
vn -0.0068 0.0113 -0.9999
vn -0.7103 0.0338 -0.7031
vn -0.7064 0.0817 -0.7031
vn -0.9990 0.0440 -0.0000
vn -0.9939 0.1107 -0.0000
vn -0.7103 0.0338 0.7031
vn -0.7064 0.0817 0.7031
vn -0.0074 0.0084 0.9999
vn -0.0068 0.0113 0.9999
vn 0.7032 -0.0180 0.7108
vn 0.7007 -0.0597 0.7110
vn 0.7051 0.0181 -0.7089
vn 0.9998 0.0205 -0.0000
vn -0.0042 0.0122 -0.9999
vn -0.7094 0.0058 -0.7048
vn -1.0000 0.0031 0.0000
vn -0.7094 0.0058 0.7048
vn -0.0042 0.0122 0.9999
vn 0.7051 0.0181 0.7089
# 105 vertex normals

vt 0.7500 0.0000 1.0000
vt 0.8750 0.0000 1.0000
vt 0.8750 0.5000 1.0000
vt 0.7500 0.5000 1.0000
vt -0.1250 0.0000 1.0000
vt 0.0000 0.0000 1.0000
vt 0.0000 0.5000 1.0000
vt -0.1250 0.5000 1.0000
vt 0.1250 0.0000 1.0000
vt 0.1250 0.5000 1.0000
vt 0.2500 0.0000 1.0000
vt 0.2500 0.5000 1.0000
vt 0.3750 0.0000 1.0000
vt 0.3750 0.5000 1.0000
vt 0.5000 0.0000 1.0000
vt 0.5000 0.5000 1.0000
vt 0.6250 0.0000 1.0000
vt 0.6250 0.5000 1.0000
vt 0.8750 0.6344 1.0000
vt 0.7500 0.6344 1.0000
vt 0.0000 0.6344 1.0000
vt -0.1250 0.6344 1.0000
vt 0.1250 0.6344 1.0000
vt 0.2500 0.6344 1.0000
vt 0.3750 0.6344 1.0000
vt 0.5000 0.6344 1.0000
vt 0.6250 0.6344 1.0000
vt 0.7500 1.0000 1.0000
vt 0.8750 1.0000 1.0000
vt 0.7803 1.0000 0.4142
vt 0.5214 1.0000 -0.4142
vt 0.2500 1.0000 -1.0000
vt 0.1250 1.0000 -1.0000
vt 0.2197 1.0000 -0.4142
vt 0.6250 1.0000 1.0000
vt 0.5183 1.0000 0.0732
vt 0.8750 0.9195 1.0000
vt 0.7500 0.9195 1.0000
vt 0.0000 0.9195 1.0000
vt 0.0000 1.0000 1.0000
vt -0.1250 1.0000 1.0000
vt -0.1250 0.9195 1.0000
vt 0.1250 0.9195 1.0000
vt 0.1250 1.0000 1.0000
vt 0.2500 0.9195 1.0000
vt 0.2500 1.0000 1.0000
vt 0.3750 0.9195 1.0000
vt 0.3750 1.0000 1.0000
vt 0.5000 0.9195 1.0000
vt 0.5000 1.0000 1.0000
vt 0.6250 0.9195 1.0000
vt 0.8750 0.8055 1.0000
vt 0.8750 0.8498 1.0000
vt 0.7500 0.8498 1.0000
vt 0.7500 0.8055 1.0000
vt 0.0000 0.8055 1.0000
vt 0.0000 0.8498 1.0000
vt -0.1250 0.8498 1.0000
vt -0.1250 0.8055 1.0000
vt 0.1250 0.8055 1.0000
vt 0.1250 0.8498 1.0000
vt 0.2500 0.8055 1.0000
vt 0.2500 0.8498 1.0000
vt 0.3750 0.8055 1.0000
vt 0.3750 0.8498 1.0000
vt 0.5000 0.8055 1.0000
vt 0.5000 0.8498 1.0000
vt 0.6250 0.8055 1.0000
vt 0.6250 0.8498 1.0000
vt 0.8750 0.7601 1.0000
vt 0.7500 0.7601 1.0000
vt 0.0000 0.7601 1.0000
vt -0.1250 0.7601 1.0000
vt 0.1250 0.7601 1.0000
vt 0.2500 0.7601 1.0000
vt 0.3750 0.7601 1.0000
vt 0.5000 0.7601 1.0000
vt 0.6250 0.7601 1.0000
# 78 texture coords

o MushroomTall001
g MushroomTall001
usemtl wire_088199225
s 2
f 1/1/1 2/2/2 3/3/3 4/4/4 
f 2/5/2 5/6/5 6/7/6 3/8/3 
f 5/6/5 7/9/7 8/10/8 6/7/6 
f 7/9/7 9/11/9 10/12/10 8/10/8 
f 9/11/9 11/13/11 12/14/12 10/12/10 
f 11/13/11 13/15/13 14/16/14 12/14/12 
f 13/15/13 15/17/15 16/18/16 14/16/14 
f 15/17/15 1/1/1 4/4/4 16/18/16 
f 4/4/4 3/3/3 17/19/17 18/20/18 
f 3/8/3 6/7/6 19/21/19 17/22/17 
f 6/7/6 8/10/8 20/23/20 19/21/19 
f 8/10/8 10/12/10 21/24/21 20/23/20 
f 10/12/10 12/14/12 22/25/22 21/24/21 
f 12/14/12 14/16/14 23/26/23 22/25/22 
f 14/16/14 16/18/16 24/27/24 23/26/23 
f 16/18/16 4/4/4 18/20/18 24/27/24 
s 4
f 25/28/25 26/29/26 27/29/27 28/28/28 
f 26/29/26 29/30/29 30/30/30 27/29/27 
f 29/30/29 31/31/31 32/31/32 30/30/30 
f 31/31/31 33/32/33 34/32/34 32/31/32 
f 33/32/33 35/33/35 36/33/36 34/32/34 
f 35/33/35 37/34/37 38/34/38 36/33/36 
f 37/34/37 39/35/39 40/35/40 38/34/38 
f 39/35/39 25/28/25 28/28/28 40/35/40 
s 2
f 28/28/28 27/29/27 41/29/41 42/28/42 
f 27/29/27 30/30/30 43/30/43 41/29/41 
f 30/30/30 32/31/32 44/31/44 43/30/43 
f 32/31/32 34/32/34 45/32/45 44/31/44 
f 34/32/34 36/33/36 46/33/46 45/32/45 
f 36/33/36 38/34/38 47/34/47 46/33/46 
f 38/34/38 40/35/40 48/35/48 47/34/47 
f 40/35/40 28/28/28 42/28/42 48/35/48 
f 49/28/49 50/29/50 51/29/51 52/28/52 
f 50/29/50 53/30/53 54/30/54 51/29/51 
f 53/30/53 55/31/55 56/31/56 54/30/54 
f 55/31/55 57/32/57 58/32/58 56/31/56 
f 57/32/57 59/33/59 60/33/60 58/32/58 
f 59/33/59 61/34/61 62/34/62 60/33/60 
f 61/34/61 63/35/63 64/35/64 62/34/62 
f 63/35/63 49/28/49 52/28/52 64/35/64 
f 65/28/65 66/29/66 67/36/67 
f 66/29/66 68/30/68 67/36/67 
f 68/30/68 69/31/69 67/36/67 
f 69/31/69 70/32/70 67/36/67 
f 70/32/70 71/33/71 67/36/67 
f 71/33/71 72/34/72 67/36/67 
f 72/34/72 73/35/73 67/36/67 
f 73/35/73 65/28/65 67/36/67 
f 51/29/51 66/29/66 65/28/65 52/28/52 
f 54/30/54 68/30/68 66/29/66 51/29/51 
f 56/31/56 69/31/69 68/30/68 54/30/54 
f 58/32/58 70/32/70 69/31/69 56/31/56 
f 60/33/60 71/33/71 70/32/70 58/32/58 
f 62/34/62 72/34/72 71/33/71 60/33/60 
f 64/35/64 73/35/73 72/34/72 62/34/62 
f 52/28/52 65/28/65 73/35/73 64/35/64 
f 41/29/41 50/29/50 49/28/49 42/28/42 
f 43/30/43 53/30/53 50/29/50 41/29/41 
f 44/31/44 55/31/55 53/30/53 43/30/43 
f 45/32/45 57/32/57 55/31/55 44/31/44 
f 46/33/46 59/33/59 57/32/57 45/32/45 
f 47/34/47 61/34/61 59/33/59 46/33/46 
f 48/35/48 63/35/63 61/34/61 47/34/47 
f 42/28/42 49/28/49 63/35/63 48/35/48 
f 74/37/74 26/29/26 25/28/25 75/38/75 
f 76/39/76 29/40/29 26/41/26 74/42/74 
f 77/43/77 31/44/31 29/40/29 76/39/76 
f 78/45/78 33/46/33 31/44/31 77/43/77 
f 79/47/79 35/48/35 33/46/33 78/45/78 
f 80/49/80 37/50/37 35/48/35 79/47/79 
f 81/51/81 39/35/39 37/50/37 80/49/80 
f 75/38/75 25/28/25 39/35/39 81/51/81 
f 82/52/82 83/53/83 84/54/84 85/55/85 
f 86/56/86 87/57/87 83/58/83 82/59/82 
f 88/60/88 89/61/89 87/57/87 86/56/86 
f 90/62/90 91/63/91 89/61/89 88/60/88 
f 92/64/92 93/65/93 91/63/91 90/62/90 
f 94/66/94 95/67/95 93/65/93 92/64/92 
f 96/68/96 97/69/97 95/67/95 94/66/94 
f 85/55/85 84/54/84 97/69/97 96/68/96 
f 98/70/98 82/52/82 85/55/85 99/71/99 
f 100/72/100 86/56/86 82/59/82 98/73/98 
f 101/74/101 88/60/88 86/56/86 100/72/100 
f 102/75/102 90/62/90 88/60/88 101/74/101 
f 103/76/103 92/64/92 90/62/90 102/75/102 
f 104/77/104 94/66/94 92/64/92 103/76/103 
f 105/78/105 96/68/96 94/66/94 104/77/104 
f 99/71/99 85/55/85 96/68/96 105/78/105 
f 83/53/83 74/37/74 75/38/75 84/54/84 
f 87/57/87 76/39/76 74/42/74 83/58/83 
f 89/61/89 77/43/77 76/39/76 87/57/87 
f 91/63/91 78/45/78 77/43/77 89/61/89 
f 93/65/93 79/47/79 78/45/78 91/63/91 
f 95/67/95 80/49/80 79/47/79 93/65/93 
f 97/69/97 81/51/81 80/49/80 95/67/95 
f 84/54/84 75/38/75 81/51/81 97/69/97 
f 17/19/17 98/70/98 99/71/99 18/20/18 
f 19/21/19 100/72/100 98/73/98 17/22/17 
f 20/23/20 101/74/101 100/72/100 19/21/19 
f 21/24/21 102/75/102 101/74/101 20/23/20 
f 22/25/22 103/76/103 102/75/102 21/24/21 
f 23/26/23 104/77/104 103/76/103 22/25/22 
f 24/27/24 105/78/105 104/77/104 23/26/23 
f 18/20/18 99/71/99 105/78/105 24/27/24 
# 96 polygons - 8 triangles

