# 3ds Max Wavefront OBJ Exporter v0.99 - (c)2007 guruware
# File Created: 27.11.2023 09:22:29

mtllib Diagonal RTL Dips.mtl

#
# object PuzzleStraightDiagonalRTLDips
#

v  0.0005 -29.5275 417.5823
v  0.0005 23.0315 417.5823
v  -417.5823 23.0315 -0.0000
v  -417.5823 -29.5275 -0.0000
v  0.0000 -29.5275 -417.5825
v  0.0000 23.0315 -417.5825
v  417.5828 23.0315 -0.0000
v  417.5828 -29.5275 -0.0000
v  247.3506 29.5275 161.0449
v  408.3958 29.5275 -0.0002
v  233.0701 29.5275 163.8809
v  222.4651 29.5275 160.3545
v  216.3972 29.5275 150.6357
v  212.0779 29.5275 130.0977
v  201.7534 29.5275 113.1643
v  186.0415 29.5275 97.4524
v  161.0457 29.5275 247.3503
v  163.8816 29.5275 233.0693
v  0.0000 29.5275 408.3960
v  160.3550 29.5275 222.4646
v  150.6362 29.5275 216.3962
v  130.0981 29.5275 212.0774
v  113.1648 29.5275 201.7529
v  97.4531 29.5275 186.0410
v  -161.0454 29.5275 -247.3503
v  -163.8811 29.5275 -233.0701
v  0.0000 29.5275 -408.3956
v  -150.6362 29.5275 -216.3965
v  -130.0974 29.5275 -212.0779
v  -113.1648 29.5275 -201.7537
v  -97.4524 29.5275 -186.0413
v  -160.3545 29.5275 -222.4648
v  -247.3501 29.5275 -161.0452
v  -408.3958 29.5275 -0.0002
v  -233.0698 29.5275 -163.8811
v  -222.4646 29.5275 -160.3547
v  -216.3965 29.5275 -150.6365
v  -212.0774 29.5275 -130.0979
v  -201.7532 29.5275 -113.1648
v  -186.0410 29.5275 -97.4529
v  -89.0898 29.5275 -159.2275
v  159.2275 29.5275 89.0896
v  -95.7268 29.5275 -129.5420
v  129.5420 29.5275 95.7263
v  -129.5415 29.5275 -95.7268
v  -159.2273 29.5275 -89.0898
v  89.0901 29.5275 159.2273
v  95.7271 29.5275 129.5415
v  -110.8796 29.5275 -110.8796
v  110.8801 29.5275 110.8794
v  0.0000 27.8140 415.1597
v  -415.0801 27.7582 -0.0002
v  0.0000 27.8140 -415.1594
v  415.0803 27.7582 -0.0002
v  -250.5491 23.0315 -167.0334
v  -249.7498 27.9035 -165.5364
v  -167.0330 23.0315 -250.5493
v  -165.5356 27.9035 -249.7498
v  -232.6501 23.0315 -170.5876
v  -232.7549 27.9035 -168.9109
v  -218.1941 23.0315 -165.7805
v  -219.2620 27.9035 -164.4241
v  -170.5872 23.0315 -232.6501
v  -168.9106 27.9035 -232.7556
v  -165.7800 23.0315 -218.1941
v  -164.4236 27.9035 -219.2620
v  -153.1001 23.0315 -210.2766
v  -152.4844 27.9035 -211.8062
v  -132.5269 23.0315 -205.9502
v  -131.9194 27.9035 -207.4827
v  -117.2090 23.0315 -196.6111
v  -116.1978 27.9035 -197.8965
v  -103.1780 23.0315 -182.5796
v  -102.1062 28.3116 -183.2273
v  -95.8079 23.0315 -158.9507
v  -94.1284 27.9035 -159.0203
v  -101.7329 23.0315 -132.4502
v  -100.2314 27.9035 -131.7234
v  -115.4978 23.0315 -115.4976
v  -114.3425 27.9035 -114.3433
v  -132.4500 23.0315 -101.7332
v  -131.7234 27.9035 -100.2312
v  -158.9507 23.0315 -95.8083
v  -159.0198 27.9035 -94.1289
v  -182.5791 23.0315 -103.1777
v  -183.3989 27.9891 -101.8220
v  -196.6108 23.0315 -117.2095
v  -197.8960 27.9035 -116.1985
v  -205.9502 23.0315 -132.5271
v  -207.4824 27.9035 -131.9197
v  -210.2764 23.0315 -153.0999
v  -211.8062 27.9035 -152.4841
v  167.0337 23.0315 250.5491
v  165.5361 27.9035 249.7493
v  250.5498 23.0315 167.0332
v  249.7502 27.9035 165.5359
v  232.6504 23.0315 170.5872
v  232.7551 27.9035 168.9106
v  170.5876 23.0315 232.6499
v  168.9111 27.9035 232.7549
v  165.7805 23.0315 218.1941
v  164.4243 27.9035 219.2617
v  153.1001 23.0315 210.2764
v  152.4844 27.9035 211.8064
v  132.5273 23.0315 205.9500
v  131.9199 27.9035 207.4819
v  117.2097 23.0315 196.6104
v  116.1985 27.9035 197.8960
v  103.1780 23.0315 182.5793
v  102.1064 28.3116 183.2273
v  95.8086 23.0315 158.9504
v  94.1292 27.9035 159.0195
v  101.7336 23.0315 132.4502
v  100.2312 27.9035 131.7231
v  115.4980 23.0315 115.4973
v  114.3430 27.9035 114.3433
v  132.4507 23.0315 101.7327
v  131.7234 27.9035 100.2314
v  158.9509 23.0315 95.8081
v  159.0203 27.9035 94.1284
v  182.5793 23.0315 103.1772
v  183.3992 27.9891 101.8218
v  196.6111 23.0315 117.2090
v  197.8967 27.9035 116.1982
v  205.9507 23.0315 132.5264
v  207.4824 27.9035 131.9192
v  210.2769 23.0315 153.0996
v  211.8066 27.9035 152.4841
v  218.1943 23.0315 165.7803
v  219.2620 27.9035 164.4238
# 130 vertices

vn -0.7071 0.0000 0.7071
vn -0.3583 0.2710 0.8934
vn -0.8898 0.2804 0.3601
vn 0.7071 0.0000 -0.7071
vn 0.3584 0.2711 -0.8934
vn 0.8898 0.2804 -0.3601
vn 0.0856 0.9834 0.1602
vn 0.1909 0.9816 -0.0000
vn -0.0112 0.9837 0.1796
vn -0.1135 0.9830 0.1442
vn -0.1623 0.9846 0.0653
vn -0.1313 0.9900 0.0521
vn -0.1158 0.9891 0.0911
vn -0.0640 0.9923 0.1059
vn 0.1602 0.9834 0.0856
vn 0.1796 0.9837 -0.0112
vn -0.0000 0.9831 0.1833
vn 0.1442 0.9830 -0.1135
vn 0.0654 0.9846 -0.1623
vn 0.0521 0.9900 -0.1313
vn 0.0911 0.9891 -0.1158
vn 0.0796 0.9957 -0.0481
vn -0.1602 0.9834 -0.0856
vn -0.1796 0.9837 0.0112
vn -0.0000 0.9831 -0.1833
vn -0.0653 0.9846 0.1623
vn -0.0521 0.9900 0.1313
vn -0.0911 0.9891 0.1158
vn -0.0796 0.9957 0.0481
vn -0.1442 0.9830 0.1135
vn -0.0856 0.9834 -0.1602
vn -0.1909 0.9816 0.0000
vn 0.0112 0.9837 -0.1796
vn 0.1135 0.9830 -0.1442
vn 0.1623 0.9846 -0.0654
vn 0.1313 0.9900 -0.0521
vn 0.1158 0.9891 -0.0911
vn 0.0640 0.9923 -0.1059
vn -0.1297 0.9915 0.0053
vn -0.0053 0.9915 0.1297
vn -0.1203 0.9910 -0.0583
vn 0.0583 0.9910 0.1203
vn -0.0583 0.9910 -0.1203
vn 0.0053 0.9915 -0.1297
vn 0.1297 0.9915 -0.0053
vn 0.1203 0.9910 0.0583
vn -0.1055 0.9888 -0.1055
vn 0.1055 0.9888 0.1055
vn -0.0003 0.6948 0.7192
vn -0.7147 0.6994 0.0003
vn 0.0003 0.6948 -0.7192
vn 0.7147 0.6994 -0.0004
vn -0.4450 0.3290 -0.8329
vn -0.3472 0.6771 -0.6489
vn -0.8329 0.3290 -0.4450
vn -0.6489 0.6771 -0.3470
vn 0.0591 0.3260 -0.9435
vn 0.0458 0.6795 -0.7323
vn 0.5830 0.3340 -0.7407
vn 0.4567 0.6744 -0.5802
vn -0.9436 0.3259 0.0591
vn -0.7323 0.6794 0.0458
vn -0.7407 0.3340 0.5830
vn -0.5802 0.6744 0.4567
vn -0.3537 0.3206 0.8787
vn -0.2716 0.6863 0.6747
vn -0.3491 0.3204 0.8806
vn -0.2498 0.7351 0.6302
vn -0.5861 0.3183 0.7451
vn -0.4366 0.7259 0.5314
vn -0.8326 0.2308 0.5035
vn -0.5638 0.7539 0.3374
vn -0.9445 0.3261 0.0389
vn -0.6566 0.7532 0.0392
vn -0.8515 0.3239 -0.4123
vn -0.5984 0.7469 -0.2898
vn -0.6704 0.3178 -0.6704
vn -0.4883 0.7233 -0.4883
vn -0.4123 0.3240 -0.8515
vn -0.2898 0.7469 -0.5984
vn 0.0389 0.3262 -0.9445
vn 0.0296 0.7532 -0.6572
vn 0.4929 0.3044 -0.8151
vn 0.3416 0.7502 -0.5661
vn 0.7452 0.3182 -0.5861
vn 0.5387 0.7259 -0.4276
vn 0.8806 0.3205 -0.3491
vn 0.6302 0.7351 -0.2498
vn 0.8787 0.3206 -0.3537
vn 0.6747 0.6863 -0.2716
vn 0.8329 0.3290 0.4450
vn 0.6489 0.6771 0.3470
vn 0.4450 0.3290 0.8329
vn 0.3472 0.6771 0.6488
vn -0.0590 0.3260 0.9435
vn -0.0458 0.6795 0.7323
vn 0.9435 0.3260 -0.0591
vn 0.7323 0.6795 -0.0458
vn 0.7407 0.3339 -0.5830
vn 0.5802 0.6744 -0.4567
vn 0.3537 0.3207 -0.8787
vn 0.2716 0.6863 -0.6747
vn 0.3491 0.3204 -0.8806
vn 0.2498 0.7351 -0.6302
vn 0.5861 0.3183 -0.7451
vn 0.4366 0.7259 -0.5314
vn 0.8326 0.2307 -0.5035
vn 0.5638 0.7539 -0.3374
vn 0.9445 0.3262 -0.0389
vn 0.6566 0.7532 -0.0392
vn 0.8514 0.3241 0.4123
vn 0.5984 0.7470 0.2898
vn 0.6705 0.3178 0.6705
vn 0.4883 0.7232 0.4883
vn 0.4123 0.3240 0.8515
vn 0.2898 0.7469 0.5984
vn -0.0389 0.3262 0.9445
vn -0.0296 0.7532 0.6572
vn -0.4929 0.3044 0.8151
vn -0.3416 0.7502 0.5661
vn -0.7451 0.3182 0.5861
vn -0.5387 0.7259 0.4276
vn -0.8806 0.3204 0.3491
vn -0.6302 0.7351 0.2498
vn -0.8787 0.3206 0.3537
vn -0.6747 0.6863 0.2716
vn -0.5830 0.3340 0.7407
vn -0.4567 0.6744 0.5802
# 128 vertex normals

vt 0.8484 0.0005 0.0000
vt 0.8484 0.0753 0.0000
vt 0.0069 0.0748 0.0000
vt 0.0070 -0.0000 0.0000
vt 0.0067 0.9995 0.0000
vt 0.0067 0.9247 0.0000
vt 0.8482 0.9252 0.0000
vt 0.8482 1.0000 0.0000
vt 0.8404 0.5881 0.0000
vt 0.8370 0.9116 0.0000
vt 0.8290 0.5709 0.0000
vt 0.8148 0.5636 0.0000
vt 0.7988 0.5671 0.0000
vt 0.7733 0.5830 0.0000
vt 0.7455 0.5894 0.0000
vt 0.7135 0.5891 0.0000
vt 0.8404 0.4119 0.0000
vt 0.8290 0.4291 0.0000
vt 0.8371 0.0890 0.0000
vt 0.8147 0.4363 0.0000
vt 0.7987 0.4328 0.0000
vt 0.7732 0.4169 0.0000
vt 0.7454 0.4104 0.0000
vt 0.7135 0.4107 0.0000
vt 0.0148 0.5881 0.0000
vt 0.0262 0.5709 0.0000
vt 0.0181 0.9110 0.0000
vt 0.0565 0.5672 0.0000
vt 0.0819 0.5831 0.0000
vt 0.1097 0.5896 0.0000
vt 0.1417 0.5893 0.0000
vt 0.0404 0.5637 0.0000
vt 0.0147 0.4119 0.0000
vt 0.0182 0.0884 0.0000
vt 0.0261 0.4291 0.0000
vt 0.0403 0.4364 0.0000
vt 0.0564 0.4329 0.0000
vt 0.0818 0.4170 0.0000
vt 0.1096 0.4106 0.0000
vt 0.1416 0.4109 0.0000
vt 0.1772 0.5708 0.0000
vt 0.6780 0.5705 0.0000
vt 0.2005 0.5342 0.0000
vt 0.6547 0.5340 0.0000
vt 0.2005 0.4660 0.0000
vt 0.1771 0.4295 0.0000
vt 0.6780 0.4292 0.0000
vt 0.6547 0.4658 0.0000
vt 0.2041 0.5001 0.0000
vt 0.6511 0.4999 0.0000
vt 0.8440 0.0818 0.0000
vt 0.0113 0.0813 0.0000
vt 0.0112 0.9182 0.0000
vt 0.8438 0.9187 0.0000
vt 0.0000 0.4148 0.0000
vt 0.0073 0.4140 0.0000
vt 0.0001 0.5852 0.0000
vt 0.0074 0.5861 0.0000
vt 0.0159 0.4400 0.0000
vt 0.0210 0.4347 0.0000
vt 0.0380 0.4510 0.0000
vt 0.0392 0.4438 0.0000
vt 0.0161 0.5600 0.0000
vt 0.0211 0.5653 0.0000
vt 0.0384 0.5491 0.0000
vt 0.0393 0.5563 0.0000
vt 0.0616 0.5536 0.0000
vt 0.0590 0.5603 0.0000
vt 0.0875 0.5694 0.0000
vt 0.0847 0.5761 0.0000
vt 0.1112 0.5751 0.0000
vt 0.1105 0.5823 0.0000
vt 0.1378 0.5742 0.0000
vt 0.1397 0.5817 0.0000
vt 0.1672 0.5597 0.0000
vt 0.1721 0.5652 0.0000
vt 0.1865 0.5291 0.0000
vt 0.1934 0.5317 0.0000
vt 0.1896 0.5001 0.0000
vt 0.1968 0.5001 0.0000
vt 0.1865 0.4710 0.0000
vt 0.1934 0.4685 0.0000
vt 0.1670 0.4404 0.0000
vt 0.1720 0.4350 0.0000
vt 0.1378 0.4254 0.0000
vt 0.1397 0.4183 0.0000
vt 0.1111 0.4251 0.0000
vt 0.1104 0.4179 0.0000
vt 0.0875 0.4309 0.0000
vt 0.0847 0.4240 0.0000
vt 0.0615 0.4467 0.0000
vt 0.0589 0.4398 0.0000
vt 0.8550 0.4148 0.0000
vt 0.8477 0.4139 0.0000
vt 0.8552 0.5852 0.0000
vt 0.8478 0.5860 0.0000
vt 0.8392 0.5600 0.0000
vt 0.8342 0.5653 0.0000
vt 0.8390 0.4400 0.0000
vt 0.8341 0.4347 0.0000
vt 0.8168 0.4509 0.0000
vt 0.8158 0.4437 0.0000
vt 0.7936 0.4464 0.0000
vt 0.7962 0.4397 0.0000
vt 0.7677 0.4306 0.0000
vt 0.7704 0.4239 0.0000
vt 0.7439 0.4249 0.0000
vt 0.7446 0.4177 0.0000
vt 0.7174 0.4258 0.0000
vt 0.7154 0.4183 0.0000
vt 0.6880 0.4403 0.0000
vt 0.6831 0.4348 0.0000
vt 0.6686 0.4709 0.0000
vt 0.6617 0.4683 0.0000
vt 0.6656 0.4999 0.0000
vt 0.6583 0.4999 0.0000
vt 0.6687 0.5290 0.0000
vt 0.6618 0.5315 0.0000
vt 0.6882 0.5596 0.0000
vt 0.6831 0.5650 0.0000
vt 0.7174 0.5746 0.0000
vt 0.7154 0.5817 0.0000
vt 0.7440 0.5749 0.0000
vt 0.7447 0.5821 0.0000
vt 0.7677 0.5691 0.0000
vt 0.7705 0.5760 0.0000
vt 0.7937 0.5533 0.0000
vt 0.7963 0.5602 0.0000
vt 0.8171 0.5490 0.0000
vt 0.8159 0.5562 0.0000
# 130 texture coords

o PuzzleStraightDiagonalRTLDips
g PuzzleStraightDiagonalRTLDips
usemtl wire_225198087
s 4
f 1/1/1 2/2/2 3/3/3 4/4/1 
f 5/5/4 6/6/5 7/7/6 8/8/4 
s 1
f 9/9/7 10/10/8 11/11/9 
f 11/11/9 10/10/8 12/12/10 
f 12/12/10 10/10/8 13/13/11 
f 13/13/11 10/10/8 14/14/12 
f 14/14/12 10/10/8 15/15/13 
f 15/15/13 10/10/8 16/16/14 
f 17/17/15 18/18/16 19/19/17 
f 18/18/16 20/20/18 19/19/17 
f 20/20/18 21/21/19 19/19/17 
f 21/21/19 22/22/20 19/19/17 
f 22/22/20 23/23/21 19/19/17 
f 23/23/21 24/24/22 19/19/17 
f 25/25/23 26/26/24 27/27/25 
f 28/28/26 29/29/27 27/27/25 
f 29/29/27 30/30/28 27/27/25 
f 30/30/28 31/31/29 27/27/25 
f 32/32/30 28/28/26 27/27/25 
f 26/26/24 32/32/30 27/27/25 
f 33/33/31 34/34/32 35/35/33 
f 35/35/33 34/34/32 36/36/34 
f 36/36/34 34/34/32 37/37/35 
f 37/37/35 34/34/32 38/38/36 
f 38/38/36 34/34/32 39/39/37 
f 39/39/37 34/34/32 40/40/38 
f 31/31/29 41/41/39 42/42/40 16/16/14 
f 41/41/39 43/43/41 44/44/42 42/42/40 
f 45/45/43 46/46/44 47/47/45 48/48/46 
f 46/46/44 40/40/38 24/24/22 47/47/45 
f 49/49/47 45/45/43 48/48/46 50/50/48 
f 43/43/41 49/49/47 50/50/48 44/44/42 
f 31/31/29 16/16/14 10/10/8 27/27/25 
f 24/24/22 40/40/38 34/34/32 19/19/17 
s 2
f 3/3/3 2/2/2 51/51/49 52/52/50 
f 7/7/6 6/6/5 53/53/51 54/54/52 
f 55/55/53 3/3/3 52/52/50 56/56/54 
f 6/6/5 57/57/55 58/58/56 53/53/51 
f 59/59/57 55/55/53 56/56/54 60/60/58 
f 61/61/59 59/59/57 60/60/58 62/62/60 
f 57/57/55 63/63/61 64/64/62 58/58/56 
f 63/63/61 65/65/63 66/66/64 64/64/62 
f 65/65/63 67/67/65 68/68/66 66/66/64 
f 67/67/65 69/69/67 70/70/68 68/68/66 
f 69/69/67 71/71/69 72/72/70 70/70/68 
f 71/71/69 73/73/71 74/74/72 72/72/70 
f 73/73/71 75/75/73 76/76/74 74/74/72 
f 75/75/73 77/77/75 78/78/76 76/76/74 
f 77/77/75 79/79/77 80/80/78 78/78/76 
f 79/79/77 81/81/79 82/82/80 80/80/78 
f 81/81/79 83/83/81 84/84/82 82/82/80 
f 83/83/81 85/85/83 86/86/84 84/84/82 
f 85/85/83 87/87/85 88/88/86 86/86/84 
f 87/87/85 89/89/87 90/90/88 88/88/86 
f 89/89/87 91/91/89 92/92/90 90/90/88 
f 91/91/89 61/61/59 62/62/60 92/92/90 
f 2/2/2 93/93/91 94/94/92 51/51/49 
f 95/95/93 7/7/6 54/54/52 96/96/94 
f 97/97/95 95/95/93 96/96/94 98/98/96 
f 93/93/91 99/99/97 100/100/98 94/94/92 
f 99/99/97 101/101/99 102/102/100 100/100/98 
f 101/101/99 103/103/101 104/104/102 102/102/100 
f 103/103/101 105/105/103 106/106/104 104/104/102 
f 105/105/103 107/107/105 108/108/106 106/106/104 
f 107/107/105 109/109/107 110/110/108 108/108/106 
f 109/109/107 111/111/109 112/112/110 110/110/108 
f 111/111/109 113/113/111 114/114/112 112/112/110 
f 113/113/111 115/115/113 116/116/114 114/114/112 
f 115/115/113 117/117/115 118/118/116 116/116/114 
f 117/117/115 119/119/117 120/120/118 118/118/116 
f 119/119/117 121/121/119 122/122/120 120/120/118 
f 121/121/119 123/123/121 124/124/122 122/122/120 
f 123/123/121 125/125/123 126/126/124 124/124/122 
f 125/125/123 127/127/125 128/128/126 126/126/124 
f 127/127/125 129/129/127 130/130/128 128/128/126 
f 129/129/127 97/97/95 98/98/96 130/130/128 
f 10/10/8 9/9/7 96/96/94 54/54/52 
f 9/9/7 11/11/9 98/98/96 96/96/94 
f 11/11/9 12/12/10 130/130/128 98/98/96 
f 12/12/10 13/13/11 128/128/126 130/130/128 
f 13/13/11 14/14/12 126/126/124 128/128/126 
f 14/14/12 15/15/13 124/124/122 126/126/124 
f 15/15/13 16/16/14 122/122/120 124/124/122 
f 18/18/16 17/17/15 94/94/92 100/100/98 
f 17/17/15 19/19/17 51/51/49 94/94/92 
f 20/20/18 18/18/16 100/100/98 102/102/100 
f 21/21/19 20/20/18 102/102/100 104/104/102 
f 22/22/20 21/21/19 104/104/102 106/106/104 
f 23/23/21 22/22/20 106/106/104 108/108/106 
f 24/24/22 23/23/21 108/108/106 110/110/108 
f 26/26/24 25/25/23 58/58/56 64/64/62 
f 25/25/23 27/27/25 53/53/51 58/58/56 
f 29/29/27 28/28/26 68/68/66 70/70/68 
f 30/30/28 29/29/27 70/70/68 72/72/70 
f 31/31/29 30/30/28 72/72/70 74/74/72 
f 28/28/26 32/32/30 66/66/64 68/68/66 
f 32/32/30 26/26/24 64/64/62 66/66/64 
f 34/34/32 33/33/31 56/56/54 52/52/50 
f 33/33/31 35/35/33 60/60/58 56/56/54 
f 35/35/33 36/36/34 62/62/60 60/60/58 
f 36/36/34 37/37/35 92/92/90 62/62/60 
f 37/37/35 38/38/36 90/90/88 92/92/90 
f 38/38/36 39/39/37 88/88/86 90/90/88 
f 39/39/37 40/40/38 86/86/84 88/88/86 
f 41/41/39 31/31/29 74/74/72 76/76/74 
f 16/16/14 42/42/40 120/120/118 122/122/120 
f 43/43/41 41/41/39 76/76/74 78/78/76 
f 42/42/40 44/44/42 118/118/116 120/120/118 
f 46/46/44 45/45/43 82/82/80 84/84/82 
f 48/48/46 47/47/45 112/112/110 114/114/112 
f 40/40/38 46/46/44 84/84/82 86/86/84 
f 47/47/45 24/24/22 110/110/108 112/112/110 
f 45/45/43 49/49/47 80/80/78 82/82/80 
f 50/50/48 48/48/46 114/114/112 116/116/114 
f 49/49/47 43/43/41 78/78/76 80/80/78 
f 44/44/42 50/50/48 116/116/114 118/118/116 
f 27/27/25 10/10/8 54/54/52 53/53/51 
f 19/19/17 34/34/32 52/52/50 51/51/49 
# 94 polygons - 24 triangles

