# 3ds Max Wavefront OBJ Exporter v0.99 - (c)2007 guruware
# File Created: 27.11.2023 09:17:32

mtllib Corner Bottom Left Dips.mtl

#
# object PuzzleCornerBottomLeftDips
#

v  -59.9971 29.5275 -289.8093
v  -287.7495 29.5275 -289.8093
v  -47.8938 29.5275 -281.7168
v  -42.8887 29.5275 -271.7241
v  -45.4697 29.5275 -260.5613
v  -56.9385 29.5275 -242.9846
v  -61.6118 29.5275 -223.7104
v  -61.6118 29.5275 -201.4905
v  62.0566 29.5275 -289.8093
v  49.9534 29.5275 -281.7168
v  289.8091 29.5275 -289.8093
v  44.9482 29.5275 -271.7241
v  47.5293 29.5275 -260.5613
v  58.9983 29.5275 -242.9846
v  63.6714 29.5275 -223.7104
v  63.6714 29.5275 -201.4905
v  296.3049 23.0315 -296.3054
v  60.0850 23.0315 -296.3054
v  60.5776 27.9035 -294.6814
v  294.5356 27.7582 -294.5361
v  -58.0251 23.0315 -296.3054
v  -294.2456 23.0315 -296.3054
v  -292.4763 27.7582 -294.5361
v  -58.5181 27.9035 -294.6814
v  -42.8550 23.0315 -286.1619
v  -44.1147 27.9035 -285.0505
v  44.9146 23.0315 -286.1619
v  46.1743 27.9035 -285.0505
v  38.0920 23.0315 -272.5410
v  39.8059 27.9035 -272.3367
v  41.4597 23.0315 -257.9758
v  42.9773 27.9035 -258.6223
v  52.9482 23.0315 -240.3694
v  54.4607 27.9035 -241.0232
v  57.1753 23.0315 -222.9343
v  58.7991 27.9035 -223.1284
v  57.1753 23.0315 -203.0908
v  58.3911 28.3116 -202.7913
v  45.6782 23.0315 -181.1716
v  46.9148 27.9035 -180.0330
v  22.7502 23.0315 -166.6226
v  23.2979 27.9035 -165.0469
v  1.0298 23.0315 -164.3684
v  1.0298 27.9035 -162.7356
v  -20.6907 23.0315 -166.6226
v  -21.2385 27.9035 -165.0469
v  -43.6187 23.0315 -181.1716
v  -44.8550 27.9035 -180.0330
v  -55.1157 23.0315 -203.0908
v  -56.6541 27.9891 -202.7117
v  -55.1157 23.0315 -222.9343
v  -56.7397 27.9035 -223.1284
v  -50.8887 23.0315 -240.3694
v  -52.4011 27.9035 -241.0232
v  -39.3999 23.0315 -257.9758
v  -40.9175 27.9035 -258.6223
v  -36.0327 23.0315 -272.5410
v  -37.7463 27.9035 -272.3367
v  -48.5647 29.5275 -176.6169
v  -22.8811 29.5275 -160.3191
v  24.9407 29.5275 -160.3191
v  50.6245 29.5275 -176.6169
v  1.0298 29.5275 -157.8374
v  289.8091 29.5275 59.9968
v  281.7163 29.5275 47.8938
v  289.8091 29.5275 287.7495
v  260.5608 29.5275 45.4695
v  242.9841 29.5275 56.9385
v  223.7102 29.5275 61.6116
v  201.4902 29.5275 61.6116
v  271.7236 29.5275 42.8887
v  289.8091 29.5275 -62.0569
v  281.7163 29.5275 -49.9536
v  271.7236 29.5275 -44.9485
v  260.5608 29.5275 -47.5295
v  242.9841 29.5275 -58.9985
v  223.7102 29.5275 -63.6714
v  201.4902 29.5275 -63.6714
v  296.3049 23.0315 -60.0850
v  294.6809 27.9035 -60.5781
v  296.3049 23.0315 294.2458
v  296.3049 23.0315 58.0251
v  294.6809 27.9035 58.5181
v  294.5356 27.7582 292.4761
v  286.1616 23.0315 -44.9148
v  285.0500 27.9035 -46.1746
v  272.5405 23.0315 -38.0920
v  272.3364 27.9035 -39.8064
v  286.1616 23.0315 42.8547
v  285.0500 27.9035 44.1147
v  272.5405 23.0315 36.0322
v  272.3364 27.9035 37.7463
v  257.9756 23.0315 39.3999
v  258.6218 27.9035 40.9172
v  240.3691 23.0315 50.8882
v  241.0227 27.9035 52.4009
v  222.9341 23.0315 55.1152
v  223.1279 27.9035 56.7393
v  203.0903 23.0315 55.1152
v  202.7908 28.3116 56.3313
v  181.1714 23.0315 43.6184
v  180.0327 27.9035 44.8550
v  166.6223 23.0315 20.6904
v  165.0464 27.9035 21.2380
v  164.3682 23.0315 -1.0300
v  162.7351 27.9035 -1.0300
v  166.6223 23.0315 -22.7505
v  165.0464 27.9035 -23.2981
v  181.1714 23.0315 -45.6782
v  180.0327 27.9035 -46.9148
v  203.0903 23.0315 -57.1753
v  202.7114 27.9891 -58.7139
v  222.9341 23.0315 -57.1753
v  223.1279 27.9035 -58.7993
v  240.3691 23.0315 -52.9482
v  241.0227 27.9035 -54.4607
v  257.9756 23.0315 -41.4597
v  258.6218 27.9035 -42.9773
v  176.6165 29.5275 48.5647
v  160.3186 29.5275 22.8811
v  176.6165 29.5275 -50.6245
v  160.3186 29.5275 -24.9409
v  157.8372 29.5275 -1.0300
v  -207.7153 -29.5275 207.7153
v  -207.7153 23.0315 207.7153
v  -296.3047 23.0315 -0.9353
v  -296.3047 -29.5275 -0.9353
v  -294.5647 27.7875 -0.9934
v  -201.2195 29.5275 201.2192
v  -289.8086 29.5275 -1.2561
v  -206.0017 27.8140 206.0020
v  1.0237 -29.5275 296.3052
v  1.0237 23.0315 296.3052
v  1.0066 27.7863 294.5637
v  1.0652 29.5275 289.8091
v  296.3049 -29.5275 294.2458
v  -294.2456 -29.5275 -296.3054
# 137 vertices

vn 0.0528 0.9834 -0.1738
vn -0.1337 0.9817 -0.1359
vn 0.1350 0.9837 -0.1191
vn 0.1823 0.9830 -0.0217
vn 0.1610 0.9846 0.0686
vn 0.1297 0.9900 0.0561
vn 0.1463 0.9891 0.0175
vn 0.1201 0.9923 -0.0296
vn -0.0528 0.9834 -0.1738
vn -0.1350 0.9837 -0.1191
vn 0.1350 0.9816 -0.1350
vn -0.1823 0.9830 -0.0217
vn -0.1610 0.9846 0.0686
vn -0.1297 0.9900 0.0561
vn -0.1463 0.9891 0.0175
vn -0.0903 0.9957 -0.0223
vn 0.6249 0.4679 -0.6249
vn -0.2743 0.3290 -0.9036
vn -0.2133 0.6771 -0.7043
vn 0.5054 0.6994 -0.5054
vn 0.2743 0.3290 -0.9036
vn -0.8815 0.2807 -0.3796
vn -0.5032 0.6997 -0.5071
vn 0.2133 0.6771 -0.7043
vn 0.7089 0.3260 -0.6254
vn 0.5502 0.6795 -0.4854
vn -0.7089 0.3260 -0.6254
vn -0.5502 0.6795 -0.4854
vn -0.9360 0.3339 -0.1115
vn -0.7332 0.6744 -0.0873
vn -0.8714 0.3207 0.3712
vn -0.6691 0.6863 0.2850
vn -0.8695 0.3204 0.3759
vn -0.6223 0.7351 0.2690
vn -0.9413 0.3182 0.1125
vn -0.6845 0.7259 0.0671
vn -0.9448 0.2308 -0.2327
vn -0.6372 0.7539 -0.1601
vn -0.6954 0.3262 -0.6404
vn -0.4920 0.7532 -0.4366
vn -0.3105 0.3239 -0.8937
vn -0.2182 0.7469 -0.6281
vn 0.0000 0.3178 -0.9482
vn -0.0000 0.7232 -0.6906
vn 0.3105 0.3239 -0.8937
vn 0.2182 0.7469 -0.6281
vn 0.6954 0.3261 -0.6404
vn 0.4856 0.7531 -0.4438
vn 0.9249 0.3044 -0.2278
vn 0.6419 0.7502 -0.1588
vn 0.9413 0.3183 0.1125
vn 0.6833 0.7259 0.0786
vn 0.8695 0.3204 0.3759
vn 0.6223 0.7351 0.2690
vn 0.8714 0.3207 0.3712
vn 0.6691 0.6863 0.2850
vn 0.9360 0.3339 -0.1115
vn 0.7332 0.6744 -0.0873
vn 0.0955 0.9915 -0.0879
vn 0.0439 0.9910 -0.1263
vn -0.0439 0.9910 -0.1263
vn -0.0955 0.9915 -0.0879
vn 0.0000 0.9888 -0.1491
vn 0.1738 0.9834 -0.0528
vn 0.1191 0.9837 -0.1350
vn 0.1359 0.9817 0.1337
vn -0.0686 0.9846 -0.1610
vn -0.0561 0.9900 -0.1297
vn -0.0175 0.9891 -0.1463
vn 0.0223 0.9957 -0.0903
vn 0.0217 0.9830 -0.1823
vn 0.1738 0.9834 0.0528
vn 0.1191 0.9837 0.1350
vn 0.0217 0.9830 0.1823
vn -0.0686 0.9846 0.1610
vn -0.0560 0.9900 0.1297
vn -0.0175 0.9891 0.1463
vn 0.0296 0.9923 0.1201
vn 0.9036 0.3290 0.2743
vn 0.7043 0.6771 0.2133
vn 0.3796 0.2807 0.8816
vn 0.9036 0.3290 -0.2743
vn 0.7043 0.6771 -0.2133
vn 0.5071 0.6997 0.5032
vn 0.6254 0.3260 0.7089
vn 0.4854 0.6795 0.5502
vn 0.1115 0.3340 0.9360
vn 0.0873 0.6744 0.7332
vn 0.6254 0.3260 -0.7089
vn 0.4854 0.6795 -0.5502
vn 0.1115 0.3340 -0.9360
vn 0.0874 0.6744 -0.7332
vn -0.3712 0.3206 -0.8714
vn -0.2850 0.6863 -0.6691
vn -0.3759 0.3204 -0.8695
vn -0.2690 0.7351 -0.6223
vn -0.1125 0.3182 -0.9413
vn -0.0671 0.7259 -0.6845
vn 0.2327 0.2308 -0.9448
vn 0.1601 0.7539 -0.6372
vn 0.6403 0.3262 -0.6954
vn 0.4366 0.7532 -0.4920
vn 0.8937 0.3240 -0.3105
vn 0.6280 0.7469 -0.2182
vn 0.9482 0.3178 0.0000
vn 0.6906 0.7233 0.0000
vn 0.8937 0.3240 0.3105
vn 0.6280 0.7469 0.2182
vn 0.6404 0.3262 0.6954
vn 0.4438 0.7532 0.4856
vn 0.2278 0.3044 0.9249
vn 0.1588 0.7502 0.6419
vn -0.1125 0.3182 0.9413
vn -0.0786 0.7259 0.6833
vn -0.3759 0.3204 0.8695
vn -0.2690 0.7351 0.6223
vn -0.3712 0.3207 0.8714
vn -0.2850 0.6863 0.6691
vn 0.0879 0.9915 -0.0955
vn 0.1263 0.9910 -0.0439
vn 0.0879 0.9915 0.0955
vn 0.1263 0.9910 0.0439
vn 0.1491 0.9888 0.0000
vn -0.7071 0.0000 0.7072
vn -0.6896 0.2207 0.6897
vn -0.9671 0.1689 0.1901
vn -0.9806 0.0000 0.1960
vn -0.7201 0.6782 0.1467
vn -0.1078 0.9883 0.1078
vn -0.1942 0.9800 0.0445
vn -0.4798 0.7346 0.4798
vn -0.1959 0.0000 0.9806
vn -0.1892 0.1679 0.9675
vn -0.1473 0.6763 0.7217
vn -0.0463 0.9795 0.1960
vn 0.0070 0.0000 1.0000
vn -1.0000 0.0000 -0.0070
# 137 vertex normals

vt 0.9790 0.5314 0.0000
vt 0.9856 0.8653 0.0000
vt 0.9668 0.5139 0.0000
vt 0.9521 0.5069 0.0000
vt 0.9358 0.5109 0.0000
vt 0.9103 0.5279 0.0000
vt 0.8821 0.5350 0.0000
vt 0.8494 0.5352 0.0000
vt 0.9659 0.3423 0.0000
vt 0.9555 0.3606 0.0000
vt 0.9412 0.0136 0.0000
vt 0.9415 0.3688 0.0000
vt 0.9250 0.3663 0.0000
vt 0.8980 0.3518 0.0000
vt 0.8694 0.3470 0.0000
vt 0.8369 0.3493 0.0000
vt 0.9531 -0.0000 0.0000
vt 0.9810 0.3443 0.0000
vt 0.9735 0.3439 0.0000
vt 0.9478 0.0060 0.0000
vt 0.9938 0.5280 0.0000
vt 0.9983 0.8784 0.0000
vt 0.9928 0.8725 0.0000
vt 0.9864 0.5291 0.0000
vt 0.9769 0.5026 0.0000
vt 0.9719 0.5081 0.0000
vt 0.9665 0.3711 0.0000
vt 0.9611 0.3659 0.0000
vt 0.9445 0.3836 0.0000
vt 0.9431 0.3764 0.0000
vt 0.9206 0.3805 0.0000
vt 0.9228 0.3735 0.0000
vt 0.8932 0.3661 0.0000
vt 0.8956 0.3590 0.0000
vt 0.8688 0.3618 0.0000
vt 0.8690 0.3544 0.0000
vt 0.8419 0.3644 0.0000
vt 0.8394 0.3570 0.0000
vt 0.8131 0.3812 0.0000
vt 0.8077 0.3760 0.0000
vt 0.7957 0.4139 0.0000
vt 0.7885 0.4118 0.0000
vt 0.7949 0.4440 0.0000
vt 0.7875 0.4445 0.0000
vt 0.8004 0.4739 0.0000
vt 0.7935 0.4769 0.0000
vt 0.8224 0.5049 0.0000
vt 0.8175 0.5105 0.0000
vt 0.8531 0.5203 0.0000
vt 0.8512 0.5276 0.0000
vt 0.8803 0.5202 0.0000
vt 0.8812 0.5276 0.0000
vt 0.9042 0.5138 0.0000
vt 0.9073 0.5208 0.0000
vt 0.9303 0.4970 0.0000
vt 0.9331 0.5039 0.0000
vt 0.9541 0.4919 0.0000
vt 0.9530 0.4993 0.0000
vt 0.8125 0.5164 0.0000
vt 0.7864 0.4798 0.0000
vt 0.7811 0.4098 0.0000
vt 0.8021 0.3707 0.0000
vt 0.7801 0.4450 0.0000
vt 0.4235 0.0446 0.0000
vt 0.4424 0.0544 0.0000
vt 0.0918 0.0816 0.0000
vt 0.4494 0.0847 0.0000
vt 0.4359 0.1122 0.0000
vt 0.4325 0.1411 0.0000
vt 0.4365 0.1735 0.0000
vt 0.4512 0.0681 0.0000
vt 0.6121 0.0327 0.0000
vt 0.5954 0.0454 0.0000
vt 0.5891 0.0604 0.0000
vt 0.5937 0.0765 0.0000
vt 0.6117 0.1012 0.0000
vt 0.6203 0.1290 0.0000
vt 0.6223 0.1614 0.0000
vt 0.6081 0.0179 0.0000
vt 0.6095 0.0253 0.0000
vt 0.0772 0.0706 0.0000
vt 0.4249 0.0294 0.0000
vt 0.4248 0.0369 0.0000
vt 0.0838 0.0754 0.0000
vt 0.5836 0.0358 0.0000
vt 0.5893 0.0406 0.0000
vt 0.5740 0.0591 0.0000
vt 0.5814 0.0598 0.0000
vt 0.4523 0.0430 0.0000
vt 0.4474 0.0486 0.0000
vt 0.4659 0.0644 0.0000
vt 0.4587 0.0661 0.0000
vt 0.4638 0.0884 0.0000
vt 0.4567 0.0865 0.0000
vt 0.4505 0.1164 0.0000
vt 0.4433 0.1143 0.0000
vt 0.4474 0.1409 0.0000
vt 0.4399 0.1411 0.0000
vt 0.4514 0.1678 0.0000
vt 0.4441 0.1707 0.0000
vt 0.4702 0.1964 0.0000
vt 0.4651 0.2020 0.0000
vt 0.5037 0.2141 0.0000
vt 0.5016 0.2213 0.0000
vt 0.5341 0.2156 0.0000
vt 0.5345 0.2230 0.0000
vt 0.5638 0.2108 0.0000
vt 0.5668 0.2177 0.0000
vt 0.5940 0.1892 0.0000
vt 0.5997 0.1940 0.0000
vt 0.6072 0.1585 0.0000
vt 0.6147 0.1600 0.0000
vt 0.6056 0.1316 0.0000
vt 0.6129 0.1303 0.0000
vt 0.5980 0.1079 0.0000
vt 0.6048 0.1046 0.0000
vt 0.5801 0.0826 0.0000
vt 0.5869 0.0795 0.0000
vt 0.4600 0.2077 0.0000
vt 0.4996 0.2287 0.0000
vt 0.6057 0.1988 0.0000
vt 0.5697 0.2248 0.0000
vt 0.5349 0.2304 0.0000
vt 0.2217 0.8337 0.0000
vt 0.2713 0.7788 0.0000
vt 0.5717 0.8930 0.0000
vt 0.5592 0.9689 0.0000
vt 0.5725 0.8857 0.0000
vt 0.2828 0.7655 0.0000
vt 0.5729 0.8784 0.0000
vt 0.2763 0.7730 0.0000
vt 0.0467 0.5173 0.0000
vt 0.1179 0.4957 0.0000
vt 0.1250 0.4940 0.0000
vt 0.1323 0.4929 0.0000
vt 0.0000 0.0789 0.0000
vt 1.0000 0.9548 0.0000
# 137 texture coords

o PuzzleCornerBottomLeftDips
g PuzzleCornerBottomLeftDips
usemtl wire_177027088
s 1
f 1/1/1 2/2/2 3/3/3 
f 3/3/3 2/2/2 4/4/4 
f 4/4/4 2/2/2 5/5/5 
f 5/5/5 2/2/2 6/6/6 
f 6/6/6 2/2/2 7/7/7 
f 7/7/7 2/2/2 8/8/8 
f 9/9/9 10/10/10 11/11/11 
f 10/10/10 12/12/12 11/11/11 
f 12/12/12 13/13/13 11/11/11 
f 13/13/13 14/14/14 11/11/11 
f 14/14/14 15/15/15 11/11/11 
f 15/15/15 16/16/16 11/11/11 
s 2
f 17/17/17 18/18/18 19/19/19 20/20/20 
f 21/21/21 22/22/22 23/23/23 24/24/24 
f 25/25/25 21/21/21 24/24/24 26/26/26 
f 18/18/18 27/27/27 28/28/28 19/19/19 
f 27/27/27 29/29/29 30/30/30 28/28/28 
f 29/29/29 31/31/31 32/32/32 30/30/30 
f 31/31/31 33/33/33 34/34/34 32/32/32 
f 33/33/33 35/35/35 36/36/36 34/34/34 
f 35/35/35 37/37/37 38/38/38 36/36/36 
f 37/37/37 39/39/39 40/40/40 38/38/38 
f 39/39/39 41/41/41 42/42/42 40/40/40 
f 41/41/41 43/43/43 44/44/44 42/42/42 
f 43/43/43 45/45/45 46/46/46 44/44/44 
f 45/45/45 47/47/47 48/48/48 46/46/46 
f 47/47/47 49/49/49 50/50/50 48/48/48 
f 49/49/49 51/51/51 52/52/52 50/50/50 
f 51/51/51 53/53/53 54/54/54 52/52/52 
f 53/53/53 55/55/55 56/56/56 54/54/54 
f 55/55/55 57/57/57 58/58/58 56/56/56 
f 57/57/57 25/25/25 26/26/26 58/58/58 
f 2/2/2 1/1/1 24/24/24 23/23/23 
f 1/1/1 3/3/3 26/26/26 24/24/24 
f 3/3/3 4/4/4 58/58/58 26/26/26 
f 4/4/4 5/5/5 56/56/56 58/58/58 
f 5/5/5 6/6/6 54/54/54 56/56/56 
f 6/6/6 7/7/7 52/52/52 54/54/54 
f 7/7/7 8/8/8 50/50/50 52/52/52 
f 10/10/10 9/9/9 19/19/19 28/28/28 
f 9/9/9 11/11/11 20/20/20 19/19/19 
f 12/12/12 10/10/10 28/28/28 30/30/30 
f 13/13/13 12/12/12 30/30/30 32/32/32 
f 14/14/14 13/13/13 32/32/32 34/34/34 
f 15/15/15 14/14/14 34/34/34 36/36/36 
f 16/16/16 15/15/15 36/36/36 38/38/38 
f 8/8/8 59/59/59 48/48/48 50/50/50 
f 59/59/59 60/60/60 46/46/46 48/48/48 
f 61/61/61 62/62/62 40/40/40 42/42/42 
f 62/62/62 16/16/16 38/38/38 40/40/40 
f 63/63/63 61/61/61 42/42/42 44/44/44 
f 60/60/60 63/63/63 44/44/44 46/46/46 
s 1
f 64/64/64 65/65/65 66/66/66 
f 67/67/67 68/68/68 66/66/66 
f 68/68/68 69/69/69 66/66/66 
f 69/69/69 70/70/70 66/66/66 
f 71/71/71 67/67/67 66/66/66 
f 65/65/65 71/71/71 66/66/66 
f 72/72/72 11/11/11 73/73/73 
f 73/73/73 11/11/11 74/74/74 
f 74/74/74 11/11/11 75/75/75 
f 75/75/75 11/11/11 76/76/76 
f 76/76/76 11/11/11 77/77/77 
f 77/77/77 11/11/11 78/78/78 
s 2
f 79/79/79 17/17/17 20/20/20 80/80/80 
f 81/81/81 82/82/82 83/83/83 84/84/84 
f 85/85/85 79/79/79 80/80/80 86/86/86 
f 87/87/87 85/85/85 86/86/86 88/88/88 
f 82/82/82 89/89/89 90/90/90 83/83/83 
f 89/89/89 91/91/91 92/92/92 90/90/90 
f 91/91/91 93/93/93 94/94/94 92/92/92 
f 93/93/93 95/95/95 96/96/96 94/94/94 
f 95/95/95 97/97/97 98/98/98 96/96/96 
f 97/97/97 99/99/99 100/100/100 98/98/98 
f 99/99/99 101/101/101 102/102/102 100/100/100 
f 101/101/101 103/103/103 104/104/104 102/102/102 
f 103/103/103 105/105/105 106/106/106 104/104/104 
f 105/105/105 107/107/107 108/108/108 106/106/106 
f 107/107/107 109/109/109 110/110/110 108/108/108 
f 109/109/109 111/111/111 112/112/112 110/110/110 
f 111/111/111 113/113/113 114/114/114 112/112/112 
f 113/113/113 115/115/115 116/116/116 114/114/114 
f 115/115/115 117/117/117 118/118/118 116/116/116 
f 117/117/117 87/87/87 88/88/88 118/118/118 
f 65/65/65 64/64/64 83/83/83 90/90/90 
f 64/64/64 66/66/66 84/84/84 83/83/83 
f 68/68/68 67/67/67 94/94/94 96/96/96 
f 69/69/69 68/68/68 96/96/96 98/98/98 
f 70/70/70 69/69/69 98/98/98 100/100/100 
f 67/67/67 71/71/71 92/92/92 94/94/94 
f 71/71/71 65/65/65 90/90/90 92/92/92 
f 11/11/11 72/72/72 80/80/80 20/20/20 
f 72/72/72 73/73/73 86/86/86 80/80/80 
f 73/73/73 74/74/74 88/88/88 86/86/86 
f 74/74/74 75/75/75 118/118/118 88/88/88 
f 75/75/75 76/76/76 116/116/116 118/118/118 
f 76/76/76 77/77/77 114/114/114 116/116/116 
f 77/77/77 78/78/78 112/112/112 114/114/114 
f 119/119/119 70/70/70 100/100/100 102/102/102 
f 120/120/120 119/119/119 102/102/102 104/104/104 
f 121/121/121 122/122/122 108/108/108 110/110/110 
f 78/78/78 121/121/121 110/110/110 112/112/112 
f 122/122/122 123/123/123 106/106/106 108/108/108 
f 123/123/123 120/120/120 104/104/104 106/106/106 
s 4
f 124/124/124 125/125/125 126/126/126 127/127/127 
s 2
f 22/22/22 126/126/126 128/128/128 23/23/23 
f 129/129/129 130/130/130 128/128/128 131/131/131 
s off
f 125/125/125 124/124/124 132/132/132 133/133/133 
f 131/131/131 125/125/125 133/133/133 134/134/134 
f 129/129/129 131/131/131 134/134/134 135/135/135 
f 78/78/78 11/11/11 16/16/16 
f 78/78/78 16/16/16 62/62/62 121/121/121 
f 121/121/121 62/62/62 61/61/61 122/122/122 
f 122/122/122 61/61/61 63/63/63 123/123/123 
f 120/120/120 123/123/123 63/63/63 60/60/60 
f 70/70/70 119/119/119 66/66/66 
f 59/59/59 8/8/8 2/2/2 
f 60/60/60 59/59/59 129/129/129 
f 119/119/119 120/120/120 129/129/129 
f 120/120/120 60/60/60 129/129/129 
f 66/66/66 119/119/119 129/129/129 135/135/135 
f 59/59/59 2/2/2 130/130/130 129/129/129 
f 132/132/132 136/136/136 81/81/81 133/133/133 
f 133/133/133 81/81/81 84/84/84 134/134/134 
f 134/134/134 84/84/84 66/66/66 135/135/135 
s 4
f 126/126/126 22/22/22 137/137/137 127/127/127 
s 2
f 126/126/126 125/125/125 131/131/131 128/128/128 
f 130/130/130 2/2/2 23/23/23 128/128/128 
# 98 polygons - 30 triangles

