# 3ds Max Wavefront OBJ Exporter v0.99 - (c)2007 guruware
# File Created: 27.11.2023 09:22:05

mtllib Diagonal RTL Knobs.mtl

#
# object PuzzleStraightDiagonalRTLKnobs
#

v  -417.5825 -29.5275 -0.0005
v  0.0002 -29.5275 417.5818
v  0.0002 22.6055 417.5818
v  -417.5825 22.6055 -0.0005
v  417.5825 -29.5275 -0.0005
v  -0.0002 -29.5275 -417.5830
v  -0.0002 22.6055 -417.5830
v  417.5825 22.6055 -0.0005
v  244.1692 29.5275 163.6228
v  208.7915 29.5275 208.7903
v  239.8489 29.5275 185.3792
v  163.6243 29.5275 244.1682
v  185.3794 29.5275 239.8486
v  261.8574 29.5275 213.8267
v  297.7822 29.5275 297.7817
v  282.4678 29.5275 218.1609
v  213.8274 29.5275 261.8569
v  218.1619 29.5275 282.4670
v  296.0635 29.5275 226.4502
v  226.4514 29.5275 296.0627
v  308.3049 29.5275 238.6909
v  238.6924 29.5275 308.3035
v  316.7405 29.5275 258.8386
v  258.8394 29.5275 316.7400
v  310.8613 29.5275 282.7156
v  282.7168 29.5275 310.8601
v  203.9392 29.5275 246.0203
v  246.0208 29.5275 203.9382
v  -163.6238 29.5275 -244.1699
v  -185.3799 29.5275 -239.8499
v  -208.7915 29.5275 -208.7917
v  -239.8494 29.5275 -185.3806
v  -244.1895 29.5275 -163.6221
v  -213.8276 29.5275 -261.8582
v  -218.1619 29.5275 -282.4683
v  -297.7825 29.5275 -297.7827
v  -282.4678 29.5275 -218.1621
v  -261.8574 29.5275 -213.8284
v  -226.4514 29.5275 -296.0640
v  -296.0637 29.5275 -226.4524
v  -238.6921 29.5275 -308.3052
v  -308.3047 29.5275 -238.6931
v  -258.8398 29.5275 -316.7410
v  -316.7410 29.5275 -258.8398
v  -282.7163 29.5275 -310.8616
v  -310.8613 29.5275 -282.7168
v  -246.0210 29.5275 -203.9397
v  -203.9392 29.5275 -246.0217
v  -407.7937 29.5275 -0.0005
v  0.0002 29.5275 407.8105
v  0.0000 29.5275 -407.8120
v  407.7930 29.5275 -0.0007
v  -0.0002 27.4420 415.1599
v  -415.1353 27.7970 -0.0005
v  167.0334 22.6055 250.5486
v  166.3792 28.1989 249.3242
v  302.0852 22.6055 302.0840
v  315.8499 22.6055 285.1316
v  314.6023 27.7970 284.5276
v  301.3076 28.2770 301.3069
v  -0.2927 27.0052 -415.4539
v  415.1353 27.7970 -0.0005
v  250.5496 22.6055 167.0327
v  249.0530 27.9038 166.2329
v  285.1323 22.6055 315.8489
v  284.5281 27.7970 314.6016
v  246.9954 22.6055 184.9319
v  245.2087 27.7970 185.0437
v  185.0442 27.7970 245.2078
v  184.9326 22.6055 246.9946
v  285.0557 22.6055 211.6318
v  264.4824 22.6055 207.3052
v  263.8264 27.7970 208.9360
v  284.4087 27.7970 213.2642
v  208.9368 27.7970 263.8254
v  213.2644 27.7970 284.4082
v  207.3062 22.6055 264.4819
v  211.6326 22.6055 285.0552
v  300.3730 22.6055 220.9714
v  299.2957 27.7970 222.3413
v  222.3416 27.7970 299.2952
v  220.9717 22.6055 300.3721
v  314.4048 22.6055 235.0024
v  312.8799 27.7970 235.9246
v  235.9255 27.7970 312.8787
v  235.0032 22.6055 314.4043
v  321.7737 22.6055 258.6316
v  320.5159 27.7970 258.6833
v  258.6838 27.7970 320.5151
v  258.6321 22.6055 321.7737
v  251.8022 22.6055 199.3877
v  250.3787 27.8232 200.5083
v  199.3884 22.6055 251.8015
v  200.2312 28.2454 250.7305
v  -250.5493 22.6055 -167.0339
v  -248.4324 28.0847 -165.5315
v  -285.1321 22.6055 -315.8501
v  -302.0847 22.6055 -302.0852
v  -301.3074 28.2770 -301.3081
v  -284.5288 27.7970 -314.6028
v  -167.0332 22.6055 -250.5498
v  -166.3787 28.1989 -249.3252
v  -315.8496 22.6055 -285.1331
v  -314.6028 27.7970 -284.5288
v  -184.9326 22.6055 -246.9958
v  -185.0447 27.7970 -245.2090
v  -245.2087 27.7970 -185.0449
v  -246.9954 22.6055 -184.9331
v  -207.3064 22.6055 -264.4829
v  -211.6328 22.6055 -285.0564
v  -213.2649 27.7970 -284.4092
v  -208.9365 27.7970 -263.8267
v  -284.4089 27.7970 -213.2649
v  -263.8264 27.7970 -208.9370
v  -285.0559 22.6055 -211.6328
v  -264.4824 22.6055 -207.3064
v  -220.9719 22.6055 -300.3740
v  -222.3420 27.7970 -299.2964
v  -299.2961 27.7970 -222.3423
v  -300.3733 22.6055 -220.9724
v  -235.0032 22.6055 -314.4058
v  -235.9255 27.7970 -312.8804
v  -312.8799 27.7970 -235.9265
v  -314.4050 22.6055 -235.0039
v  -258.6323 22.6055 -321.7747
v  -258.6841 27.7970 -320.5164
v  -320.5159 27.7970 -258.6843
v  -321.7744 22.6055 -258.6323
v  -199.3882 22.6055 -251.8030
v  -200.2317 28.2454 -250.7322
v  -251.8025 22.6055 -199.3892
v  -250.3789 27.8232 -200.5095
# 132 vertices

vn -0.7071 0.0000 0.7071
vn -0.3579 0.2686 0.8943
vn -0.8989 0.2561 0.3556
vn 0.7071 0.0000 -0.7071
vn 0.3665 0.2610 -0.8930
vn 0.8989 0.2561 -0.3556
vn 0.1022 0.9933 0.0546
vn 0.0000 1.0000 -0.0000
vn 0.1299 0.9915 -0.0081
vn 0.0428 0.9959 0.0801
vn -0.0081 0.9915 0.1299
vn 0.0525 0.9901 -0.1305
vn 0.0905 0.9918 0.0905
vn 0.0644 0.9846 -0.1624
vn -0.1305 0.9901 0.0525
vn -0.1623 0.9846 0.0644
vn 0.1056 0.9853 -0.1343
vn -0.1343 0.9853 0.1056
vn 0.1445 0.9846 -0.0984
vn -0.0984 0.9846 0.1445
vn 0.2528 0.9673 -0.0219
vn -0.0219 0.9673 0.2528
vn 0.1985 0.9746 0.1041
vn 0.1041 0.9746 0.1985
vn -0.0508 0.9966 0.0646
vn 0.0914 0.9932 -0.0719
vn -0.0428 0.9959 -0.0801
vn 0.0081 0.9915 -0.1299
vn -0.1298 0.9915 0.0081
vn -0.1084 0.9925 -0.0567
vn 0.1304 0.9901 -0.0525
vn 0.1623 0.9846 -0.0644
vn -0.0905 0.9918 -0.0905
vn -0.0644 0.9846 0.1623
vn -0.0525 0.9901 0.1304
vn 0.1343 0.9853 -0.1056
vn -0.1056 0.9853 0.1343
vn 0.0984 0.9846 -0.1445
vn -0.1445 0.9846 0.0984
vn 0.0219 0.9673 -0.2528
vn -0.2528 0.9673 0.0220
vn -0.1040 0.9746 -0.1985
vn -0.1985 0.9746 -0.1041
vn -0.0914 0.9932 0.0719
vn 0.0508 0.9966 -0.0646
vn -0.1713 0.9852 0.0000
vn 0.0000 0.9791 0.2035
vn 0.0109 0.9723 -0.2337
vn 0.1713 0.9852 0.0000
vn -0.0014 0.6862 0.7274
vn -0.7264 0.6872 -0.0011
vn 0.4574 0.2409 0.8560
vn 0.3155 0.7656 0.5606
vn 0.6942 0.1903 0.6942
vn 0.8696 0.2579 0.4211
vn 0.7049 0.6271 0.3313
vn 0.5232 0.6726 0.5233
vn -0.0240 0.6695 -0.7424
vn 0.7262 0.6875 -0.0006
vn 0.8400 0.3050 0.4488
vn 0.5695 0.7618 0.3087
vn 0.4211 0.2580 0.8696
vn 0.3313 0.6271 0.7049
vn 0.9435 0.3260 -0.0591
vn 0.6573 0.7527 -0.0381
vn -0.0462 0.7531 0.6563
vn -0.0591 0.3260 0.9435
vn 0.3491 0.3204 -0.8806
vn 0.3537 0.3207 -0.8787
vn 0.2539 0.7361 -0.6274
vn 0.2678 0.6868 -0.6757
vn -0.6196 0.7362 0.2722
vn -0.6757 0.6868 0.2678
vn -0.8787 0.3207 0.3537
vn -0.8806 0.3203 0.3491
vn 0.5861 0.3182 -0.7451
vn 0.4462 0.6921 -0.5674
vn -0.5674 0.6921 0.4463
vn -0.7452 0.3182 0.5861
vn 0.8094 0.3247 -0.4894
vn 0.6216 0.6820 -0.3852
vn -0.3852 0.6821 0.6216
vn -0.4894 0.3248 0.8093
vn 0.9710 0.2357 -0.0400
vn 0.7979 0.6015 -0.0394
vn -0.0394 0.6015 0.7979
vn -0.0400 0.2358 0.9710
vn 0.7423 0.3280 -0.5843
vn 0.4995 0.7720 -0.3931
vn -0.6012 0.2348 0.7638
vn -0.3885 0.7775 0.4946
vn -0.8032 0.4249 -0.4176
vn -0.5322 0.7959 -0.2888
vn -0.4211 0.2579 -0.8696
vn -0.6942 0.1903 -0.6942
vn -0.5232 0.6726 -0.5232
vn -0.3313 0.6271 -0.7050
vn -0.4574 0.2409 -0.8560
vn -0.3151 0.7660 -0.5604
vn -0.8696 0.2578 -0.4211
vn -0.7050 0.6271 -0.3313
vn 0.0591 0.3260 -0.9435
vn 0.0462 0.7531 -0.6563
vn -0.6607 0.7492 0.0475
vn -0.9435 0.3260 0.0591
vn 0.8787 0.3206 -0.3538
vn 0.8806 0.3203 -0.3491
vn 0.6757 0.6868 -0.2678
vn 0.6197 0.7361 -0.2722
vn -0.2678 0.6868 0.6757
vn -0.2539 0.7361 0.6274
vn -0.3491 0.3204 0.8806
vn -0.3537 0.3206 0.8787
vn 0.7451 0.3183 -0.5860
vn 0.5673 0.6921 -0.4462
vn -0.4463 0.6921 0.5674
vn -0.5861 0.3182 0.7452
vn 0.4894 0.3247 -0.8093
vn 0.3852 0.6821 -0.6216
vn -0.6216 0.6821 0.3852
vn -0.8093 0.3247 0.4894
vn 0.0400 0.2358 -0.9710
vn 0.0394 0.6015 -0.7979
vn -0.7979 0.6015 0.0394
vn -0.9710 0.2358 0.0400
vn 0.6012 0.2349 -0.7638
vn 0.3885 0.7775 -0.4945
vn -0.7423 0.3280 0.5843
vn -0.4995 0.7720 0.3931
# 129 vertex normals

vt 0.1585 0.0000 0.0000
vt 0.8420 0.0010 0.0000
vt 0.8419 0.0611 0.0000
vt 0.1584 0.0602 0.0000
vt 0.8415 0.8111 0.0000
vt 0.1580 0.8099 0.0000
vt 0.1581 0.7497 0.0000
vt 0.8416 0.7509 0.0000
vt 0.8338 0.4714 0.0000
vt 0.8418 0.4055 0.0000
vt 0.8480 0.4499 0.0000
vt 0.8337 0.3397 0.0000
vt 0.8479 0.3612 0.0000
vt 0.8895 0.4447 0.0000
vt 0.9874 0.4055 0.0000
vt 0.9101 0.4578 0.0000
vt 0.8895 0.3663 0.0000
vt 0.9101 0.3532 0.0000
vt 0.9280 0.4621 0.0000
vt 0.9279 0.3489 0.0000
vt 0.9479 0.4620 0.0000
vt 0.9478 0.3489 0.0000
vt 0.9711 0.4524 0.0000
vt 0.9710 0.3585 0.0000
vt 0.9857 0.4283 0.0000
vt 0.9857 0.3826 0.0000
vt 0.8683 0.3712 0.0000
vt 0.8684 0.4398 0.0000
vt 0.1663 0.4714 0.0000
vt 0.1521 0.4499 0.0000
vt 0.1582 0.4055 0.0000
vt 0.1520 0.3612 0.0000
vt 0.1662 0.3396 0.0000
vt 0.1105 0.4447 0.0000
vt 0.0899 0.4578 0.0000
vt 0.0126 0.4056 0.0000
vt 0.0898 0.3533 0.0000
vt 0.1104 0.3664 0.0000
vt 0.0721 0.4622 0.0000
vt 0.0720 0.3490 0.0000
vt 0.0522 0.4621 0.0000
vt 0.0521 0.3491 0.0000
vt 0.0290 0.4526 0.0000
vt 0.0289 0.3587 0.0000
vt 0.0143 0.4285 0.0000
vt 0.0143 0.3828 0.0000
vt 0.1316 0.3712 0.0000
vt 0.1317 0.4399 0.0000
vt 0.1682 0.0721 0.0000
vt 0.8321 0.0728 0.0000
vt 0.1679 0.7382 0.0000
vt 0.8318 0.7389 0.0000
vt 0.8383 0.0665 0.0000
vt 0.1621 0.0659 0.0000
vt 0.8469 0.3368 0.0000
vt 0.8403 0.3376 0.0000
vt 1.0000 0.4054 0.0000
vt 0.9964 0.4323 0.0000
vt 0.9906 0.4300 0.0000
vt 0.9933 0.4055 0.0000
vt 0.1612 0.7448 0.0000
vt 0.8379 0.7452 0.0000
vt 0.8467 0.4742 0.0000
vt 0.8403 0.4733 0.0000
vt 0.9964 0.3787 0.0000
vt 0.9906 0.3809 0.0000
vt 0.8563 0.4593 0.0000
vt 0.8522 0.4547 0.0000
vt 0.8521 0.3564 0.0000
vt 0.8564 0.3518 0.0000
vt 0.9054 0.4693 0.0000
vt 0.8848 0.4564 0.0000
vt 0.8872 0.4506 0.0000
vt 0.9078 0.4636 0.0000
vt 0.8871 0.3604 0.0000
vt 0.9078 0.3474 0.0000
vt 0.8848 0.3544 0.0000
vt 0.9054 0.3416 0.0000
vt 0.9266 0.4747 0.0000
vt 0.9273 0.4684 0.0000
vt 0.9272 0.3426 0.0000
vt 0.9265 0.3362 0.0000
vt 0.9510 0.4744 0.0000
vt 0.9495 0.4683 0.0000
vt 0.9494 0.3427 0.0000
vt 0.9511 0.3366 0.0000
vt 0.9784 0.4605 0.0000
vt 0.9743 0.4559 0.0000
vt 0.9742 0.3550 0.0000
vt 0.9784 0.3505 0.0000
vt 0.8698 0.4528 0.0000
vt 0.8692 0.4465 0.0000
vt 0.8700 0.3575 0.0000
vt 0.8692 0.3642 0.0000
vt 0.1538 0.3368 0.0000
vt 0.1608 0.3376 0.0000
vt 0.0036 0.4324 0.0000
vt 0.0000 0.4056 0.0000
vt 0.0067 0.4056 0.0000
vt 0.0094 0.4302 0.0000
vt 0.1531 0.4742 0.0000
vt 0.1597 0.4734 0.0000
vt 0.0036 0.3788 0.0000
vt 0.0094 0.3810 0.0000
vt 0.1436 0.4593 0.0000
vt 0.1479 0.4547 0.0000
vt 0.1478 0.3564 0.0000
vt 0.1437 0.3518 0.0000
vt 0.1152 0.4567 0.0000
vt 0.0947 0.4695 0.0000
vt 0.0923 0.4637 0.0000
vt 0.1129 0.4507 0.0000
vt 0.0922 0.3475 0.0000
vt 0.1128 0.3604 0.0000
vt 0.0946 0.3417 0.0000
vt 0.1152 0.3546 0.0000
vt 0.0735 0.4748 0.0000
vt 0.0728 0.4685 0.0000
vt 0.0727 0.3426 0.0000
vt 0.0734 0.3364 0.0000
vt 0.0489 0.4745 0.0000
vt 0.0506 0.4684 0.0000
vt 0.0505 0.3428 0.0000
vt 0.0489 0.3367 0.0000
vt 0.0216 0.4606 0.0000
vt 0.0258 0.4561 0.0000
vt 0.0257 0.3551 0.0000
vt 0.0216 0.3506 0.0000
vt 0.1300 0.4535 0.0000
vt 0.1308 0.4469 0.0000
vt 0.1302 0.3583 0.0000
vt 0.1308 0.3646 0.0000
# 132 texture coords

o PuzzleStraightDiagonalRTLKnobs
g PuzzleStraightDiagonalRTLKnobs
usemtl wire_225198087
s 2
f 1/1/1 2/2/1 3/3/2 4/4/3 
f 5/5/4 6/6/4 7/7/5 8/8/6 
s 1
f 9/9/7 10/10/8 11/11/9 
f 10/10/8 12/12/10 13/13/11 
f 14/14/12 15/15/13 16/16/14 
f 15/15/13 17/17/15 18/18/16 
f 16/16/14 15/15/13 19/19/17 
f 15/15/13 18/18/16 20/20/18 
f 19/19/17 15/15/13 21/21/19 
f 15/15/13 20/20/18 22/22/20 
f 21/21/19 15/15/13 23/23/21 
f 15/15/13 22/22/20 24/24/22 
f 23/23/21 15/15/13 25/25/23 
f 15/15/13 24/24/22 26/26/24 
f 10/10/8 27/27/25 15/15/13 
f 10/10/8 28/28/26 11/11/9 
f 13/13/11 27/27/25 10/10/8 
f 27/27/25 17/17/15 15/15/13 
f 15/15/13 14/14/12 28/28/26 
f 15/15/13 28/28/26 10/10/8 
f 29/29/27 30/30/28 31/31/8 
f 31/31/8 32/32/29 33/33/30 
f 34/34/31 35/35/32 36/36/33 
f 36/36/33 37/37/34 38/38/35 
f 35/35/32 39/39/36 36/36/33 
f 36/36/33 40/40/37 37/37/34 
f 39/39/36 41/41/38 36/36/33 
f 36/36/33 42/42/39 40/40/37 
f 41/41/38 43/43/40 36/36/33 
f 36/36/33 44/44/41 42/42/39 
f 43/43/40 45/45/42 36/36/33 
f 36/36/33 46/46/43 44/44/41 
f 31/31/8 36/36/33 47/47/44 
f 31/31/8 30/30/28 48/48/45 
f 32/32/29 31/31/8 47/47/44 
f 47/47/44 36/36/33 38/38/35 
f 36/36/33 48/48/45 34/34/31 
f 36/36/33 31/31/8 48/48/45 
f 33/33/30 49/49/46 50/50/47 
f 31/31/8 33/33/30 50/50/47 
f 29/29/27 31/31/8 50/50/47 
f 51/51/48 29/29/27 50/50/47 
f 9/9/7 52/52/49 51/51/48 
f 10/10/8 9/9/7 51/51/48 
f 12/12/10 10/10/8 51/51/48 
f 50/50/47 12/12/10 51/51/48 
s 4
f 4/4/3 3/3/2 53/53/50 54/54/51 
f 3/3/2 55/55/52 56/56/53 53/53/50 
f 57/57/54 58/58/55 59/59/56 60/60/57 
f 8/8/6 7/7/5 61/61/58 62/62/59 
f 63/63/60 8/8/6 62/62/59 64/64/61 
f 65/65/62 57/57/54 60/60/57 66/66/63 
f 67/67/64 63/63/60 64/64/61 68/68/65 
f 9/9/7 11/11/9 68/68/65 64/64/61 
f 13/13/11 12/12/10 56/56/53 69/69/66 
f 55/55/52 70/70/67 69/69/66 56/56/53 
f 71/71/68 72/72/69 73/73/70 74/74/71 
f 14/14/12 16/16/14 74/74/71 73/73/70 
f 18/18/16 17/17/15 75/75/72 76/76/73 
f 77/77/74 78/78/75 76/76/73 75/75/72 
f 79/79/76 71/71/68 74/74/71 80/80/77 
f 16/16/14 19/19/17 80/80/77 74/74/71 
f 20/20/18 18/18/16 76/76/73 81/81/78 
f 78/78/75 82/82/79 81/81/78 76/76/73 
f 83/83/80 79/79/76 80/80/77 84/84/81 
f 19/19/17 21/21/19 84/84/81 80/80/77 
f 22/22/20 20/20/18 81/81/78 85/85/82 
f 82/82/79 86/86/83 85/85/82 81/81/78 
f 87/87/84 83/83/80 84/84/81 88/88/85 
f 21/21/19 23/23/21 88/88/85 84/84/81 
f 24/24/22 22/22/20 85/85/82 89/89/86 
f 86/86/83 90/90/87 89/89/86 85/85/82 
f 58/58/55 87/87/84 88/88/85 59/59/56 
f 25/25/23 15/15/13 60/60/57 59/59/56 
f 23/23/21 25/25/23 59/59/56 88/88/85 
f 26/26/24 24/24/22 89/89/86 66/66/63 
f 15/15/13 26/26/24 66/66/63 60/60/57 
f 90/90/87 65/65/62 66/66/63 89/89/86 
f 72/72/69 91/91/88 92/92/89 73/73/70 
f 93/93/90 77/77/74 75/75/72 94/94/91 
f 91/91/88 67/67/64 68/68/65 92/92/89 
f 11/11/9 28/28/26 92/92/89 68/68/65 
f 27/27/25 13/13/11 69/69/66 94/94/91 
f 70/70/67 93/93/90 94/94/91 69/69/66 
f 17/17/15 27/27/25 94/94/91 75/75/72 
f 28/28/26 14/14/12 73/73/70 92/92/89 
f 95/95/92 4/4/3 54/54/51 96/96/93 
f 97/97/94 98/98/95 99/99/96 100/100/97 
f 7/7/5 101/101/98 102/102/99 61/61/58 
f 98/98/95 103/103/100 104/104/101 99/99/96 
f 101/101/98 105/105/102 106/106/103 102/102/99 
f 30/30/28 29/29/27 102/102/99 106/106/103 
f 33/33/30 32/32/29 107/107/104 96/96/93 
f 108/108/105 95/95/92 96/96/93 107/107/104 
f 109/109/106 110/110/107 111/111/108 112/112/109 
f 35/35/32 34/34/31 112/112/109 111/111/108 
f 38/38/35 37/37/34 113/113/110 114/114/111 
f 115/115/112 116/116/113 114/114/111 113/113/110 
f 110/110/107 117/117/114 118/118/115 111/111/108 
f 39/39/36 35/35/32 111/111/108 118/118/115 
f 37/37/34 40/40/37 119/119/116 113/113/110 
f 120/120/117 115/115/112 113/113/110 119/119/116 
f 117/117/114 121/121/118 122/122/119 118/118/115 
f 41/41/38 39/39/36 118/118/115 122/122/119 
f 40/40/37 42/42/39 123/123/120 119/119/116 
f 124/124/121 120/120/117 119/119/116 123/123/120 
f 121/121/118 125/125/122 126/126/123 122/122/119 
f 43/43/40 41/41/38 122/122/119 126/126/123 
f 42/42/39 44/44/41 127/127/124 123/123/120 
f 128/128/125 124/124/121 123/123/120 127/127/124 
f 125/125/122 97/97/94 100/100/97 126/126/123 
f 45/45/42 43/43/40 126/126/123 100/100/97 
f 36/36/33 45/45/42 100/100/97 99/99/96 
f 46/46/43 36/36/33 99/99/96 104/104/101 
f 44/44/41 46/46/43 104/104/101 127/127/124 
f 103/103/100 128/128/125 127/127/124 104/104/101 
f 129/129/126 109/109/106 112/112/109 130/130/127 
f 116/116/113 131/131/128 132/132/129 114/114/111 
f 105/105/102 129/129/126 130/130/127 106/106/103 
f 48/48/45 30/30/28 106/106/103 130/130/127 
f 32/32/29 47/47/44 132/132/129 107/107/104 
f 131/131/128 108/108/105 107/107/104 132/132/129 
f 47/47/44 38/38/35 114/114/111 132/132/129 
f 34/34/31 48/48/45 130/130/127 112/112/109 
f 49/49/46 33/33/30 96/96/93 54/54/51 
f 50/50/47 49/49/46 54/54/51 53/53/50 
f 29/29/27 51/51/48 61/61/58 102/102/99 
f 52/52/49 9/9/7 64/64/61 62/62/59 
f 51/51/48 52/52/49 62/62/59 61/61/58 
f 12/12/10 50/50/47 53/53/50 56/56/53 
# 86 polygons - 44 triangles

