# 3ds Max Wavefront OBJ Exporter v0.99 - (c)2007 guruware
# File Created: 27.11.2023 09:21:42

mtllib Diagonal LTR Knobs.mtl

#
# object PuzzleStraightDiagonalLTRKnobs
#

v  0.0005 -29.5275 417.5820
v  417.5830 -29.5275 -0.0002
v  417.5830 22.6055 -0.0002
v  0.0005 22.6055 417.5820
v  0.0005 -29.5275 -417.5828
v  -417.5820 -29.5275 -0.0005
v  -417.5820 22.6055 -0.0005
v  0.0005 22.6055 -417.5828
v  163.6245 29.5275 -244.1699
v  208.7917 29.5275 -208.7915
v  185.3801 29.5275 -239.8494
v  244.1697 29.5275 -163.6248
v  239.8494 29.5275 -185.3801
v  213.8281 29.5275 -261.8577
v  297.7830 29.5275 -297.7827
v  218.1619 29.5275 -282.4678
v  261.8579 29.5275 -213.8279
v  282.4680 29.5275 -218.1616
v  226.4517 29.5275 -296.0640
v  296.0640 29.5275 -226.4517
v  238.6926 29.5275 -308.3047
v  308.3049 29.5275 -238.6924
v  258.8398 29.5275 -316.7412
v  316.7410 29.5275 -258.8401
v  282.7168 29.5275 -310.8618
v  310.8613 29.5275 -282.7168
v  246.0210 29.5275 -203.9395
v  203.9397 29.5275 -246.0210
v  -244.1687 29.5275 163.6238
v  -239.8486 29.5275 185.3799
v  -208.7908 29.5275 208.7908
v  -185.3796 29.5275 239.8489
v  -163.6211 29.5275 244.1890
v  -261.8569 29.5275 213.8271
v  -282.4675 29.5275 218.1614
v  -297.7815 29.5275 297.7820
v  -218.1609 29.5275 282.4670
v  -213.8274 29.5275 261.8572
v  -296.0627 29.5275 226.4507
v  -226.4507 29.5275 296.0630
v  -308.3042 29.5275 238.6919
v  -238.6914 29.5275 308.3037
v  -316.7400 29.5275 258.8391
v  -258.8389 29.5275 316.7402
v  -310.8608 29.5275 282.7163
v  -282.7163 29.5275 310.8608
v  -203.9390 29.5275 246.0205
v  -246.0203 29.5275 203.9385
v  0.0002 29.5275 407.7927
v  407.8115 29.5275 -0.0005
v  -407.8105 29.5275 -0.0005
v  0.0005 29.5275 -407.7939
v  415.1609 27.4420 -0.0000
v  0.0005 27.7970 415.1348
v  250.5500 22.6055 -167.0332
v  249.3254 28.1989 -166.3792
v  302.0854 22.6055 -302.0854
v  285.1328 22.6055 -315.8501
v  284.5288 27.7970 -314.6028
v  301.3081 28.2770 -301.3079
v  -415.4524 27.0052 0.2915
v  0.0005 27.7970 -415.1356
v  167.0334 22.6055 -250.5498
v  166.2334 27.9038 -249.0532
v  315.8499 22.6055 -285.1326
v  314.6030 27.7970 -284.5286
v  184.9333 22.6055 -246.9958
v  185.0444 27.7970 -245.2090
v  245.2092 27.7970 -185.0447
v  246.9956 22.6055 -184.9329
v  211.6328 22.6055 -285.0562
v  207.3064 22.6055 -264.4832
v  208.9370 27.7970 -263.8267
v  213.2651 27.7970 -284.4092
v  263.8269 27.7970 -208.9368
v  284.4092 27.7970 -213.2651
v  264.4829 22.6055 -207.3066
v  285.0562 22.6055 -211.6328
v  220.9722 22.6055 -300.3735
v  222.3423 27.7970 -299.2961
v  299.2959 27.7970 -222.3418
v  300.3733 22.6055 -220.9717
v  235.0037 22.6055 -314.4053
v  235.9260 27.7970 -312.8801
v  312.8801 27.7970 -235.9260
v  314.4053 22.6055 -235.0037
v  258.6323 22.6055 -321.7749
v  258.6843 27.7970 -320.5164
v  320.5161 27.7970 -258.6841
v  321.7747 22.6055 -258.6326
v  199.3887 22.6055 -251.8027
v  200.5093 27.8232 -250.3792
v  251.8030 22.6055 -199.3889
v  250.7319 28.2454 -200.2319
v  -167.0325 22.6055 250.5491
v  -165.5305 28.0847 248.4319
v  -315.8496 22.6055 285.1318
v  -302.0847 22.6055 302.0847
v  -301.3074 28.2770 301.3079
v  -314.6021 27.7970 284.5278
v  -250.5491 22.6055 167.0325
v  -249.3247 28.1989 166.3784
v  -285.1313 22.6055 315.8491
v  -284.5278 27.7970 314.6021
v  -246.9946 22.6055 184.9321
v  -245.2078 27.7970 185.0437
v  -185.0442 27.7970 245.2083
v  -184.9321 22.6055 246.9946
v  -264.4824 22.6055 207.3057
v  -285.0552 22.6055 211.6318
v  -284.4080 27.7970 213.2639
v  -263.8257 27.7970 208.9360
v  -213.2639 27.7970 284.4080
v  -208.9360 27.7970 263.8262
v  -211.6318 22.6055 285.0552
v  -207.3054 22.6055 264.4827
v  -300.3730 22.6055 220.9712
v  -299.2952 27.7970 222.3411
v  -222.3411 27.7970 299.2952
v  -220.9714 22.6055 300.3728
v  -314.4048 22.6055 235.0034
v  -312.8794 27.7970 235.9253
v  -235.9253 27.7970 312.8794
v  -235.0029 22.6055 314.4043
v  -321.7739 22.6055 258.6313
v  -320.5159 27.7970 258.6833
v  -258.6836 27.7970 320.5156
v  -258.6311 22.6055 321.7737
v  -251.8018 22.6055 199.3877
v  -250.7307 28.2454 200.2307
v  -199.3882 22.6055 251.8022
v  -200.5083 27.8232 250.3784
# 132 vertices

vn 0.7071 0.0000 0.7071
vn 0.8943 0.2686 0.3579
vn 0.3556 0.2561 0.8989
vn -0.7071 0.0000 -0.7071
vn -0.8930 0.2610 -0.3665
vn -0.3556 0.2561 -0.8989
vn 0.0546 0.9933 -0.1022
vn 0.0000 1.0000 -0.0000
vn -0.0081 0.9915 -0.1299
vn 0.0801 0.9959 -0.0428
vn 0.1299 0.9915 0.0081
vn -0.1305 0.9901 -0.0525
vn 0.0905 0.9918 -0.0905
vn -0.1624 0.9846 -0.0644
vn 0.0525 0.9901 0.1304
vn 0.0644 0.9846 0.1624
vn -0.1343 0.9853 -0.1056
vn 0.1056 0.9853 0.1343
vn -0.0984 0.9846 -0.1445
vn 0.1445 0.9846 0.0984
vn -0.0220 0.9673 -0.2528
vn 0.2528 0.9673 0.0219
vn 0.1041 0.9746 -0.1985
vn 0.1985 0.9746 -0.1041
vn 0.0646 0.9966 0.0508
vn -0.0719 0.9932 -0.0914
vn -0.0801 0.9959 0.0428
vn -0.1299 0.9915 -0.0081
vn 0.0081 0.9915 0.1298
vn -0.0567 0.9925 0.1084
vn -0.0525 0.9901 -0.1304
vn -0.0644 0.9846 -0.1623
vn -0.0905 0.9918 0.0905
vn 0.1623 0.9846 0.0644
vn 0.1304 0.9901 0.0525
vn -0.1056 0.9853 -0.1343
vn 0.1343 0.9853 0.1056
vn -0.1445 0.9846 -0.0984
vn 0.0984 0.9846 0.1445
vn -0.2528 0.9673 -0.0219
vn 0.0220 0.9673 0.2528
vn -0.1985 0.9746 0.1041
vn -0.1041 0.9746 0.1985
vn 0.0719 0.9932 0.0914
vn -0.0646 0.9966 -0.0508
vn 0.0000 0.9852 0.1713
vn 0.2035 0.9791 -0.0000
vn -0.2337 0.9723 -0.0108
vn 0.0000 0.9852 -0.1713
vn 0.7274 0.6862 0.0014
vn -0.0011 0.6872 0.7264
vn 0.8560 0.2409 -0.4574
vn 0.5606 0.7656 -0.3155
vn 0.6942 0.1903 -0.6942
vn 0.4211 0.2579 -0.8696
vn 0.3313 0.6271 -0.7050
vn 0.5232 0.6726 -0.5233
vn -0.7424 0.6695 0.0239
vn -0.0006 0.6875 -0.7262
vn 0.4488 0.3051 -0.8400
vn 0.3087 0.7618 -0.5695
vn 0.8696 0.2579 -0.4211
vn 0.7050 0.6271 -0.3313
vn -0.0591 0.3260 -0.9435
vn -0.0381 0.7527 -0.6573
vn 0.6563 0.7531 0.0462
vn 0.9436 0.3259 0.0591
vn -0.8806 0.3204 -0.3491
vn -0.8787 0.3207 -0.3537
vn -0.6274 0.7361 -0.2539
vn -0.6757 0.6868 -0.2678
vn 0.2722 0.7362 0.6197
vn 0.2678 0.6868 0.6757
vn 0.3537 0.3206 0.8787
vn 0.3491 0.3204 0.8806
vn -0.7452 0.3182 -0.5861
vn -0.5674 0.6921 -0.4462
vn 0.4462 0.6921 0.5673
vn 0.5861 0.3183 0.7451
vn -0.4894 0.3247 -0.8093
vn -0.3852 0.6821 -0.6216
vn 0.6217 0.6820 0.3852
vn 0.8094 0.3246 0.4894
vn -0.0400 0.2358 -0.9710
vn -0.0394 0.6015 -0.7979
vn 0.7979 0.6015 0.0394
vn 0.9710 0.2357 0.0400
vn -0.5843 0.3280 -0.7423
vn -0.3931 0.7720 -0.4995
vn 0.7638 0.2349 0.6012
vn 0.4945 0.7775 0.3885
vn -0.4176 0.4248 0.8032
vn -0.2888 0.7959 0.5322
vn -0.8696 0.2579 0.4211
vn -0.6942 0.1903 0.6942
vn -0.5233 0.6726 0.5233
vn -0.7050 0.6271 0.3313
vn -0.8560 0.2409 0.4574
vn -0.5604 0.7659 0.3151
vn -0.4211 0.2578 0.8696
vn -0.3313 0.6271 0.7050
vn -0.9435 0.3260 -0.0591
vn -0.6563 0.7531 -0.0462
vn 0.0475 0.7491 0.6607
vn 0.0591 0.3259 0.9435
vn -0.3537 0.3207 -0.8787
vn -0.3491 0.3204 -0.8806
vn -0.2678 0.6868 -0.6757
vn -0.2722 0.7362 -0.6196
vn 0.6757 0.6868 0.2678
vn 0.6274 0.7362 0.2539
vn 0.8806 0.3204 0.3491
vn 0.8787 0.3207 0.3537
vn -0.5861 0.3183 -0.7451
vn -0.4462 0.6921 -0.5673
vn 0.5674 0.6921 0.4462
vn 0.7451 0.3182 0.5861
vn -0.8094 0.3247 -0.4894
vn -0.6216 0.6821 -0.3852
vn 0.3852 0.6820 0.6216
vn 0.4894 0.3247 0.8094
vn -0.9710 0.2357 -0.0400
vn -0.7979 0.6015 -0.0394
vn 0.0394 0.6015 0.7979
vn 0.0400 0.2357 0.9710
vn -0.7638 0.2349 -0.6012
vn -0.4945 0.7775 -0.3885
vn 0.5843 0.3280 0.7423
vn 0.3931 0.7720 0.4995
# 129 vertex normals

vt 0.1585 -0.0000 0.0000
vt 0.8420 0.0010 0.0000
vt 0.8419 0.0611 0.0000
vt 0.1584 0.0602 0.0000
vt 0.8415 0.8111 0.0000
vt 0.1580 0.8099 0.0000
vt 0.1581 0.7497 0.0000
vt 0.8416 0.7509 0.0000
vt 0.8338 0.4714 0.0000
vt 0.8418 0.4055 0.0000
vt 0.8480 0.4499 0.0000
vt 0.8337 0.3397 0.0000
vt 0.8479 0.3612 0.0000
vt 0.8895 0.4447 0.0000
vt 0.9874 0.4055 0.0000
vt 0.9101 0.4578 0.0000
vt 0.8895 0.3664 0.0000
vt 0.9101 0.3532 0.0000
vt 0.9280 0.4621 0.0000
vt 0.9279 0.3489 0.0000
vt 0.9479 0.4620 0.0000
vt 0.9478 0.3489 0.0000
vt 0.9711 0.4524 0.0000
vt 0.9710 0.3585 0.0000
vt 0.9857 0.4283 0.0000
vt 0.9857 0.3826 0.0000
vt 0.8683 0.3712 0.0000
vt 0.8684 0.4398 0.0000
vt 0.1663 0.4714 0.0000
vt 0.1521 0.4499 0.0000
vt 0.1582 0.4055 0.0000
vt 0.1520 0.3612 0.0000
vt 0.1662 0.3396 0.0000
vt 0.1105 0.4447 0.0000
vt 0.0899 0.4578 0.0000
vt 0.0126 0.4056 0.0000
vt 0.0898 0.3533 0.0000
vt 0.1104 0.3664 0.0000
vt 0.0721 0.4622 0.0000
vt 0.0720 0.3490 0.0000
vt 0.0522 0.4621 0.0000
vt 0.0521 0.3491 0.0000
vt 0.0290 0.4526 0.0000
vt 0.0289 0.3587 0.0000
vt 0.0143 0.4285 0.0000
vt 0.0143 0.3828 0.0000
vt 0.1316 0.3712 0.0000
vt 0.1317 0.4399 0.0000
vt 0.1682 0.0721 0.0000
vt 0.8321 0.0728 0.0000
vt 0.1679 0.7382 0.0000
vt 0.8318 0.7389 0.0000
vt 0.8383 0.0665 0.0000
vt 0.1621 0.0659 0.0000
vt 0.8469 0.3368 0.0000
vt 0.8403 0.3376 0.0000
vt 1.0000 0.4054 0.0000
vt 0.9964 0.4323 0.0000
vt 0.9906 0.4300 0.0000
vt 0.9933 0.4055 0.0000
vt 0.1612 0.7448 0.0000
vt 0.8378 0.7452 0.0000
vt 0.8467 0.4742 0.0000
vt 0.8403 0.4734 0.0000
vt 0.9964 0.3787 0.0000
vt 0.9906 0.3809 0.0000
vt 0.8563 0.4593 0.0000
vt 0.8522 0.4547 0.0000
vt 0.8521 0.3564 0.0000
vt 0.8564 0.3518 0.0000
vt 0.9054 0.4693 0.0000
vt 0.8848 0.4564 0.0000
vt 0.8872 0.4506 0.0000
vt 0.9078 0.4636 0.0000
vt 0.8871 0.3604 0.0000
vt 0.9078 0.3474 0.0000
vt 0.8848 0.3544 0.0000
vt 0.9053 0.3416 0.0000
vt 0.9266 0.4747 0.0000
vt 0.9273 0.4684 0.0000
vt 0.9272 0.3426 0.0000
vt 0.9265 0.3362 0.0000
vt 0.9510 0.4744 0.0000
vt 0.9495 0.4683 0.0000
vt 0.9494 0.3427 0.0000
vt 0.9511 0.3366 0.0000
vt 0.9784 0.4605 0.0000
vt 0.9743 0.4559 0.0000
vt 0.9742 0.3550 0.0000
vt 0.9784 0.3505 0.0000
vt 0.8698 0.4528 0.0000
vt 0.8692 0.4465 0.0000
vt 0.8700 0.3575 0.0000
vt 0.8692 0.3642 0.0000
vt 0.1538 0.3368 0.0000
vt 0.1608 0.3376 0.0000
vt 0.0036 0.4324 0.0000
vt 0.0000 0.4056 0.0000
vt 0.0067 0.4056 0.0000
vt 0.0094 0.4302 0.0000
vt 0.1531 0.4742 0.0000
vt 0.1597 0.4734 0.0000
vt 0.0036 0.3788 0.0000
vt 0.0094 0.3810 0.0000
vt 0.1436 0.4593 0.0000
vt 0.1479 0.4547 0.0000
vt 0.1478 0.3564 0.0000
vt 0.1437 0.3518 0.0000
vt 0.1152 0.4567 0.0000
vt 0.0947 0.4695 0.0000
vt 0.0923 0.4637 0.0000
vt 0.1129 0.4507 0.0000
vt 0.0922 0.3475 0.0000
vt 0.1128 0.3604 0.0000
vt 0.0946 0.3417 0.0000
vt 0.1152 0.3546 0.0000
vt 0.0735 0.4748 0.0000
vt 0.0728 0.4685 0.0000
vt 0.0727 0.3427 0.0000
vt 0.0734 0.3364 0.0000
vt 0.0490 0.4745 0.0000
vt 0.0506 0.4684 0.0000
vt 0.0505 0.3428 0.0000
vt 0.0489 0.3367 0.0000
vt 0.0216 0.4606 0.0000
vt 0.0258 0.4561 0.0000
vt 0.0257 0.3551 0.0000
vt 0.0216 0.3506 0.0000
vt 0.1300 0.4535 0.0000
vt 0.1308 0.4469 0.0000
vt 0.1302 0.3583 0.0000
vt 0.1308 0.3646 0.0000
# 132 texture coords

o PuzzleStraightDiagonalLTRKnobs
g PuzzleStraightDiagonalLTRKnobs
usemtl wire_006135058
s 2
f 1/1/1 2/2/1 3/3/2 4/4/3 
f 5/5/4 6/6/4 7/7/5 8/8/6 
s 1
f 9/9/7 10/10/8 11/11/9 
f 10/10/8 12/12/10 13/13/11 
f 14/14/12 15/15/13 16/16/14 
f 15/15/13 17/17/15 18/18/16 
f 16/16/14 15/15/13 19/19/17 
f 15/15/13 18/18/16 20/20/18 
f 19/19/17 15/15/13 21/21/19 
f 15/15/13 20/20/18 22/22/20 
f 21/21/19 15/15/13 23/23/21 
f 15/15/13 22/22/20 24/24/22 
f 23/23/21 15/15/13 25/25/23 
f 15/15/13 24/24/22 26/26/24 
f 10/10/8 27/27/25 15/15/13 
f 10/10/8 28/28/26 11/11/9 
f 13/13/11 27/27/25 10/10/8 
f 27/27/25 17/17/15 15/15/13 
f 15/15/13 14/14/12 28/28/26 
f 15/15/13 28/28/26 10/10/8 
f 29/29/27 30/30/28 31/31/8 
f 31/31/8 32/32/29 33/33/30 
f 34/34/31 35/35/32 36/36/33 
f 36/36/33 37/37/34 38/38/35 
f 35/35/32 39/39/36 36/36/33 
f 36/36/33 40/40/37 37/37/34 
f 39/39/36 41/41/38 36/36/33 
f 36/36/33 42/42/39 40/40/37 
f 41/41/38 43/43/40 36/36/33 
f 36/36/33 44/44/41 42/42/39 
f 43/43/40 45/45/42 36/36/33 
f 36/36/33 46/46/43 44/44/41 
f 31/31/8 36/36/33 47/47/44 
f 31/31/8 30/30/28 48/48/45 
f 32/32/29 31/31/8 47/47/44 
f 47/47/44 36/36/33 38/38/35 
f 36/36/33 48/48/45 34/34/31 
f 36/36/33 31/31/8 48/48/45 
f 33/33/30 49/49/46 50/50/47 
f 31/31/8 33/33/30 50/50/47 
f 29/29/27 31/31/8 50/50/47 
f 51/51/48 29/29/27 50/50/47 
f 9/9/7 52/52/49 51/51/48 
f 10/10/8 9/9/7 51/51/48 
f 12/12/10 10/10/8 51/51/48 
f 50/50/47 12/12/10 51/51/48 
s 4
f 4/4/3 3/3/2 53/53/50 54/54/51 
f 3/3/2 55/55/52 56/56/53 53/53/50 
f 57/57/54 58/58/55 59/59/56 60/60/57 
f 8/8/6 7/7/5 61/61/58 62/62/59 
f 63/63/60 8/8/6 62/62/59 64/64/61 
f 65/65/62 57/57/54 60/60/57 66/66/63 
f 67/67/64 63/63/60 64/64/61 68/68/65 
f 9/9/7 11/11/9 68/68/65 64/64/61 
f 13/13/11 12/12/10 56/56/53 69/69/66 
f 55/55/52 70/70/67 69/69/66 56/56/53 
f 71/71/68 72/72/69 73/73/70 74/74/71 
f 14/14/12 16/16/14 74/74/71 73/73/70 
f 18/18/16 17/17/15 75/75/72 76/76/73 
f 77/77/74 78/78/75 76/76/73 75/75/72 
f 79/79/76 71/71/68 74/74/71 80/80/77 
f 16/16/14 19/19/17 80/80/77 74/74/71 
f 20/20/18 18/18/16 76/76/73 81/81/78 
f 78/78/75 82/82/79 81/81/78 76/76/73 
f 83/83/80 79/79/76 80/80/77 84/84/81 
f 19/19/17 21/21/19 84/84/81 80/80/77 
f 22/22/20 20/20/18 81/81/78 85/85/82 
f 82/82/79 86/86/83 85/85/82 81/81/78 
f 87/87/84 83/83/80 84/84/81 88/88/85 
f 21/21/19 23/23/21 88/88/85 84/84/81 
f 24/24/22 22/22/20 85/85/82 89/89/86 
f 86/86/83 90/90/87 89/89/86 85/85/82 
f 58/58/55 87/87/84 88/88/85 59/59/56 
f 25/25/23 15/15/13 60/60/57 59/59/56 
f 23/23/21 25/25/23 59/59/56 88/88/85 
f 26/26/24 24/24/22 89/89/86 66/66/63 
f 15/15/13 26/26/24 66/66/63 60/60/57 
f 90/90/87 65/65/62 66/66/63 89/89/86 
f 72/72/69 91/91/88 92/92/89 73/73/70 
f 93/93/90 77/77/74 75/75/72 94/94/91 
f 91/91/88 67/67/64 68/68/65 92/92/89 
f 11/11/9 28/28/26 92/92/89 68/68/65 
f 27/27/25 13/13/11 69/69/66 94/94/91 
f 70/70/67 93/93/90 94/94/91 69/69/66 
f 17/17/15 27/27/25 94/94/91 75/75/72 
f 28/28/26 14/14/12 73/73/70 92/92/89 
f 95/95/92 4/4/3 54/54/51 96/96/93 
f 97/97/94 98/98/95 99/99/96 100/100/97 
f 7/7/5 101/101/98 102/102/99 61/61/58 
f 98/98/95 103/103/100 104/104/101 99/99/96 
f 101/101/98 105/105/102 106/106/103 102/102/99 
f 30/30/28 29/29/27 102/102/99 106/106/103 
f 33/33/30 32/32/29 107/107/104 96/96/93 
f 108/108/105 95/95/92 96/96/93 107/107/104 
f 109/109/106 110/110/107 111/111/108 112/112/109 
f 35/35/32 34/34/31 112/112/109 111/111/108 
f 38/38/35 37/37/34 113/113/110 114/114/111 
f 115/115/112 116/116/113 114/114/111 113/113/110 
f 110/110/107 117/117/114 118/118/115 111/111/108 
f 39/39/36 35/35/32 111/111/108 118/118/115 
f 37/37/34 40/40/37 119/119/116 113/113/110 
f 120/120/117 115/115/112 113/113/110 119/119/116 
f 117/117/114 121/121/118 122/122/119 118/118/115 
f 41/41/38 39/39/36 118/118/115 122/122/119 
f 40/40/37 42/42/39 123/123/120 119/119/116 
f 124/124/121 120/120/117 119/119/116 123/123/120 
f 121/121/118 125/125/122 126/126/123 122/122/119 
f 43/43/40 41/41/38 122/122/119 126/126/123 
f 42/42/39 44/44/41 127/127/124 123/123/120 
f 128/128/125 124/124/121 123/123/120 127/127/124 
f 125/125/122 97/97/94 100/100/97 126/126/123 
f 45/45/42 43/43/40 126/126/123 100/100/97 
f 36/36/33 45/45/42 100/100/97 99/99/96 
f 46/46/43 36/36/33 99/99/96 104/104/101 
f 44/44/41 46/46/43 104/104/101 127/127/124 
f 103/103/100 128/128/125 127/127/124 104/104/101 
f 129/129/126 109/109/106 112/112/109 130/130/127 
f 116/116/113 131/131/128 132/132/129 114/114/111 
f 105/105/102 129/129/126 130/130/127 106/106/103 
f 48/48/45 30/30/28 106/106/103 130/130/127 
f 32/32/29 47/47/44 132/132/129 107/107/104 
f 131/131/128 108/108/105 107/107/104 132/132/129 
f 47/47/44 38/38/35 114/114/111 132/132/129 
f 34/34/31 48/48/45 130/130/127 112/112/109 
f 49/49/46 33/33/30 96/96/93 54/54/51 
f 50/50/47 49/49/46 54/54/51 53/53/50 
f 29/29/27 51/51/48 61/61/58 102/102/99 
f 52/52/49 9/9/7 64/64/61 62/62/59 
f 51/51/48 52/52/49 62/62/59 61/61/58 
f 12/12/10 50/50/47 53/53/50 56/56/53 
# 86 polygons - 44 triangles

