# 3ds Max Wavefront OBJ Exporter v0.99 - (c)2007 guruware
# File Created: 26.11.2023 00:39:29

mtllib Tire back left unwrapped.mtl

#
# object CarWorldfullTireBackLeft
#

v  22.7904 2.4933 -46.7895
v  22.7904 3.3737 -51.7826
v  25.7734 0.9846 -52.6522
v  25.7734 -0.0491 -46.7895
v  22.7904 5.9088 -56.1735
v  25.7734 3.9612 -57.8077
v  22.7904 9.7927 -59.4325
v  25.7733 8.5215 -61.6343
v  22.7904 14.5571 -61.1666
v  25.7734 14.1156 -63.6704
v  22.7904 19.6272 -61.1666
v  25.7734 20.0687 -63.6704
v  22.7904 24.3916 -59.4325
v  25.7734 25.6628 -61.6343
v  22.7904 28.2755 -56.1735
v  25.7734 30.2231 -57.8077
v  22.7904 30.8106 -51.7826
v  25.7734 33.1996 -52.6522
v  22.7904 31.6910 -46.7896
v  25.7733 34.2334 -46.7896
v  22.7904 30.8106 -41.7964
v  25.7734 33.1996 -40.9269
v  22.7904 28.2755 -37.4056
v  25.7734 30.2231 -35.7714
v  22.7904 24.3916 -34.1466
v  25.7734 25.6628 -31.9448
v  22.7904 19.6272 -32.4125
v  25.7734 20.0687 -29.9087
v  22.7904 14.5571 -32.4125
v  25.7734 14.1156 -29.9087
v  22.7904 9.7927 -34.1466
v  25.7733 8.5215 -31.9448
v  22.7904 5.9088 -37.4056
v  25.7734 3.9612 -35.7714
v  22.7904 3.3737 -41.7964
v  25.7734 0.9846 -40.9269
v  44.8871 0.9846 -52.6522
v  44.8871 -0.0491 -46.7895
v  44.8871 3.9612 -57.8077
v  44.8872 8.5215 -61.6343
v  44.8872 14.1156 -63.6704
v  44.8872 20.0687 -63.6704
v  44.8872 25.6628 -61.6343
v  44.8872 30.2231 -57.8077
v  44.8872 33.1996 -52.6522
v  44.8872 34.2334 -46.7896
v  44.8872 33.1996 -40.9269
v  44.8872 30.2231 -35.7714
v  44.8872 25.6628 -31.9448
v  44.8872 20.0687 -29.9087
v  44.8872 14.1156 -29.9087
v  44.8872 8.5215 -31.9448
v  44.8871 3.9612 -35.7714
v  44.8871 0.9846 -40.9269
v  48.0577 3.3737 -51.7826
v  48.0577 2.4933 -46.7895
v  48.0577 5.9088 -56.1735
v  48.0577 9.7927 -59.4325
v  48.0577 14.5571 -61.1666
v  48.0577 19.6272 -61.1666
v  48.0577 24.3916 -59.4325
v  48.0577 28.2755 -56.1735
v  48.0577 30.8106 -51.7827
v  48.0577 31.6910 -46.7896
v  48.0577 30.8106 -41.7964
v  48.0577 28.2755 -37.4056
v  48.0577 24.3916 -34.1466
v  48.0577 19.6272 -32.4125
v  48.0577 14.5571 -32.4125
v  48.0577 9.7927 -34.1466
v  48.0577 5.9088 -37.4056
v  48.0577 3.3737 -41.7964
v  48.0577 17.0921 -46.7895
# 73 vertices

vn -0.6542 -0.7563 -0.0000
vn -0.6542 -0.7107 -0.2587
vn -0.3370 -0.8847 -0.3220
vn -0.3370 -0.9415 -0.0000
vn -0.6542 -0.5794 -0.4862
vn -0.3370 -0.7212 -0.6052
vn -0.6542 -0.3782 -0.6550
vn -0.3370 -0.4707 -0.8154
vn -0.6542 -0.1313 -0.7448
vn -0.3370 -0.1635 -0.9272
vn -0.6542 0.1313 -0.7448
vn -0.3370 0.1635 -0.9272
vn -0.6542 0.3782 -0.6550
vn -0.3370 0.4707 -0.8154
vn -0.6542 0.5794 -0.4862
vn -0.3370 0.7212 -0.6052
vn -0.6542 0.7107 -0.2587
vn -0.3370 0.8847 -0.3220
vn -0.6542 0.7563 -0.0000
vn -0.3370 0.9415 -0.0000
vn -0.6542 0.7107 0.2587
vn -0.3370 0.8847 0.3220
vn -0.6542 0.5794 0.4862
vn -0.3370 0.7212 0.6052
vn -0.6542 0.3782 0.6550
vn -0.3370 0.4707 0.8154
vn -0.6542 0.1313 0.7448
vn -0.3370 0.1635 0.9272
vn -0.6542 -0.1313 0.7448
vn -0.3370 -0.1635 0.9272
vn -0.6542 -0.3782 0.6550
vn -0.3370 -0.4708 0.8153
vn -0.6542 -0.5794 0.4862
vn -0.3370 -0.7212 0.6052
vn -0.6542 -0.7107 0.2587
vn -0.3370 -0.8847 0.3220
vn 0.3238 -0.8891 -0.3236
vn 0.3238 -0.9461 0.0000
vn 0.3238 -0.7248 -0.6082
vn 0.3238 -0.4731 -0.8194
vn 0.3238 -0.1643 -0.9318
vn 0.3238 0.1643 -0.9318
vn 0.3238 0.4731 -0.8194
vn 0.3238 0.7248 -0.6082
vn 0.3238 0.8891 -0.3236
vn 0.3238 0.9461 -0.0000
vn 0.3238 0.8891 0.3236
vn 0.3238 0.7248 0.6082
vn 0.3238 0.4731 0.8194
vn 0.3238 0.1643 0.9318
vn 0.3238 -0.1643 0.9318
vn 0.3238 -0.4731 0.8194
vn 0.3238 -0.7248 0.6082
vn 0.3238 -0.8891 0.3236
vn 0.8844 -0.4386 -0.1596
vn 0.8844 -0.4667 -0.0000
vn 0.8844 -0.3575 -0.3000
vn 0.8844 -0.2334 -0.4042
vn 0.8844 -0.0810 -0.4596
vn 0.8844 0.0810 -0.4596
vn 0.8844 0.2334 -0.4042
vn 0.8844 0.3575 -0.3000
vn 0.8844 0.4386 -0.1596
vn 0.8844 0.4667 0.0000
vn 0.8844 0.4386 0.1596
vn 0.8844 0.3575 0.3000
vn 0.8844 0.2334 0.4042
vn 0.8844 0.0810 0.4596
vn 0.8844 -0.0810 0.4596
vn 0.8844 -0.2334 0.4042
vn 0.8844 -0.3575 0.3000
vn 0.8844 -0.4386 0.1596
vn 1.0000 -0.0000 -0.0000
# 73 vertex normals

vt 0.0084 0.5003 0.0000
vt 0.0085 0.4453 0.0000
vt 0.0451 0.4450 0.0000
vt 0.0451 0.5001 0.0000
vt 0.0086 0.3904 0.0000
vt 0.0452 0.3900 0.0000
vt 0.0087 0.3354 0.0000
vt 0.0453 0.3351 0.0000
vt 0.0088 0.2806 0.0000
vt 0.0454 0.2801 0.0000
vt 0.0089 0.2258 0.0000
vt 0.0454 0.2252 0.0000
vt 0.0089 0.1714 0.0000
vt 0.0454 0.1702 0.0000
vt 0.0085 0.1175 0.0000
vt 0.0448 0.1153 0.0000
vt 0.0069 0.0651 0.0000
vt 0.0429 0.0603 0.0000
vt 0.0010 0.0161 0.0000
vt 0.0377 0.0052 0.0000
vt 0.0040 0.9894 0.0000
vt 0.0081 0.9387 0.0000
vt 0.0449 0.9422 0.0000
vt 0.0421 0.9990 0.0000
vt 0.0089 0.8851 0.0000
vt 0.0454 0.8863 0.0000
vt 0.0088 0.8305 0.0000
vt 0.0454 0.8308 0.0000
vt 0.0086 0.7756 0.0000
vt 0.0452 0.7755 0.0000
vt 0.0085 0.7205 0.0000
vt 0.0451 0.7204 0.0000
vt 0.0084 0.6655 0.0000
vt 0.0450 0.6652 0.0000
vt 0.0084 0.6104 0.0000
vt 0.0450 0.6102 0.0000
vt 0.0084 0.5554 0.0000
vt 0.0451 0.5551 0.0000
vt 0.2240 0.4453 0.0000
vt 0.2240 0.5004 0.0000
vt 0.2239 0.3902 0.0000
vt 0.2238 0.3350 0.0000
vt 0.2237 0.2799 0.0000
vt 0.2234 0.2246 0.0000
vt 0.2231 0.1693 0.0000
vt 0.2228 0.1137 0.0000
vt 0.2231 0.0578 0.0000
vt 0.2255 0.0010 0.0000
vt 0.2250 0.9406 0.0000
vt 0.2299 0.9957 0.0000
vt 0.2234 0.8855 0.0000
vt 0.2231 0.8305 0.0000
vt 0.2232 0.7755 0.0000
vt 0.2234 0.7206 0.0000
vt 0.2236 0.6655 0.0000
vt 0.2238 0.6105 0.0000
vt 0.2239 0.5554 0.0000
vt 0.2620 0.4450 0.0000
vt 0.2620 0.5001 0.0000
vt 0.2619 0.3899 0.0000
vt 0.2618 0.3347 0.0000
vt 0.2616 0.2796 0.0000
vt 0.2614 0.2245 0.0000
vt 0.2610 0.1695 0.0000
vt 0.2607 0.1149 0.0000
vt 0.2612 0.0613 0.0000
vt 0.2650 0.0106 0.0000
vt 0.2624 0.9358 0.0000
vt 0.2680 0.9849 0.0000
vt 0.2611 0.8834 0.0000
vt 0.2609 0.8295 0.0000
vt 0.2611 0.7750 0.0000
vt 0.2614 0.7202 0.0000
vt 0.2616 0.6653 0.0000
vt 0.2618 0.6102 0.0000
vt 0.2619 0.5552 0.0000
vt 0.5450 0.1650 0.0000
vt 0.5284 0.2106 0.0000
vt 0.4074 0.1407 0.0000
vt 0.4972 0.2478 0.0000
vt 0.4552 0.2720 0.0000
vt 0.4074 0.2805 0.0000
vt 0.3596 0.2720 0.0000
vt 0.3176 0.2478 0.0000
vt 0.2864 0.2106 0.0000
vt 0.2698 0.1650 0.0000
vt 0.2698 0.1165 0.0000
vt 0.2864 0.0709 0.0000
vt 0.3176 0.0337 0.0000
vt 0.3596 0.0094 0.0000
vt 0.4074 0.0010 0.0000
vt 0.4552 0.0094 0.0000
vt 0.4972 0.0337 0.0000
vt 0.5284 0.0709 0.0000
vt 0.5450 0.1165 0.0000
# 95 texture coords

o CarWorldfullTireBackLeft
g CarWorldfullTireBackLeft
usemtl wire_088199225
s 524288
f 1/1/1 2/2/2 3/3/3 4/4/4 
f 2/2/2 5/5/5 6/6/6 3/3/3 
f 5/5/5 7/7/7 8/8/8 6/6/6 
f 7/7/7 9/9/9 10/10/10 8/8/8 
f 9/9/9 11/11/11 12/12/12 10/10/10 
f 11/11/11 13/13/13 14/14/14 12/12/12 
f 13/13/13 15/15/15 16/16/16 14/14/14 
f 15/15/15 17/17/17 18/18/18 16/16/16 
f 17/17/17 19/19/19 20/20/20 18/18/18 
f 19/21/19 21/22/21 22/23/22 20/24/20 
f 21/22/21 23/25/23 24/26/24 22/23/22 
f 23/25/23 25/27/25 26/28/26 24/26/24 
f 25/27/25 27/29/27 28/30/28 26/28/26 
f 27/29/27 29/31/29 30/32/30 28/30/28 
f 29/31/29 31/33/31 32/34/32 30/32/30 
f 31/33/31 33/35/33 34/36/34 32/34/32 
f 33/35/33 35/37/35 36/38/36 34/36/34 
f 35/37/35 1/1/1 4/4/4 36/38/36 
f 4/4/4 3/3/3 37/39/37 38/40/38 
f 3/3/3 6/6/6 39/41/39 37/39/37 
f 6/6/6 8/8/8 40/42/40 39/41/39 
f 8/8/8 10/10/10 41/43/41 40/42/40 
f 10/10/10 12/12/12 42/44/42 41/43/41 
f 12/12/12 14/14/14 43/45/43 42/44/42 
f 14/14/14 16/16/16 44/46/44 43/45/43 
f 16/16/16 18/18/18 45/47/45 44/46/44 
f 18/18/18 20/20/20 46/48/46 45/47/45 
f 20/24/20 22/23/22 47/49/47 46/50/46 
f 22/23/22 24/26/24 48/51/48 47/49/47 
f 24/26/24 26/28/26 49/52/49 48/51/48 
f 26/28/26 28/30/28 50/53/50 49/52/49 
f 28/30/28 30/32/30 51/54/51 50/53/50 
f 30/32/30 32/34/32 52/55/52 51/54/51 
f 32/34/32 34/36/34 53/56/53 52/55/52 
f 34/36/34 36/38/36 54/57/54 53/56/53 
f 36/38/36 4/4/4 38/40/38 54/57/54 
f 38/40/38 37/39/37 55/58/55 56/59/56 
f 37/39/37 39/41/39 57/60/57 55/58/55 
f 39/41/39 40/42/40 58/61/58 57/60/57 
f 40/42/40 41/43/41 59/62/59 58/61/58 
f 41/43/41 42/44/42 60/63/60 59/62/59 
f 42/44/42 43/45/43 61/64/61 60/63/60 
f 43/45/43 44/46/44 62/65/62 61/64/61 
f 44/46/44 45/47/45 63/66/63 62/65/62 
f 45/47/45 46/48/46 64/67/64 63/66/63 
f 46/50/46 47/49/47 65/68/65 64/69/64 
f 47/49/47 48/51/48 66/70/66 65/68/65 
f 48/51/48 49/52/49 67/71/67 66/70/66 
f 49/52/49 50/53/50 68/72/68 67/71/67 
f 50/53/50 51/54/51 69/73/69 68/72/68 
f 51/54/51 52/55/52 70/74/70 69/73/69 
f 52/55/52 53/56/53 71/75/71 70/74/70 
f 53/56/53 54/57/54 72/76/72 71/75/71 
f 54/57/54 38/40/38 56/59/56 72/76/72 
s 1048576
f 72/77/72 56/78/56 73/79/73 
f 56/78/56 55/80/55 73/79/73 
f 55/80/55 57/81/57 73/79/73 
f 57/81/57 58/82/58 73/79/73 
f 58/82/58 59/83/59 73/79/73 
f 59/83/59 60/84/60 73/79/73 
f 60/84/60 61/85/61 73/79/73 
f 61/85/61 62/86/62 73/79/73 
f 62/86/62 63/87/63 73/79/73 
f 63/87/63 64/88/64 73/79/73 
f 64/88/64 65/89/65 73/79/73 
f 65/89/65 66/90/66 73/79/73 
f 66/90/66 67/91/67 73/79/73 
f 67/91/67 68/92/68 73/79/73 
f 68/92/68 69/93/69 73/79/73 
f 69/93/69 70/94/70 73/79/73 
f 70/94/70 71/95/71 73/79/73 
f 71/95/71 72/77/72 73/79/73 
# 54 polygons - 18 triangles

