# 3ds Max Wavefront OBJ Exporter v0.99 - (c)2007 guruware
# File Created: 27.11.2023 09:14:26

mtllib Bottom Turn LTR Knobs.mtl

#
# object PuzzleBottomTurnLTRKnobs
#

v  36.9363 23.0315 -373.8364
v  -20.1028 23.0315 -314.3943
v  -19.7751 27.7643 -312.3171
v  36.9363 27.7970 -371.3893
v  -94.6936 23.0315 -273.0720
v  -20.1028 -29.5275 -314.3943
v  -94.6936 -29.5275 -273.0720
v  -92.0037 29.5275 -266.5745
v  -18.8557 29.5275 -306.7869
v  -93.9839 27.7745 -271.3030
v  -258.3391 -29.5275 -251.5300
v  -258.3391 23.0315 -251.5300
v  -169.0308 23.0315 -254.7053
v  -169.0308 -29.5275 -254.7053
v  -167.8384 27.7927 -253.0134
v  -251.8430 29.5275 -245.0334
v  -164.5073 29.5275 -248.4111
v  -256.6257 27.8140 -249.8162
v  36.9363 -29.5275 -373.8364
v  36.9363 29.5275 -364.6501
v  454.5188 -29.5275 43.7461
v  454.5188 23.0315 43.7461
v  328.2273 23.0315 181.6423
v  328.2273 -29.5275 181.6423
v  444.7473 29.5275 43.7458
v  321.7598 29.5275 177.8262
v  326.5217 27.8189 180.6406
v  452.0967 27.4420 43.7463
v  140.4314 23.0315 283.6301
v  139.5750 27.8140 281.9167
v  140.4314 -29.5275 283.6301
v  -54.1973 23.0315 339.2954
v  -54.1973 -29.5275 339.2954
v  -258.3394 23.0315 339.0215
v  -53.7937 27.7901 337.4124
v  -256.5698 27.7582 337.2520
v  137.1836 29.5275 277.1345
v  -52.7678 29.5275 332.2566
v  -258.3394 -29.5275 339.0215
v  -251.8435 29.5275 332.5256
v  200.5603 29.5275 -200.4236
v  241.2598 29.5275 -159.8904
v  222.3159 29.5275 -196.1030
v  281.1055 29.5275 -119.8784
v  276.7854 29.5275 -141.6335
v  250.7639 29.5275 -218.1113
v  334.7188 29.5275 -254.0364
v  255.0977 29.5275 -238.7214
v  298.7937 29.5275 -170.0815
v  319.4038 29.5275 -174.4153
v  263.3875 29.5275 -252.3176
v  332.9998 29.5275 -182.7053
v  275.6284 29.5275 -264.5583
v  345.2407 29.5275 -194.9460
v  295.7756 29.5275 -272.9949
v  353.6768 29.5275 -215.0938
v  319.6526 29.5275 -267.1150
v  347.7971 29.5275 -238.9705
v  282.9568 29.5275 -160.1931
v  240.8755 29.5275 -202.2747
v  287.4858 22.6055 -123.2869
v  286.2612 28.1989 -122.6328
v  339.0212 22.6055 -258.3391
v  322.0686 22.6055 -272.1038
v  321.4646 27.7970 -270.8564
v  338.2439 28.2770 -257.5615
v  203.9692 22.6055 -206.8035
v  203.1697 27.9038 -205.3069
v  352.7856 22.6055 -241.3862
v  351.5388 27.7970 -240.7822
v  221.8691 22.6055 -203.2495
v  221.9802 27.7970 -201.4626
v  282.1450 27.7970 -141.2983
v  283.9314 22.6055 -141.1865
v  248.5686 22.6055 -241.3098
v  244.2422 22.6055 -220.7368
v  245.8728 27.7970 -220.0803
v  250.2009 27.7970 -240.6628
v  300.7627 27.7970 -165.1904
v  321.3450 27.7970 -169.5188
v  301.4187 22.6055 -163.5603
v  321.9919 22.6055 -167.8865
v  257.9080 22.6055 -256.6272
v  259.2781 27.7970 -255.5498
v  336.2317 27.7970 -178.5955
v  337.3096 22.6055 -177.2256
v  271.9395 22.6055 -270.6589
v  272.8618 27.7970 -269.1338
v  349.8162 27.7970 -192.1794
v  351.3413 22.6055 -191.2571
v  295.5681 22.6055 -278.0286
v  295.6201 27.7970 -276.7700
v  357.4519 27.7970 -214.9377
v  358.7104 22.6055 -214.8862
v  236.3245 22.6055 -208.0564
v  237.4451 27.8232 -206.6328
v  288.7388 22.6055 -155.6426
v  287.6677 28.2454 -156.4856
v  -251.4172 29.5275 -13.2083
v  -263.7456 29.5275 5.2300
v  -251.4297 29.5275 43.7461
v  -263.7461 29.5275 82.2617
v  -251.4297 29.5275 100.7153
v  -299.4238 29.5275 9.7839
v  -317.0623 29.5275 -1.7253
v  -384.1914 29.5275 43.7461
v  -317.0620 29.5275 89.2175
v  -299.4236 29.5275 77.7078
v  -332.5378 29.5275 -5.4773
v  -332.5378 29.5275 92.9695
v  -349.8489 29.5275 -5.4773
v  -349.8486 29.5275 92.9692
v  -370.0603 29.5275 2.8035
v  -370.0603 29.5275 84.6885
v  -382.7869 29.5275 23.8450
v  -382.7866 29.5275 63.6472
v  -281.2336 29.5275 73.5022
v  -281.2339 29.5275 13.9897
v  -258.3391 22.6055 102.8010
v  -255.7800 28.0847 102.3665
v  -388.0217 22.6055 22.0251
v  -390.2766 22.6055 43.7463
v  -389.1770 28.2770 43.7458
v  -386.7129 27.7970 22.4800
v  -258.3391 22.6055 -251.5300
v  -258.3391 22.6055 -15.3091
v  -257.0107 28.1989 -14.9058
v  -257.0400 27.0052 -249.8169
v  -388.0225 22.6055 65.4668
v  -386.7134 27.7970 65.0117
v  -268.4827 22.6055 -0.1389
v  -267.2986 27.7970 1.2034
v  -267.2986 27.7970 86.2883
v  -268.4832 22.6055 87.6311
v  -296.6689 22.6055 3.3159
v  -314.2754 22.6055 -8.1724
v  -314.9719 27.7970 -6.5603
v  -297.3574 27.7970 4.9329
v  -314.9719 27.7970 94.0530
v  -297.3574 27.7970 82.5588
v  -314.2754 22.6055 95.6641
v  -296.6687 22.6055 84.1755
v  -331.7104 22.6055 -12.3994
v  -331.9170 27.7970 -10.6689
v  -331.9170 27.7970 98.1609
v  -331.7104 22.6055 99.8911
v  -351.5542 22.6055 -12.3994
v  -351.1277 27.7970 -10.6687
v  -351.1277 27.7970 98.1609
v  -351.5540 22.6055 99.8914
v  -373.4729 22.6055 -0.9021
v  -372.6196 27.7970 0.0247
v  -372.6201 27.7970 87.4678
v  -373.4736 22.6055 88.3945
v  -282.1040 22.6055 6.6838
v  -281.9429 28.2454 8.0374
v  -282.1042 22.6055 80.8083
v  -281.8896 27.8232 79.0093
# 158 vertices

vn -0.3735 0.2732 -0.8865
vn -0.6067 0.1863 -0.7728
vn -0.4144 0.7355 -0.5360
vn -0.0094 0.6954 -0.7186
vn -0.3584 0.1929 -0.9134
vn -0.6099 0.0000 -0.7925
vn -0.3654 0.0000 -0.9309
vn -0.0554 0.9885 -0.1404
vn -0.0873 0.9885 -0.1239
vn -0.2440 0.7431 -0.6231
vn -0.0355 0.0000 -0.9994
vn -0.0351 0.1570 -0.9870
vn -0.1301 0.1845 -0.9742
vn -0.1384 0.0000 -0.9904
vn -0.0937 0.7325 -0.6743
vn -0.1714 0.9772 -0.1253
vn -0.0258 0.9883 -0.1505
vn -0.0292 0.5807 -0.8136
vn -0.7215 0.0000 -0.6924
vn -0.0035 0.9825 -0.1864
vn 0.7375 0.0000 0.6754
vn 0.8987 0.2903 0.3287
vn 0.6109 0.1799 0.7710
vn 0.6158 0.0000 0.7879
vn 0.2018 0.9794 -0.0095
vn 0.1036 0.9838 0.1462
vn 0.4359 0.7022 0.5630
vn 0.7111 0.7029 -0.0177
vn 0.3726 0.1865 0.9091
vn 0.2635 0.7167 0.6457
vn 0.3784 0.0000 0.9257
vn 0.1309 0.1785 0.9752
vn 0.1382 0.0000 0.9904
vn -0.3760 0.2806 0.8831
vn 0.1015 0.6985 0.7084
vn -0.5066 0.6993 0.5044
vn 0.0616 0.9863 0.1531
vn 0.0320 0.9829 0.1814
vn -0.0013 0.0000 1.0000
vn -0.1352 0.9816 0.1350
vn 0.0546 0.9933 -0.1021
vn 0.0000 1.0000 -0.0000
vn -0.0081 0.9915 -0.1299
vn 0.0801 0.9959 -0.0428
vn 0.1299 0.9915 0.0081
vn -0.1305 0.9901 -0.0525
vn 0.0905 0.9918 -0.0905
vn -0.1624 0.9846 -0.0644
vn 0.0525 0.9901 0.1304
vn 0.0644 0.9846 0.1624
vn -0.1343 0.9853 -0.1056
vn 0.1056 0.9853 0.1343
vn -0.0984 0.9846 -0.1445
vn 0.1445 0.9846 0.0984
vn -0.0219 0.9673 -0.2528
vn 0.2528 0.9673 0.0219
vn 0.1041 0.9746 -0.1985
vn 0.1985 0.9746 -0.1041
vn 0.0646 0.9966 0.0508
vn -0.0719 0.9932 -0.0914
vn 0.8560 0.2409 -0.4574
vn 0.5606 0.7656 -0.3155
vn 0.6942 0.1903 -0.6942
vn 0.4211 0.2579 -0.8696
vn 0.3313 0.6271 -0.7050
vn 0.5232 0.6726 -0.5233
vn 0.4489 0.3050 -0.8399
vn 0.3087 0.7618 -0.5695
vn 0.8696 0.2579 -0.4211
vn 0.7050 0.6271 -0.3313
vn -0.0591 0.3260 -0.9435
vn -0.0381 0.7527 -0.6573
vn 0.6563 0.7531 0.0462
vn 0.9436 0.3259 0.0591
vn -0.8806 0.3204 -0.3491
vn -0.8787 0.3207 -0.3537
vn -0.6274 0.7361 -0.2539
vn -0.6757 0.6868 -0.2678
vn 0.2722 0.7362 0.6197
vn 0.2678 0.6868 0.6757
vn 0.3537 0.3206 0.8787
vn 0.3491 0.3204 0.8806
vn -0.7452 0.3182 -0.5861
vn -0.5674 0.6921 -0.4462
vn 0.4462 0.6921 0.5673
vn 0.5861 0.3183 0.7451
vn -0.4894 0.3247 -0.8093
vn -0.3852 0.6821 -0.6216
vn 0.6216 0.6821 0.3852
vn 0.8094 0.3247 0.4894
vn -0.0400 0.2358 -0.9710
vn -0.0394 0.6015 -0.7979
vn 0.7979 0.6015 0.0394
vn 0.9710 0.2357 0.0400
vn -0.5843 0.3280 -0.7423
vn -0.3931 0.7720 -0.4995
vn 0.7638 0.2349 0.6012
vn 0.4945 0.7775 0.3885
vn -0.0868 0.9959 -0.0263
vn -0.0861 0.9915 -0.0976
vn -0.0000 1.0000 -0.0000
vn -0.0861 0.9915 0.0975
vn -0.1167 0.9925 0.0365
vn 0.0551 0.9901 -0.1294
vn 0.0693 0.9846 -0.1603
vn -0.1280 0.9918 0.0000
vn 0.0693 0.9846 0.1603
vn 0.0551 0.9901 0.1294
vn 0.0203 0.9853 -0.1696
vn 0.0203 0.9853 0.1696
vn -0.0326 0.9846 -0.1717
vn -0.0326 0.9846 0.1717
vn -0.1633 0.9673 -0.1943
vn -0.1633 0.9673 0.1943
vn -0.2140 0.9746 -0.0668
vn -0.2139 0.9746 0.0668
vn -0.0138 0.9932 0.1155
vn -0.0097 0.9966 -0.0816
vn -0.8633 0.4248 0.2725
vn -0.5805 0.7958 0.1722
vn -0.9127 0.2579 -0.3171
vn -0.9817 0.1903 -0.0000
vn -0.7399 0.6727 -0.0000
vn -0.7328 0.6271 -0.2642
vn -0.9591 0.2832 -0.0000
vn -0.9287 0.2409 -0.2819
vn -0.6191 0.7660 -0.1734
vn -0.8578 0.5140 -0.0025
vn -0.9126 0.2579 0.3171
vn -0.7327 0.6271 0.2642
vn -0.6254 0.3259 -0.7089
vn -0.4314 0.7531 -0.4968
vn -0.4335 0.7492 0.5008
vn -0.6254 0.3261 0.7089
vn 0.3712 0.3206 -0.8714
vn 0.3759 0.3204 -0.8695
vn 0.2884 0.6868 -0.6672
vn 0.2457 0.7362 -0.6306
vn 0.2884 0.6868 0.6672
vn 0.2641 0.7361 0.6232
vn 0.3759 0.3203 0.8696
vn 0.3712 0.3206 0.8715
vn 0.1125 0.3183 -0.9413
vn 0.0856 0.6921 -0.7167
vn 0.0856 0.6921 0.7167
vn 0.1125 0.3182 0.9413
vn -0.2262 0.3247 -0.9184
vn -0.1672 0.6821 -0.7119
vn -0.1672 0.6820 0.7119
vn -0.2262 0.3247 0.9184
vn -0.6583 0.2358 -0.7149
vn -0.5363 0.6015 -0.5921
vn -0.5363 0.6015 0.5921
vn -0.6583 0.2358 0.7149
vn -0.1150 0.2349 -0.9652
vn -0.0750 0.7775 -0.6244
vn -0.1117 0.3280 0.9380
vn -0.0752 0.7720 0.6311
# 158 vertex normals

vt 0.8246 0.7509 0.0000
vt 0.7285 0.7499 0.0000
vt 0.7266 0.7441 0.0000
vt 0.8195 0.7474 0.0000
vt 0.6329 0.7694 0.0000
vt 0.7366 0.8096 0.0000
vt 0.6519 0.8259 0.0000
vt 0.6292 0.7578 0.0000
vt 0.7228 0.7383 0.0000
vt 0.6311 0.7638 0.0000
vt 0.5038 0.9168 0.0000
vt 0.4712 0.8679 0.0000
vt 0.5539 0.8080 0.0000
vt 0.5823 0.8591 0.0000
vt 0.5520 0.8023 0.0000
vt 0.4708 0.8545 0.0000
vt 0.5516 0.7954 0.0000
vt 0.4697 0.8623 0.0000
vt 0.8270 0.8096 0.0000
vt 0.8142 0.7418 0.0000
vt 0.8731 0.0206 0.0000
vt 0.8688 0.0802 0.0000
vt 0.6582 0.0594 0.0000
vt 0.6540 -0.0000 0.0000
vt 0.8577 0.0899 0.0000
vt 0.6560 0.0714 0.0000
vt 0.6578 0.0652 0.0000
vt 0.8641 0.0839 0.0000
vt 0.4226 0.1086 0.0000
vt 0.4243 0.1143 0.0000
vt 0.4045 0.0529 0.0000
vt 0.2153 0.2033 0.0000
vt 0.1840 0.1525 0.0000
vt 0.0372 0.3510 0.0000
vt 0.2189 0.2078 0.0000
vt 0.0435 0.3515 0.0000
vt 0.4258 0.1204 0.0000
vt 0.2237 0.2118 0.0000
vt 0.0000 0.3043 0.0000
vt 0.0514 0.3523 0.0000
vt 0.8324 0.4838 0.0000
vt 0.8375 0.4189 0.0000
vt 0.8479 0.4638 0.0000
vt 0.8424 0.3550 0.0000
vt 0.8546 0.3771 0.0000
vt 0.8889 0.4619 0.0000
vt 0.9876 0.4310 0.0000
vt 0.9081 0.4763 0.0000
vt 0.8949 0.3853 0.0000
vt 0.9160 0.3741 0.0000
vt 0.9252 0.4819 0.0000
vt 0.9338 0.3712 0.0000
vt 0.9447 0.4833 0.0000
vt 0.9532 0.3727 0.0000
vt 0.9681 0.4757 0.0000
vt 0.9752 0.3838 0.0000
vt 0.9843 0.4533 0.0000
vt 0.9877 0.4085 0.0000
vt 0.8738 0.3885 0.0000
vt 0.8686 0.4556 0.0000
vt 0.8555 0.3530 0.0000
vt 0.8490 0.3534 0.0000
vt 1.0000 0.4320 0.0000
vt 0.9944 0.4580 0.0000
vt 0.9889 0.4553 0.0000
vt 0.9935 0.4315 0.0000
vt 0.8448 0.4874 0.0000
vt 0.8386 0.4861 0.0000
vt 0.9985 0.4055 0.0000
vt 0.9927 0.4072 0.0000
vt 0.8552 0.4736 0.0000
vt 0.8516 0.4688 0.0000
vt 0.8591 0.3727 0.0000
vt 0.8636 0.3685 0.0000
vt 0.9025 0.4873 0.0000
vt 0.8834 0.4731 0.0000
vt 0.8862 0.4676 0.0000
vt 0.9053 0.4818 0.0000
vt 0.8930 0.3793 0.0000
vt 0.9142 0.3682 0.0000
vt 0.8912 0.3732 0.0000
vt 0.9123 0.3623 0.0000
vt 0.9229 0.4941 0.0000
vt 0.9240 0.4880 0.0000
vt 0.9336 0.3649 0.0000
vt 0.9334 0.3587 0.0000
vt 0.9468 0.4957 0.0000
vt 0.9457 0.4896 0.0000
vt 0.9553 0.3667 0.0000
vt 0.9574 0.3609 0.0000
vt 0.9746 0.4842 0.0000
vt 0.9710 0.4794 0.0000
vt 0.9786 0.3807 0.0000
vt 0.9831 0.3766 0.0000
vt 0.8690 0.4684 0.0000
vt 0.8689 0.4622 0.0000
vt 0.8765 0.3752 0.0000
vt 0.8752 0.3817 0.0000
vt 0.3041 0.6561 0.0000
vt 0.2798 0.6491 0.0000
vt 0.2623 0.6071 0.0000
vt 0.2235 0.5827 0.0000
vt 0.2204 0.5575 0.0000
vt 0.2453 0.6717 0.0000
vt 0.2382 0.6945 0.0000
vt 0.1472 0.7042 0.0000
vt 0.1720 0.6162 0.0000
vt 0.1957 0.6130 0.0000
vt 0.2275 0.7091 0.0000
vt 0.1559 0.6242 0.0000
vt 0.2126 0.7216 0.0000
vt 0.1410 0.6369 0.0000
vt 0.1891 0.7291 0.0000
vt 0.1297 0.6587 0.0000
vt 0.1629 0.7203 0.0000
vt 0.1339 0.6861 0.0000
vt 0.2146 0.6032 0.0000
vt 0.2581 0.6547 0.0000
vt 0.2093 0.5631 0.0000
vt 0.2151 0.5593 0.0000
vt 0.1573 0.7300 0.0000
vt 0.1377 0.7122 0.0000
vt 0.1427 0.7080 0.0000
vt 0.1603 0.7247 0.0000
vt 0.4665 0.8677 0.0000
vt 0.2959 0.6665 0.0000
vt 0.3004 0.6618 0.0000
vt 0.4693 0.8628 0.0000
vt 0.1234 0.6899 0.0000
vt 0.1292 0.6879 0.0000
vt 0.2795 0.6615 0.0000
vt 0.2797 0.6554 0.0000
vt 0.2173 0.5818 0.0000
vt 0.2113 0.5809 0.0000
vt 0.2564 0.6777 0.0000
vt 0.2491 0.7003 0.0000
vt 0.2436 0.6974 0.0000
vt 0.2509 0.6747 0.0000
vt 0.1700 0.6103 0.0000
vt 0.1937 0.6070 0.0000
vt 0.1682 0.6045 0.0000
vt 0.1918 0.6012 0.0000
vt 0.2366 0.7177 0.0000
vt 0.2321 0.7134 0.0000
vt 0.1524 0.6190 0.0000
vt 0.1489 0.6139 0.0000
vt 0.2180 0.7330 0.0000
vt 0.2154 0.7273 0.0000
vt 0.1358 0.6332 0.0000
vt 0.1308 0.6296 0.0000
vt 0.1886 0.7398 0.0000
vt 0.1889 0.7338 0.0000
vt 0.1250 0.6581 0.0000
vt 0.1191 0.6573 0.0000
vt 0.2655 0.6659 0.0000
vt 0.2620 0.6604 0.0000
vt 0.2053 0.5944 0.0000
vt 0.2098 0.5987 0.0000
# 158 texture coords

o PuzzleBottomTurnLTRKnobs
g PuzzleBottomTurnLTRKnobs
usemtl wire_177088027
s 2
f 1/1/1 2/2/2 3/3/3 4/4/4 
s 4
f 5/5/5 2/2/2 6/6/6 7/7/7 
s 2
f 8/8/8 9/9/9 3/3/3 10/10/10 
s 4
f 11/11/11 12/12/12 13/13/13 14/14/14 
s 2
f 5/5/5 13/13/13 15/15/15 10/10/10 
f 16/16/16 17/17/17 15/15/15 18/18/18 
f 2/2/2 5/5/5 10/10/10 3/3/3 
s 4
f 2/2/2 1/1/1 19/19/19 6/6/6 
s 2
f 9/9/9 20/20/20 4/4/4 3/3/3 
s 4
f 13/13/13 5/5/5 7/7/7 14/14/14 
s 2
f 13/13/13 12/12/12 18/18/18 15/15/15 
f 17/17/17 8/8/8 10/10/10 15/15/15 
s 4
f 21/21/21 22/22/22 23/23/23 24/24/24 
s 2
f 25/25/25 26/26/26 27/27/27 28/28/28 
f 29/29/29 23/23/23 27/27/27 30/30/30 
s 4
f 31/31/31 29/29/29 32/32/32 33/33/33 
s 2
f 34/34/34 32/32/32 35/35/35 36/36/36 
f 37/37/37 38/38/38 35/35/35 30/30/30 
s 4
f 23/23/23 29/29/29 31/31/31 24/24/24 
s 2
f 26/26/26 37/37/37 30/30/30 27/27/27 
f 23/23/23 22/22/22 28/28/28 27/27/27 
s 4
f 32/32/32 34/34/34 39/39/39 33/33/33 
s 2
f 32/32/32 29/29/29 30/30/30 35/35/35 
f 38/38/38 40/40/40 36/36/36 35/35/35 
s 1
f 41/41/41 42/42/42 43/43/43 
f 42/42/42 44/44/44 45/45/45 
f 46/46/46 47/47/47 48/48/48 
f 47/47/47 49/49/49 50/50/50 
f 48/48/48 47/47/47 51/51/51 
f 47/47/47 50/50/50 52/52/52 
f 51/51/51 47/47/47 53/53/53 
f 47/47/47 52/52/52 54/54/54 
f 53/53/53 47/47/47 55/55/55 
f 47/47/47 54/54/54 56/56/56 
f 55/55/55 47/47/47 57/57/57 
f 47/47/47 56/56/56 58/58/58 
f 42/42/42 59/59/59 47/47/47 
f 42/42/42 60/60/60 43/43/43 
f 45/45/45 59/59/59 42/42/42 
f 59/59/59 49/49/49 47/47/47 
f 47/47/47 46/46/46 60/60/60 
f 47/47/47 60/60/60 42/42/42 
s 4
f 22/22/22 61/61/61 62/62/62 28/28/28 
f 63/63/63 64/64/64 65/65/65 66/66/66 
f 67/67/67 1/1/1 4/4/4 68/68/68 
f 69/69/69 63/63/63 66/66/66 70/70/70 
f 71/71/71 67/67/67 68/68/68 72/72/72 
f 41/41/41 43/43/43 72/72/72 68/68/68 
f 45/45/45 44/44/44 62/62/62 73/73/73 
f 61/61/61 74/74/74 73/73/73 62/62/62 
f 75/75/75 76/76/76 77/77/77 78/78/78 
f 46/46/46 48/48/48 78/78/78 77/77/77 
f 50/50/50 49/49/49 79/79/79 80/80/80 
f 81/81/81 82/82/82 80/80/80 79/79/79 
f 83/83/83 75/75/75 78/78/78 84/84/84 
f 48/48/48 51/51/51 84/84/84 78/78/78 
f 52/52/52 50/50/50 80/80/80 85/85/85 
f 82/82/82 86/86/86 85/85/85 80/80/80 
f 87/87/87 83/83/83 84/84/84 88/88/88 
f 51/51/51 53/53/53 88/88/88 84/84/84 
f 54/54/54 52/52/52 85/85/85 89/89/89 
f 86/86/86 90/90/90 89/89/89 85/85/85 
f 91/91/91 87/87/87 88/88/88 92/92/92 
f 53/53/53 55/55/55 92/92/92 88/88/88 
f 56/56/56 54/54/54 89/89/89 93/93/93 
f 90/90/90 94/94/94 93/93/93 89/89/89 
f 64/64/64 91/91/91 92/92/92 65/65/65 
f 57/57/57 47/47/47 66/66/66 65/65/65 
f 55/55/55 57/57/57 65/65/65 92/92/92 
f 58/58/58 56/56/56 93/93/93 70/70/70 
f 47/47/47 58/58/58 70/70/70 66/66/66 
f 94/94/94 69/69/69 70/70/70 93/93/93 
f 76/76/76 95/95/95 96/96/96 77/77/77 
f 97/97/97 81/81/81 79/79/79 98/98/98 
f 95/95/95 71/71/71 72/72/72 96/96/96 
f 43/43/43 60/60/60 96/96/96 72/72/72 
f 59/59/59 45/45/45 73/73/73 98/98/98 
f 74/74/74 97/97/97 98/98/98 73/73/73 
f 49/49/49 59/59/59 98/98/98 79/79/79 
f 60/60/60 46/46/46 77/77/77 96/96/96 
f 20/20/20 41/41/41 68/68/68 4/4/4 
f 44/44/44 25/25/25 28/28/28 62/62/62 
s 1
f 99/99/99 100/100/100 101/101/101 
f 101/101/101 102/102/102 103/103/103 
f 104/104/104 105/105/105 106/106/106 
f 106/106/106 107/107/107 108/108/108 
f 105/105/105 109/109/109 106/106/106 
f 106/106/106 110/110/110 107/107/107 
f 109/109/109 111/111/111 106/106/106 
f 106/106/106 112/112/112 110/110/110 
f 111/111/111 113/113/113 106/106/106 
f 106/106/106 114/114/114 112/112/112 
f 113/113/113 115/115/115 106/106/106 
f 106/106/106 116/116/116 114/114/114 
f 101/101/101 106/106/106 117/117/117 
f 101/101/101 100/100/100 118/118/118 
f 102/102/102 101/101/101 117/117/117 
f 117/117/117 106/106/106 108/108/108 
f 106/106/106 118/118/118 104/104/104 
f 106/106/106 101/101/101 118/118/118 
s 4
f 119/119/119 34/34/34 36/36/36 120/120/120 
f 121/121/121 122/122/122 123/123/123 124/124/124 
f 125/125/125 126/126/126 127/127/127 128/128/128 
f 122/122/122 129/129/129 130/130/130 123/123/123 
f 126/126/126 131/131/131 132/132/132 127/127/127 
f 100/100/100 99/99/99 127/127/127 132/132/132 
f 103/103/103 102/102/102 133/133/133 120/120/120 
f 134/134/134 119/119/119 120/120/120 133/133/133 
f 135/135/135 136/136/136 137/137/137 138/138/138 
f 105/105/105 104/104/104 138/138/138 137/137/137 
f 108/108/108 107/107/107 139/139/139 140/140/140 
f 141/141/141 142/142/142 140/140/140 139/139/139 
f 136/136/136 143/143/143 144/144/144 137/137/137 
f 109/109/109 105/105/105 137/137/137 144/144/144 
f 107/107/107 110/110/110 145/145/145 139/139/139 
f 146/146/146 141/141/141 139/139/139 145/145/145 
f 143/143/143 147/147/147 148/148/148 144/144/144 
f 111/111/111 109/109/109 144/144/144 148/148/148 
f 110/110/110 112/112/112 149/149/149 145/145/145 
f 150/150/150 146/146/146 145/145/145 149/149/149 
f 147/147/147 151/151/151 152/152/152 148/148/148 
f 113/113/113 111/111/111 148/148/148 152/152/152 
f 112/112/112 114/114/114 153/153/153 149/149/149 
f 154/154/154 150/150/150 149/149/149 153/153/153 
f 151/151/151 121/121/121 124/124/124 152/152/152 
f 115/115/115 113/113/113 152/152/152 124/124/124 
f 106/106/106 115/115/115 124/124/124 123/123/123 
f 116/116/116 106/106/106 123/123/123 130/130/130 
f 114/114/114 116/116/116 130/130/130 153/153/153 
f 129/129/129 154/154/154 153/153/153 130/130/130 
f 155/155/155 135/135/135 138/138/138 156/156/156 
f 142/142/142 157/157/157 158/158/158 140/140/140 
f 131/131/131 155/155/155 156/156/156 132/132/132 
f 118/118/118 100/100/100 132/132/132 156/156/156 
f 102/102/102 117/117/117 158/158/158 133/133/133 
f 157/157/157 134/134/134 133/133/133 158/158/158 
f 117/117/117 108/108/108 140/140/140 158/158/158 
f 104/104/104 118/118/118 156/156/156 138/138/138 
f 40/40/40 103/103/103 120/120/120 36/36/36 
f 99/99/99 16/16/16 128/128/128 127/127/127 
s off
f 42/42/42 41/41/41 9/9/9 101/101/101 
f 44/44/44 42/42/42 101/101/101 26/26/26 
f 41/41/41 20/20/20 9/9/9 
f 25/25/25 44/44/44 26/26/26 
f 101/101/101 9/9/9 8/8/8 
f 26/26/26 101/101/101 37/37/37 
f 101/101/101 8/8/8 17/17/17 
f 37/37/37 101/101/101 38/38/38 
f 101/101/101 17/17/17 99/99/99 
f 38/38/38 101/101/101 103/103/103 
f 17/17/17 16/16/16 99/99/99 
f 38/38/38 103/103/103 40/40/40 
# 106 polygons - 46 triangles

