# 3ds Max Wavefront OBJ Exporter v0.99 - (c)2007 guruware
# File Created: 27.11.2023 09:16:30

mtllib Top Turn RTL Knobs.mtl

#
# object PuzzleTopTurnRTLKnobs
#

v  -373.8374 23.0315 -36.9360
v  -314.3945 23.0315 20.1028
v  -312.3174 27.7643 19.7749
v  -371.3354 27.7582 -36.9360
v  -273.0730 23.0315 94.6936
v  -314.3945 -29.5275 20.1028
v  -273.0730 -29.5275 94.6936
v  -266.5750 29.5275 92.0042
v  -306.7876 29.5275 18.8555
v  -271.3027 27.7745 93.9839
v  -251.5303 -29.5275 258.3394
v  -251.5303 23.0315 258.3394
v  -254.7053 23.0315 169.0310
v  -254.7053 -29.5275 169.0310
v  -253.0137 27.7927 167.8384
v  -245.0344 29.5275 251.8435
v  -248.4114 29.5275 164.5071
v  -249.8169 27.8140 256.6255
v  -373.8374 -29.5275 -36.9360
v  -364.0479 29.5275 -36.9360
v  43.7451 -29.5275 -454.5188
v  43.7451 23.0315 -454.5188
v  181.6418 23.0315 -328.2273
v  181.6418 -29.5275 -328.2273
v  43.7451 29.5275 -444.7477
v  177.8254 29.5275 -321.7605
v  180.6404 27.8189 -326.5217
v  43.7449 27.4420 -452.0968
v  283.6296 23.0315 -140.4319
v  281.9165 27.8140 -139.5752
v  283.6296 -29.5275 -140.4319
v  339.2949 23.0315 54.1973
v  339.2949 -29.5275 54.1973
v  339.0208 23.0315 258.3391
v  337.4116 27.7901 53.7935
v  337.2903 27.7970 256.6086
v  277.1338 29.5275 -137.1833
v  332.2556 29.5275 52.7678
v  339.0208 -29.5275 258.3391
v  332.5249 29.5275 251.8433
v  -200.4238 29.5275 -200.5605
v  -159.8906 29.5275 -241.2598
v  -196.1040 29.5275 -222.3162
v  -119.8789 29.5275 -281.1057
v  -141.6345 29.5275 -276.7854
v  -218.1121 29.5275 -250.7634
v  -254.0366 29.5275 -334.7188
v  -238.7227 29.5275 -255.0977
v  -170.0823 29.5275 -298.7932
v  -174.4160 29.5275 -319.4043
v  -252.3184 29.5275 -263.3877
v  -182.7063 29.5275 -332.9998
v  -264.5593 29.5275 -275.6287
v  -194.9468 29.5275 -345.2407
v  -272.9956 29.5275 -295.7759
v  -215.0942 29.5275 -353.6770
v  -267.1157 29.5275 -319.6528
v  -238.9709 29.5275 -347.7976
v  -160.1938 29.5275 -282.9570
v  -202.2756 29.5275 -240.8752
v  -123.2874 22.6055 -287.4861
v  -122.6328 28.1989 -286.2612
v  -258.3394 22.6055 -339.0210
v  -272.1045 22.6055 -322.0684
v  -270.8572 27.7970 -321.4646
v  -257.5623 28.2770 -338.2439
v  -206.8042 22.6055 -203.9692
v  -205.3081 27.9038 -203.1697
v  -241.3867 22.6055 -352.7859
v  -240.7832 27.7970 -351.5388
v  -203.2498 22.6055 -221.8691
v  -201.4634 27.7970 -221.9805
v  -141.2991 27.7970 -282.1448
v  -141.1875 22.6055 -283.9314
v  -241.3105 22.6055 -248.5684
v  -220.7371 22.6055 -244.2424
v  -220.0811 27.7970 -245.8726
v  -240.6636 27.7970 -250.2007
v  -165.1912 27.7970 -300.7629
v  -169.5195 27.7970 -321.3450
v  -163.5608 22.6055 -301.4192
v  -167.8872 22.6055 -321.9917
v  -256.6279 22.6055 -257.9077
v  -255.5508 27.7970 -259.2781
v  -178.5967 27.7970 -336.2324
v  -177.2268 22.6055 -337.3093
v  -270.6592 22.6055 -271.9395
v  -269.1345 27.7970 -272.8616
v  -192.1804 27.7970 -349.8162
v  -191.2583 22.6055 -351.3413
v  -278.0288 22.6055 -295.5684
v  -276.7708 27.7970 -295.6199
v  -214.9390 27.7970 -357.4519
v  -214.8865 22.6055 -358.7107
v  -208.0566 22.6055 -236.3247
v  -206.6335 27.8232 -237.4453
v  -155.6433 22.6055 -288.7385
v  -156.4858 28.2454 -287.6680
v  -13.2092 29.5275 251.4172
v  5.2292 29.5275 263.7458
v  43.7449 29.5275 251.4294
v  82.2612 29.5275 263.7456
v  100.7151 29.5275 251.4294
v  9.7830 29.5275 299.4238
v  -1.7263 29.5275 317.0618
v  43.7451 29.5275 384.1914
v  89.2168 29.5275 317.0620
v  77.7073 29.5275 299.4236
v  -5.4778 29.5275 332.5369
v  92.9685 29.5275 332.5378
v  -5.4783 29.5275 349.8484
v  92.9685 29.5275 349.8489
v  2.8025 29.5275 370.0601
v  84.6877 29.5275 370.0603
v  23.8440 29.5275 382.7864
v  63.6465 29.5275 382.7866
v  73.5017 29.5275 281.2336
v  13.9893 29.5275 281.2334
v  102.8005 22.6055 258.3391
v  102.3655 28.0847 255.7800
v  22.0247 22.6055 388.0222
v  43.7456 22.6055 390.2759
v  43.7451 28.2770 389.1768
v  22.4792 27.7970 386.7136
v  -15.3096 22.6055 258.3394
v  -14.9070 28.1989 257.0105
v  65.4658 22.6055 388.0215
v  65.0105 27.7970 386.7136
v  -0.1396 22.6055 268.4829
v  1.2024 27.7970 267.2986
v  86.2878 27.7970 267.2986
v  87.6301 22.6055 268.4827
v  3.3157 22.6055 296.6687
v  -8.1731 22.6055 314.2751
v  -6.5613 27.7970 314.9719
v  4.9324 27.7970 297.3577
v  94.0520 27.7970 314.9714
v  82.5581 27.7970 297.3572
v  95.6631 22.6055 314.2756
v  84.1753 22.6055 296.6689
v  -12.4001 22.6055 331.7102
v  -10.6694 27.7970 331.9167
v  98.1602 27.7970 331.9170
v  99.8906 22.6055 331.7104
v  -12.4001 22.6055 351.5540
v  -10.6694 27.7970 351.1274
v  98.1604 27.7970 351.1277
v  99.8906 22.6055 351.5542
v  -0.9028 22.6055 373.4727
v  0.0234 27.7970 372.6201
v  87.4670 27.7970 372.6199
v  88.3936 22.6055 373.4731
v  6.6833 22.6055 282.1033
v  8.0364 28.2454 281.9421
v  80.8076 22.6055 282.1033
v  79.0088 27.8232 281.8896
# 156 vertices

vn -0.8840 0.2796 0.3747
vn -0.7728 0.1863 0.6067
vn -0.5361 0.7356 0.4141
vn -0.7109 0.7032 0.0092
vn -0.9134 0.1930 0.3584
vn -0.7925 0.0000 0.6099
vn -0.9309 0.0000 0.3654
vn -0.1404 0.9885 0.0554
vn -0.1241 0.9884 0.0872
vn -0.6231 0.7432 0.2440
vn -0.9994 0.0000 0.0355
vn -0.8731 0.2726 0.4042
vn -0.9742 0.1845 0.1301
vn -0.9904 0.0000 0.1384
vn -0.6743 0.7325 0.0937
vn -0.1229 0.9833 0.1345
vn -0.1505 0.9883 0.0258
vn -0.4972 0.6963 0.5177
vn -0.6924 0.0000 0.7215
vn -0.1766 0.9843 0.0027
vn 0.6754 0.0000 -0.7375
vn 0.3287 0.2903 -0.8987
vn 0.7710 0.1799 -0.6109
vn 0.7879 0.0000 -0.6158
vn -0.0095 0.9794 -0.2018
vn 0.1462 0.9838 -0.1036
vn 0.5630 0.7021 -0.4359
vn -0.0178 0.7029 -0.7111
vn 0.9091 0.1865 -0.3726
vn 0.6457 0.7167 -0.2635
vn 0.9257 0.0000 -0.3784
vn 0.9752 0.1785 -0.1309
vn 0.9904 0.0000 -0.1382
vn 0.8840 0.2741 0.3787
vn 0.7084 0.6985 -0.1017
vn 0.5067 0.6960 0.5088
vn 0.1531 0.9863 -0.0616
vn 0.1814 0.9829 -0.0320
vn 1.0000 0.0000 0.0013
vn 0.1313 0.9826 0.1314
vn -0.1022 0.9933 -0.0546
vn 0.0000 1.0000 -0.0000
vn -0.1299 0.9915 0.0081
vn -0.0428 0.9959 -0.0801
vn 0.0081 0.9915 -0.1299
vn -0.0525 0.9901 0.1305
vn -0.0905 0.9918 -0.0905
vn -0.0644 0.9846 0.1623
vn 0.1304 0.9901 -0.0525
vn 0.1624 0.9846 -0.0644
vn -0.1056 0.9853 0.1343
vn 0.1343 0.9853 -0.1056
vn -0.1445 0.9846 0.0984
vn 0.0984 0.9846 -0.1445
vn -0.2528 0.9673 0.0219
vn 0.0220 0.9673 -0.2528
vn -0.1985 0.9746 -0.1041
vn -0.1041 0.9746 -0.1985
vn 0.0508 0.9966 -0.0646
vn -0.0914 0.9932 0.0719
vn -0.4574 0.2409 -0.8560
vn -0.3155 0.7657 -0.5606
vn -0.6942 0.1902 -0.6942
vn -0.8696 0.2579 -0.4211
vn -0.7049 0.6271 -0.3313
vn -0.5232 0.6726 -0.5233
vn -0.8399 0.3050 -0.4489
vn -0.5696 0.7618 -0.3086
vn -0.4211 0.2578 -0.8696
vn -0.3313 0.6271 -0.7050
vn -0.9435 0.3259 0.0591
vn -0.6573 0.7526 0.0381
vn 0.0462 0.7531 -0.6563
vn 0.0591 0.3260 -0.9435
vn -0.3491 0.3204 0.8806
vn -0.3537 0.3206 0.8787
vn -0.2539 0.7361 0.6274
vn -0.2678 0.6868 0.6757
vn 0.6196 0.7362 -0.2722
vn 0.6757 0.6868 -0.2678
vn 0.8787 0.3207 -0.3537
vn 0.8806 0.3204 -0.3491
vn -0.5861 0.3183 0.7451
vn -0.4462 0.6921 0.5673
vn 0.5674 0.6921 -0.4463
vn 0.7452 0.3182 -0.5861
vn -0.8094 0.3246 0.4894
vn -0.6216 0.6820 0.3852
vn 0.3852 0.6821 -0.6216
vn 0.4894 0.3247 -0.8093
vn -0.9710 0.2357 0.0400
vn -0.7979 0.6015 0.0394
vn 0.0394 0.6015 -0.7979
vn 0.0400 0.2358 -0.9710
vn -0.7423 0.3280 0.5843
vn -0.4995 0.7720 0.3931
vn 0.6012 0.2348 -0.7638
vn 0.3885 0.7775 -0.4945
vn -0.0263 0.9959 0.0868
vn -0.0976 0.9915 0.0861
vn -0.0000 1.0000 0.0000
vn 0.0975 0.9915 0.0861
vn 0.0365 0.9925 0.1167
vn -0.1294 0.9901 -0.0551
vn -0.1603 0.9846 -0.0693
vn -0.0000 0.9918 0.1280
vn 0.1603 0.9846 -0.0693
vn 0.1294 0.9901 -0.0551
vn -0.1696 0.9853 -0.0203
vn 0.1696 0.9853 -0.0203
vn -0.1717 0.9846 0.0326
vn 0.1717 0.9846 0.0326
vn -0.1943 0.9673 0.1633
vn 0.1943 0.9673 0.1633
vn -0.0668 0.9746 0.2139
vn 0.0668 0.9746 0.2139
vn 0.1155 0.9932 0.0138
vn -0.0816 0.9966 0.0097
vn 0.2725 0.4249 0.8633
vn 0.1721 0.7959 0.5805
vn -0.3171 0.2578 0.9127
vn 0.0000 0.1902 0.9817
vn 0.0000 0.6727 0.7399
vn -0.2642 0.6271 0.7328
vn -0.2819 0.2409 0.9287
vn -0.1726 0.7655 0.6198
vn 0.3171 0.2578 0.9127
vn 0.2642 0.6271 0.7328
vn -0.7089 0.3259 0.6254
vn -0.4968 0.7531 0.4314
vn 0.5008 0.7492 0.4336
vn 0.7089 0.3259 0.6254
vn -0.8714 0.3206 -0.3712
vn -0.8695 0.3204 -0.3759
vn -0.6672 0.6868 -0.2884
vn -0.6307 0.7362 -0.2457
vn 0.6672 0.6868 -0.2884
vn 0.6232 0.7361 -0.2641
vn 0.8696 0.3203 -0.3759
vn 0.8714 0.3206 -0.3712
vn -0.9413 0.3183 -0.1125
vn -0.7167 0.6921 -0.0856
vn 0.7167 0.6921 -0.0856
vn 0.9413 0.3182 -0.1125
vn -0.9183 0.3247 0.2262
vn -0.7119 0.6821 0.1672
vn 0.7119 0.6820 0.1672
vn 0.9184 0.3247 0.2262
vn -0.7149 0.2357 0.6583
vn -0.5921 0.6015 0.5363
vn 0.5921 0.6015 0.5363
vn 0.7149 0.2358 0.6583
vn -0.9652 0.2349 0.1150
vn -0.6244 0.7775 0.0750
vn 0.9381 0.3279 0.1118
vn 0.6312 0.7720 0.0752
# 156 vertex normals

vt 0.8246 0.7508 0.0000
vt 0.7286 0.7499 0.0000
vt 0.7267 0.7441 0.0000
vt 0.8196 0.7473 0.0000
vt 0.6331 0.7693 0.0000
vt 0.7367 0.8095 0.0000
vt 0.6518 0.8260 0.0000
vt 0.6294 0.7578 0.0000
vt 0.7229 0.7382 0.0000
vt 0.6312 0.7637 0.0000
vt 0.5011 0.9163 0.0000
vt 0.4685 0.8671 0.0000
vt 0.5540 0.8079 0.0000
vt 0.5816 0.8594 0.0000
vt 0.5521 0.8022 0.0000
vt 0.4714 0.8536 0.0000
vt 0.5518 0.7952 0.0000
vt 0.4705 0.8612 0.0000
vt 0.8271 0.8095 0.0000
vt 0.8139 0.7413 0.0000
vt 0.8731 0.0206 0.0000
vt 0.8687 0.0802 0.0000
vt 0.6582 0.0594 0.0000
vt 0.6540 0.0000 0.0000
vt 0.8576 0.0899 0.0000
vt 0.6560 0.0714 0.0000
vt 0.6578 0.0652 0.0000
vt 0.8641 0.0839 0.0000
vt 0.4226 0.1086 0.0000
vt 0.4243 0.1143 0.0000
vt 0.4045 0.0529 0.0000
vt 0.2153 0.2033 0.0000
vt 0.1840 0.1525 0.0000
vt 0.0372 0.3509 0.0000
vt 0.2189 0.2078 0.0000
vt 0.0435 0.3514 0.0000
vt 0.4258 0.1204 0.0000
vt 0.2237 0.2118 0.0000
vt 0.0000 0.3043 0.0000
vt 0.0514 0.3523 0.0000
vt 0.8325 0.4838 0.0000
vt 0.8375 0.4188 0.0000
vt 0.8479 0.4637 0.0000
vt 0.8424 0.3549 0.0000
vt 0.8546 0.3770 0.0000
vt 0.8889 0.4619 0.0000
vt 0.9876 0.4309 0.0000
vt 0.9081 0.4762 0.0000
vt 0.8949 0.3853 0.0000
vt 0.9160 0.3740 0.0000
vt 0.9252 0.4818 0.0000
vt 0.9338 0.3711 0.0000
vt 0.9447 0.4833 0.0000
vt 0.9532 0.3727 0.0000
vt 0.9681 0.4756 0.0000
vt 0.9752 0.3838 0.0000
vt 0.9843 0.4532 0.0000
vt 0.9877 0.4085 0.0000
vt 0.8738 0.3884 0.0000
vt 0.8686 0.4555 0.0000
vt 0.8555 0.3530 0.0000
vt 0.8490 0.3533 0.0000
vt 1.0000 0.4319 0.0000
vt 0.9944 0.4579 0.0000
vt 0.9889 0.4552 0.0000
vt 0.9935 0.4314 0.0000
vt 0.8448 0.4873 0.0000
vt 0.8386 0.4861 0.0000
vt 0.9985 0.4055 0.0000
vt 0.9927 0.4072 0.0000
vt 0.8553 0.4736 0.0000
vt 0.8516 0.4687 0.0000
vt 0.8591 0.3726 0.0000
vt 0.8636 0.3685 0.0000
vt 0.9026 0.4872 0.0000
vt 0.8834 0.4730 0.0000
vt 0.8862 0.4675 0.0000
vt 0.9053 0.4818 0.0000
vt 0.8930 0.3792 0.0000
vt 0.9142 0.3681 0.0000
vt 0.8912 0.3732 0.0000
vt 0.9123 0.3622 0.0000
vt 0.9229 0.4941 0.0000
vt 0.9240 0.4880 0.0000
vt 0.9335 0.3649 0.0000
vt 0.9334 0.3586 0.0000
vt 0.9468 0.4956 0.0000
vt 0.9458 0.4895 0.0000
vt 0.9553 0.3667 0.0000
vt 0.9573 0.3608 0.0000
vt 0.9747 0.4841 0.0000
vt 0.9710 0.4793 0.0000
vt 0.9786 0.3806 0.0000
vt 0.9830 0.3765 0.0000
vt 0.8690 0.4683 0.0000
vt 0.8689 0.4621 0.0000
vt 0.8765 0.3752 0.0000
vt 0.8752 0.3816 0.0000
vt 0.3041 0.6561 0.0000
vt 0.2798 0.6491 0.0000
vt 0.2623 0.6070 0.0000
vt 0.2235 0.5827 0.0000
vt 0.2203 0.5574 0.0000
vt 0.2453 0.6716 0.0000
vt 0.2382 0.6945 0.0000
vt 0.1472 0.7042 0.0000
vt 0.1720 0.6162 0.0000
vt 0.1957 0.6129 0.0000
vt 0.2276 0.7090 0.0000
vt 0.1559 0.6242 0.0000
vt 0.2126 0.7216 0.0000
vt 0.1410 0.6368 0.0000
vt 0.1892 0.7291 0.0000
vt 0.1297 0.6587 0.0000
vt 0.1629 0.7203 0.0000
vt 0.1339 0.6861 0.0000
vt 0.2146 0.6032 0.0000
vt 0.2581 0.6546 0.0000
vt 0.2093 0.5631 0.0000
vt 0.2151 0.5593 0.0000
vt 0.1573 0.7300 0.0000
vt 0.1377 0.7122 0.0000
vt 0.1427 0.7080 0.0000
vt 0.1603 0.7247 0.0000
vt 0.2959 0.6665 0.0000
vt 0.3004 0.6618 0.0000
vt 0.1234 0.6898 0.0000
vt 0.1292 0.6879 0.0000
vt 0.2795 0.6615 0.0000
vt 0.2797 0.6553 0.0000
vt 0.2173 0.5817 0.0000
vt 0.2113 0.5809 0.0000
vt 0.2564 0.6776 0.0000
vt 0.2491 0.7002 0.0000
vt 0.2436 0.6974 0.0000
vt 0.2509 0.6746 0.0000
vt 0.1700 0.6103 0.0000
vt 0.1937 0.6070 0.0000
vt 0.1682 0.6044 0.0000
vt 0.1918 0.6011 0.0000
vt 0.2366 0.7176 0.0000
vt 0.2321 0.7133 0.0000
vt 0.1524 0.6190 0.0000
vt 0.1489 0.6138 0.0000
vt 0.2180 0.7329 0.0000
vt 0.2154 0.7273 0.0000
vt 0.1358 0.6331 0.0000
vt 0.1308 0.6296 0.0000
vt 0.1886 0.7398 0.0000
vt 0.1890 0.7337 0.0000
vt 0.1250 0.6581 0.0000
vt 0.1191 0.6573 0.0000
vt 0.2655 0.6659 0.0000
vt 0.2620 0.6604 0.0000
vt 0.2053 0.5944 0.0000
vt 0.2098 0.5987 0.0000
# 156 texture coords

o PuzzleTopTurnRTLKnobs
g PuzzleTopTurnRTLKnobs
usemtl wire_177088027
s 2
f 1/1/1 2/2/2 3/3/3 4/4/4 
s 4
f 5/5/5 2/2/2 6/6/6 7/7/7 
s 2
f 8/8/8 9/9/9 3/3/3 10/10/10 
s 4
f 11/11/11 12/12/12 13/13/13 14/14/14 
s 2
f 5/5/5 13/13/13 15/15/15 10/10/10 
f 16/16/16 17/17/17 15/15/15 18/18/18 
f 2/2/2 5/5/5 10/10/10 3/3/3 
s 4
f 2/2/2 1/1/1 19/19/19 6/6/6 
s 2
f 9/9/9 20/20/20 4/4/4 3/3/3 
s 4
f 13/13/13 5/5/5 7/7/7 14/14/14 
s 2
f 13/13/13 12/12/12 18/18/18 15/15/15 
f 17/17/17 8/8/8 10/10/10 15/15/15 
s 4
f 21/21/21 22/22/22 23/23/23 24/24/24 
s 2
f 25/25/25 26/26/26 27/27/27 28/28/28 
f 29/29/29 23/23/23 27/27/27 30/30/30 
s 4
f 31/31/31 29/29/29 32/32/32 33/33/33 
s 2
f 34/34/34 32/32/32 35/35/35 36/36/36 
f 37/37/37 38/38/38 35/35/35 30/30/30 
s 4
f 23/23/23 29/29/29 31/31/31 24/24/24 
s 2
f 26/26/26 37/37/37 30/30/30 27/27/27 
f 23/23/23 22/22/22 28/28/28 27/27/27 
s 4
f 32/32/32 34/34/34 39/39/39 33/33/33 
s 2
f 32/32/32 29/29/29 30/30/30 35/35/35 
f 38/38/38 40/40/40 36/36/36 35/35/35 
s 1
f 41/41/41 42/42/42 43/43/43 
f 42/42/42 44/44/44 45/45/45 
f 46/46/46 47/47/47 48/48/48 
f 47/47/47 49/49/49 50/50/50 
f 48/48/48 47/47/47 51/51/51 
f 47/47/47 50/50/50 52/52/52 
f 51/51/51 47/47/47 53/53/53 
f 47/47/47 52/52/52 54/54/54 
f 53/53/53 47/47/47 55/55/55 
f 47/47/47 54/54/54 56/56/56 
f 55/55/55 47/47/47 57/57/57 
f 47/47/47 56/56/56 58/58/58 
f 42/42/42 59/59/59 47/47/47 
f 42/42/42 60/60/60 43/43/43 
f 45/45/45 59/59/59 42/42/42 
f 59/59/59 49/49/49 47/47/47 
f 47/47/47 46/46/46 60/60/60 
f 47/47/47 60/60/60 42/42/42 
s 4
f 22/22/22 61/61/61 62/62/62 28/28/28 
f 63/63/63 64/64/64 65/65/65 66/66/66 
f 67/67/67 1/1/1 4/4/4 68/68/68 
f 69/69/69 63/63/63 66/66/66 70/70/70 
f 71/71/71 67/67/67 68/68/68 72/72/72 
f 41/41/41 43/43/43 72/72/72 68/68/68 
f 45/45/45 44/44/44 62/62/62 73/73/73 
f 61/61/61 74/74/74 73/73/73 62/62/62 
f 75/75/75 76/76/76 77/77/77 78/78/78 
f 46/46/46 48/48/48 78/78/78 77/77/77 
f 50/50/50 49/49/49 79/79/79 80/80/80 
f 81/81/81 82/82/82 80/80/80 79/79/79 
f 83/83/83 75/75/75 78/78/78 84/84/84 
f 48/48/48 51/51/51 84/84/84 78/78/78 
f 52/52/52 50/50/50 80/80/80 85/85/85 
f 82/82/82 86/86/86 85/85/85 80/80/80 
f 87/87/87 83/83/83 84/84/84 88/88/88 
f 51/51/51 53/53/53 88/88/88 84/84/84 
f 54/54/54 52/52/52 85/85/85 89/89/89 
f 86/86/86 90/90/90 89/89/89 85/85/85 
f 91/91/91 87/87/87 88/88/88 92/92/92 
f 53/53/53 55/55/55 92/92/92 88/88/88 
f 56/56/56 54/54/54 89/89/89 93/93/93 
f 90/90/90 94/94/94 93/93/93 89/89/89 
f 64/64/64 91/91/91 92/92/92 65/65/65 
f 57/57/57 47/47/47 66/66/66 65/65/65 
f 55/55/55 57/57/57 65/65/65 92/92/92 
f 58/58/58 56/56/56 93/93/93 70/70/70 
f 47/47/47 58/58/58 70/70/70 66/66/66 
f 94/94/94 69/69/69 70/70/70 93/93/93 
f 76/76/76 95/95/95 96/96/96 77/77/77 
f 97/97/97 81/81/81 79/79/79 98/98/98 
f 95/95/95 71/71/71 72/72/72 96/96/96 
f 43/43/43 60/60/60 96/96/96 72/72/72 
f 59/59/59 45/45/45 73/73/73 98/98/98 
f 74/74/74 97/97/97 98/98/98 73/73/73 
f 49/49/49 59/59/59 98/98/98 79/79/79 
f 60/60/60 46/46/46 77/77/77 96/96/96 
f 20/20/20 41/41/41 68/68/68 4/4/4 
f 44/44/44 25/25/25 28/28/28 62/62/62 
s 1
f 99/99/99 100/100/100 101/101/101 
f 101/101/101 102/102/102 103/103/103 
f 104/104/104 105/105/105 106/106/106 
f 106/106/106 107/107/107 108/108/108 
f 105/105/105 109/109/109 106/106/106 
f 106/106/106 110/110/110 107/107/107 
f 109/109/109 111/111/111 106/106/106 
f 106/106/106 112/112/112 110/110/110 
f 111/111/111 113/113/113 106/106/106 
f 106/106/106 114/114/114 112/112/112 
f 113/113/113 115/115/115 106/106/106 
f 106/106/106 116/116/116 114/114/114 
f 101/101/101 106/106/106 117/117/117 
f 101/101/101 100/100/100 118/118/118 
f 102/102/102 101/101/101 117/117/117 
f 117/117/117 106/106/106 108/108/108 
f 106/106/106 118/118/118 104/104/104 
f 106/106/106 101/101/101 118/118/118 
s 4
f 119/119/119 34/34/34 36/36/36 120/120/120 
f 121/121/121 122/122/122 123/123/123 124/124/124 
f 12/12/12 125/125/125 126/126/126 18/18/18 
f 122/122/122 127/127/127 128/128/128 123/123/123 
f 125/125/125 129/129/129 130/130/130 126/126/126 
f 100/100/100 99/99/99 126/126/126 130/130/130 
f 103/103/103 102/102/102 131/131/131 120/120/120 
f 132/132/132 119/119/119 120/120/120 131/131/131 
f 133/133/133 134/134/134 135/135/135 136/136/136 
f 105/105/105 104/104/104 136/136/136 135/135/135 
f 108/108/108 107/107/107 137/137/137 138/138/138 
f 139/139/139 140/140/140 138/138/138 137/137/137 
f 134/134/134 141/141/141 142/142/142 135/135/135 
f 109/109/109 105/105/105 135/135/135 142/142/142 
f 107/107/107 110/110/110 143/143/143 137/137/137 
f 144/144/144 139/139/139 137/137/137 143/143/143 
f 141/141/141 145/145/145 146/146/146 142/142/142 
f 111/111/111 109/109/109 142/142/142 146/146/146 
f 110/110/110 112/112/112 147/147/147 143/143/143 
f 148/148/148 144/144/144 143/143/143 147/147/147 
f 145/145/145 149/149/149 150/150/150 146/146/146 
f 113/113/113 111/111/111 146/146/146 150/150/150 
f 112/112/112 114/114/114 151/151/151 147/147/147 
f 152/152/152 148/148/148 147/147/147 151/151/151 
f 149/149/149 121/121/121 124/124/124 150/150/150 
f 115/115/115 113/113/113 150/150/150 124/124/124 
f 106/106/106 115/115/115 124/124/124 123/123/123 
f 116/116/116 106/106/106 123/123/123 128/128/128 
f 114/114/114 116/116/116 128/128/128 151/151/151 
f 127/127/127 152/152/152 151/151/151 128/128/128 
f 153/153/153 133/133/133 136/136/136 154/154/154 
f 140/140/140 155/155/155 156/156/156 138/138/138 
f 129/129/129 153/153/153 154/154/154 130/130/130 
f 118/118/118 100/100/100 130/130/130 154/154/154 
f 102/102/102 117/117/117 156/156/156 131/131/131 
f 155/155/155 132/132/132 131/131/131 156/156/156 
f 117/117/117 108/108/108 138/138/138 156/156/156 
f 104/104/104 118/118/118 154/154/154 136/136/136 
f 40/40/40 103/103/103 120/120/120 36/36/36 
f 99/99/99 16/16/16 18/18/18 126/126/126 
s off
f 42/42/42 41/41/41 9/9/9 101/101/101 
f 44/44/44 42/42/42 101/101/101 26/26/26 
f 41/41/41 20/20/20 9/9/9 
f 25/25/25 44/44/44 26/26/26 
f 101/101/101 9/9/9 8/8/8 
f 26/26/26 101/101/101 37/37/37 
f 101/101/101 8/8/8 17/17/17 
f 37/37/37 101/101/101 38/38/38 
f 101/101/101 17/17/17 99/99/99 
f 38/38/38 101/101/101 103/103/103 
f 17/17/17 16/16/16 99/99/99 
f 38/38/38 103/103/103 40/40/40 
# 106 polygons - 46 triangles

